<svg width="48" height="40" viewBox="0 0 48 40" fill="none" xmlns="http://www.w3.org/2000/svg">
<g clip-path="url(#clip0_17_1907)">
<path d="M24 13.1739C28.3386 13.1739 32 13.8789 32 16.599C32 19.32 28.3146 20 24 20C19.6624 20 16 19.295 16 16.575C16 13.8539 19.6854 13.1739 24 13.1739ZM24 0C26.9391 0 29.294 2.35402 29.294 5.29105C29.294 8.22808 26.9391 10.5831 24 10.5831C21.0619 10.5831 18.706 8.22808 18.706 5.29105C18.706 2.35402 21.0619 0 24 0Z" fill="black"/>
</g>
<path d="M6.43359 37L5.5957 34.6211H2.32031L1.48242 37H0L3.1875 28.3984H4.74609L7.92773 37H6.43359ZM5.23242 33.4141L4.41797 31.0703C4.38672 30.9688 4.3418 30.8262 4.2832 30.6426C4.22461 30.4551 4.16602 30.2656 4.10742 30.0742C4.04883 29.8789 4 29.7148 3.96094 29.582C3.92188 29.7422 3.87305 29.9219 3.81445 30.1211C3.75977 30.3164 3.70508 30.5 3.65039 30.6719C3.59961 30.8438 3.56055 30.9766 3.5332 31.0703L2.71289 33.4141H5.23242ZM11.5312 37.1172C10.918 37.1172 10.3867 36.998 9.9375 36.7598C9.48828 36.5215 9.14258 36.1562 8.90039 35.6641C8.6582 35.1719 8.53711 34.5469 8.53711 33.7891C8.53711 33 8.66992 32.3555 8.93555 31.8555C9.20117 31.3555 9.56836 30.9863 10.0371 30.748C10.5098 30.5098 11.0508 30.3906 11.6602 30.3906C12.0469 30.3906 12.3965 30.4297 12.709 30.5078C13.0254 30.582 13.293 30.6738 13.5117 30.7832L13.1016 31.8848C12.8633 31.7871 12.6191 31.7051 12.3691 31.6387C12.1191 31.5723 11.8789 31.5391 11.6484 31.5391C11.2695 31.5391 10.9531 31.623 10.6992 31.791C10.4492 31.959 10.2617 32.209 10.1367 32.541C10.0156 32.873 9.95508 33.2852 9.95508 33.7773C9.95508 34.2539 10.0176 34.6562 10.1426 34.9844C10.2676 35.3086 10.4531 35.5547 10.6992 35.7227C10.9453 35.8867 11.248 35.9688 11.6074 35.9688C11.9629 35.9688 12.2812 35.9258 12.5625 35.8398C12.8438 35.7539 13.1094 35.6426 13.3594 35.5059V36.7012C13.1133 36.8418 12.8496 36.9453 12.5684 37.0117C12.2871 37.082 11.9414 37.1172 11.5312 37.1172ZM17.4961 37.1172C16.8828 37.1172 16.3516 36.998 15.9023 36.7598C15.4531 36.5215 15.1074 36.1562 14.8652 35.6641C14.623 35.1719 14.502 34.5469 14.502 33.7891C14.502 33 14.6348 32.3555 14.9004 31.8555C15.166 31.3555 15.5332 30.9863 16.002 30.748C16.4746 30.5098 17.0156 30.3906 17.625 30.3906C18.0117 30.3906 18.3613 30.4297 18.6738 30.5078C18.9902 30.582 19.2578 30.6738 19.4766 30.7832L19.0664 31.8848C18.8281 31.7871 18.584 31.7051 18.334 31.6387C18.084 31.5723 17.8438 31.5391 17.6133 31.5391C17.2344 31.5391 16.918 31.623 16.6641 31.791C16.4141 31.959 16.2266 32.209 16.1016 32.541C15.9805 32.873 15.9199 33.2852 15.9199 33.7773C15.9199 34.2539 15.9824 34.6562 16.1074 34.9844C16.2324 35.3086 16.418 35.5547 16.6641 35.7227C16.9102 35.8867 17.2129 35.9688 17.5723 35.9688C17.9277 35.9688 18.2461 35.9258 18.5273 35.8398C18.8086 35.7539 19.0742 35.6426 19.3242 35.5059V36.7012C19.0781 36.8418 18.8145 36.9453 18.5332 37.0117C18.252 37.082 17.9062 37.1172 17.4961 37.1172ZM26.5898 33.7422C26.5898 34.2812 26.5195 34.7598 26.3789 35.1777C26.2383 35.5957 26.0332 35.9492 25.7637 36.2383C25.4941 36.5234 25.1699 36.7422 24.791 36.8945C24.4121 37.043 23.9844 37.1172 23.5078 37.1172C23.0625 37.1172 22.6543 37.043 22.2832 36.8945C21.9121 36.7422 21.5898 36.5234 21.3164 36.2383C21.0469 35.9492 20.8379 35.5957 20.6895 35.1777C20.541 34.7598 20.4668 34.2812 20.4668 33.7422C20.4668 33.0273 20.5898 32.4219 20.8359 31.9258C21.0859 31.4258 21.4414 31.0449 21.9023 30.7832C22.3633 30.5215 22.9121 30.3906 23.5488 30.3906C24.1465 30.3906 24.6738 30.5215 25.1309 30.7832C25.5879 31.0449 25.9453 31.4258 26.2031 31.9258C26.4609 32.4258 26.5898 33.0312 26.5898 33.7422ZM21.8848 33.7422C21.8848 34.2148 21.9414 34.6191 22.0547 34.9551C22.1719 35.291 22.3516 35.5488 22.5938 35.7285C22.8359 35.9043 23.1484 35.9922 23.5312 35.9922C23.9141 35.9922 24.2266 35.9043 24.4688 35.7285C24.7109 35.5488 24.8887 35.291 25.002 34.9551C25.1152 34.6191 25.1719 34.2148 25.1719 33.7422C25.1719 33.2695 25.1152 32.8691 25.002 32.541C24.8887 32.209 24.7109 31.957 24.4688 31.7852C24.2266 31.6094 23.9121 31.5215 23.5254 31.5215C22.9551 31.5215 22.5391 31.7129 22.2773 32.0957C22.0156 32.4785 21.8848 33.0273 21.8848 33.7422ZM33.8262 30.5137V37H32.7422L32.5547 36.127H32.4785C32.3418 36.3496 32.168 36.5352 31.957 36.6836C31.7461 36.8281 31.5117 36.9355 31.2539 37.0059C30.9961 37.0801 30.7246 37.1172 30.4395 37.1172C29.9512 37.1172 29.5332 37.0352 29.1855 36.8711C28.8418 36.7031 28.5781 36.4453 28.3945 36.0977C28.2109 35.75 28.1191 35.3008 28.1191 34.75V30.5137H29.502V34.4922C29.502 34.9961 29.6035 35.373 29.8066 35.623C30.0137 35.873 30.334 35.998 30.7676 35.998C31.1855 35.998 31.5176 35.9121 31.7637 35.7402C32.0098 35.5684 32.1836 35.3145 32.2852 34.9785C32.3906 34.6426 32.4434 34.2305 32.4434 33.7422V30.5137H33.8262ZM39.1816 30.3906C39.9121 30.3906 40.4805 30.5801 40.8867 30.959C41.2969 31.334 41.502 31.9375 41.502 32.7695V37H40.125V33.0273C40.125 32.5234 40.0215 32.1465 39.8145 31.8965C39.6074 31.6426 39.2871 31.5156 38.8535 31.5156C38.2246 31.5156 37.7871 31.709 37.541 32.0957C37.2988 32.4824 37.1777 33.043 37.1777 33.7773V37H35.8008V30.5137H36.873L37.0664 31.3926H37.1426C37.2832 31.166 37.457 30.9805 37.6641 30.8359C37.875 30.6875 38.1094 30.5762 38.3672 30.502C38.6289 30.4277 38.9004 30.3906 39.1816 30.3906ZM45.8438 36.0039C46.0234 36.0039 46.2012 35.9883 46.377 35.957C46.5527 35.9219 46.7129 35.8809 46.8574 35.834V36.877C46.7051 36.9434 46.5078 37 46.2656 37.0469C46.0234 37.0938 45.7715 37.1172 45.5098 37.1172C45.1426 37.1172 44.8125 37.0566 44.5195 36.9355C44.2266 36.8105 43.9941 36.5977 43.8223 36.2969C43.6504 35.9961 43.5645 35.5801 43.5645 35.0488V31.5625H42.6797V30.9473L43.6289 30.4609L44.0801 29.0723H44.9473V30.5137H46.8047V31.5625H44.9473V35.0312C44.9473 35.3594 45.0293 35.6035 45.1934 35.7637C45.3574 35.9238 45.5742 36.0039 45.8438 36.0039Z" fill="black"/>
<defs>
<clipPath id="clip0_17_1907">
<rect width="20" height="20" fill="white" transform="translate(14)"/>
</clipPath>
</defs>
</svg>
