<svg width="377" height="230" viewBox="0 0 377 230" fill="none" xmlns="http://www.w3.org/2000/svg">
<path d="M41 81.6736C41 81.6736 50.6044 60.6902 73.5531 63.0224C73.5531 63.0224 106.914 28.0519 142.423 58.3581C142.423 58.3581 180.202 50.8505 208.184 64.8605C226.837 74.2062 233 84 233 84L41 81.6736Z" fill="#E0115F" fill-opacity="0.2"/>
<path d="M176.525 33.8477H176.881C178.344 33.8411 179.752 33.3112 180.835 32.3598C185.654 28.0942 200.331 17.4812 216.135 29.6726C216.749 30.1427 217.456 30.4857 218.213 30.6804C218.969 30.875 219.759 30.9171 220.533 30.8041C226.636 29.9442 242.586 28.5412 255.073 35.0187L256.071 35.5505C261.269 38.3791 259.085 46.073 253.151 45.9995L176.747 45.0377C169.207 44.9416 169.038 34.1079 176.525 33.8477Z" fill="#E0115F" fill-opacity="0.2"/>
<path d="M1.99995 181C1.99995 181 -5.50004 141.718 19.8622 137.083C19.8622 137.083 31.0648 114.586 54.7258 116.46C78.3867 118.335 82.7584 132.026 82.7584 132.026C82.7584 132.026 96.3204 127.437 107.575 133.554C110.775 135.216 113.45 137.713 115.308 140.771C117.166 143.829 118.136 147.331 118.112 150.895C118.112 150.895 128.434 136.619 149.184 141.718C149.184 141.718 145.041 121.096 169.996 116.357C194.951 111.619 205.525 119.774 205.525 119.774C205.525 119.774 233.786 101.847 258.803 124.32C258.803 124.32 277.131 120.815 286.089 131.937C286.089 131.937 343 96.5 352.5 158C352.5 158 352.5 172 352.5 194C352.5 216 339 222 339 222H1.99995V181Z" fill="#D7E2FF"/>
<path d="M2.1381 181.284C2.1381 181.284 26.6341 175.267 48.4967 189.286C48.4967 189.286 53.8254 183.112 67.702 184.658C81.5786 186.204 85.4026 198.631 85.4026 198.631C85.4026 198.631 133.975 183.042 158 222H2L2.1381 181.284Z" fill="white"/>
<path d="M328.115 79.5409L302.667 121.604L302.265 121.441L258.541 103.868C258.541 103.868 280.63 105.145 283.463 103.222C286.143 101.418 315.364 79.292 322.519 78.0102C322.862 77.9287 323.22 77.9306 323.563 78.0159L328.115 79.5409Z" fill="#FD9A41"/>
<path d="M302.264 121.441L258.541 103.868C258.541 103.868 280.63 105.145 283.463 103.222C286.143 101.418 315.364 79.2921 322.519 78.0103C314.713 84.6343 296.43 100.688 295.46 106.52C294.549 112.08 299.64 118.538 302.264 121.441Z" fill="#FD9A41"/>
<path d="M303.467 136.48C301.785 136.592 296.785 136.803 289.969 136.94C270.374 137.331 235.759 137.125 221.764 132.248C209.21 127.881 142.879 104.605 97.1179 87.9478C113.761 71.1707 130.824 64.019 145.368 61.4768C198.753 80.5517 268.52 105.692 277.133 109.87C291.301 116.747 310.494 124.395 310.494 124.395C310.494 124.395 310.465 125.036 310.336 126.025C309.927 129.243 308.46 136.136 303.467 136.48Z" fill="#FD9A41"/>
<path d="M309.687 129.387C309.656 129.5 309.625 129.616 309.595 129.73C308.892 132.196 307.646 134.818 305.464 135.933L305.239 136.046C305.085 136.113 304.929 136.175 304.771 136.23L304.525 136.303C304.447 136.323 304.364 136.346 304.275 136.364L304.021 136.417L303.752 136.456C303.665 136.468 303.573 136.474 303.481 136.481L303.4 136.483L303.315 136.488L303.227 136.492L303.129 136.494C303.095 136.493 303.062 136.496 303.029 136.502L302.927 136.506L302.817 136.511L302.704 136.516L302.588 136.522L302.467 136.528L302.206 136.542L302.075 136.548L301.934 136.555L301.832 136.559L300.596 136.617L300.34 136.624C299.155 136.675 297.719 136.727 296.068 136.774L295.551 136.791L294.669 136.816L294.473 136.822L294.195 136.831L293.918 136.836L293.634 136.843L293.345 136.853L293.058 136.859L292.766 136.868L292.472 136.872L292.175 136.876L291.956 136.886C291.928 136.884 291.9 136.884 291.872 136.888L291.568 136.89C291.059 136.903 290.54 136.916 290.005 136.922L289.075 136.944L288.262 136.958L287.643 136.969L285.157 136.997L284.646 137.003L283.755 137.013L282.936 137.023L282.025 137.029C271.874 137.109 259.632 136.965 248.423 136.241C248.032 136.219 247.639 136.19 247.248 136.165L246.666 136.124C246.276 136.099 245.89 136.069 245.504 136.038C244.347 135.96 243.21 135.868 242.092 135.762L240.977 135.658L240.426 135.607L239.329 135.497L238.245 135.38L237.18 135.258L236.13 135.133L235.094 135.004L234.084 134.869L233.584 134.798C232.912 134.704 232.262 134.606 231.623 134.505L231.146 134.425L230.205 134.267C229.589 134.161 228.984 134.051 228.396 133.931C227.954 133.848 227.522 133.756 227.101 133.664C226.821 133.589 226.538 133.541 226.262 133.477C225.851 133.385 225.448 133.287 225.061 133.187C224.537 133.046 224.033 132.911 223.545 132.781C223.301 132.715 223.06 132.651 222.829 132.565C222.712 132.533 222.598 132.503 222.478 132.47C222.248 132.409 222.024 132.335 221.805 132.249L221.563 132.163L221.501 132.146L221.339 132.103L220.685 131.876L220.493 131.824L220.261 131.741L219.891 131.614L219.688 131.539L219.481 131.466L219.053 131.317L218.61 131.163L218.377 131.084L217.797 130.88L217.517 130.78L216.911 130.57L216.647 130.478L215.869 130.207L213.517 129.382L213.199 129.269L212.56 129.05L211.605 128.714L211.203 128.572L210.248 128.236L209.897 128.114L209.231 127.88L208.499 127.621L208.106 127.485L207.74 127.356L207.147 127.148L203.585 125.899L203.043 125.709L202.215 125.417C201.579 125.188 200.913 124.957 200.247 124.723L200.087 124.681L198.332 124.065L198.247 124.042L186.861 119.988L186.25 119.772L183.781 118.903L182.215 118.348L182.127 118.324L180.315 117.686L180.092 117.606L176.856 116.464L176.019 116.167L175.762 116.074L172.877 115.055L171.603 114.606C171.32 114.502 171.04 114.403 170.756 114.306L169.037 113.696C168.174 113.392 167.311 113.088 166.443 112.776L166.213 112.697L165.137 112.315L165.059 112.294L161.843 111.155L161.752 111.13L161.418 111.013L159.507 110.338C159.026 110.167 158.551 110.002 158.066 109.823L157.189 109.481C155.937 109.041 154.686 108.595 153.426 108.146L153.393 108.138L147.102 105.9L146.239 105.593L146.177 105.576L143.4 104.585L142.547 104.281L140.158 103.429L135.293 101.692L132.223 100.595L130.315 99.9102L125.724 98.274L125.508 98.1953C124.554 97.8497 123.6 97.5106 122.646 97.1682L118.592 95.7107L116.977 95.1288L116.487 94.9525L113.244 93.7885L112.77 93.6166L110.564 92.8208L101.44 89.5225L100.364 89.13L99.728 88.9006C99.4398 88.7922 99.15 88.6902 98.8577 88.5842C98.2796 88.3738 97.7007 88.1666 97.1333 87.9556C86.0253 83.9176 76.1441 80.2707 68.5304 77.3979L66.2781 76.5411C64.4698 75.8484 62.8012 75.207 61.3365 74.6238C57.1313 72.9765 54.2907 71.7783 53.1988 71.17C47.2991 67.8717 37.8709 60.8559 32.5576 54.797C29.3565 51.1325 27.6639 47.8096 29.149 45.8448C31.0425 43.3442 33.9721 42.3111 36.8461 41.7454C39.3417 41.2519 41.7918 41.1104 43.4932 40.6538L43.7827 40.5752C44.0783 40.4879 44.3653 40.3744 44.6405 40.2361L44.7675 40.1522C45.482 39.7885 46.6617 39.1713 48.3009 38.5176C49.5658 38.0153 50.8588 37.5856 52.1734 37.2307L52.1929 37.2359C58.7391 35.4546 69.141 34.4912 83.2817 39.4008C83.2817 39.4008 110.907 49.1831 145.338 61.4862L155.817 65.2308L159.379 66.5047L164.77 68.4382L173.846 71.6925L175.673 72.3449C176.89 72.7869 178.106 73.2282 179.319 73.6691L186.632 76.3014L190.269 77.6229C194.602 79.183 198.909 80.7361 203.154 82.2726L203.174 82.2778C215.438 86.7123 227.198 90.984 237.616 94.8096L239.258 95.4091C245.373 97.6581 250.995 99.7406 255.951 101.592C258.319 102.484 260.539 103.318 262.599 104.099C270.003 106.909 275.145 108.952 277.11 109.906C282.215 112.384 287.956 114.959 293.242 117.243C293.675 117.436 294.11 117.621 294.535 117.801L294.604 117.82L296.536 118.65L296.594 118.665L298.739 119.587L301.679 120.788L302.856 121.276C307.426 123.174 310.481 124.392 310.481 124.392C310.481 124.392 310.48 124.485 310.468 124.648L310.458 124.687C310.446 124.729 310.434 124.775 310.446 124.837C310.457 124.899 310.426 125.064 310.41 125.205C310.393 125.346 310.37 125.601 310.338 125.835C310.323 125.893 310.323 125.956 310.314 126.016C310.29 126.211 310.261 126.422 310.228 126.649C310.189 126.798 310.174 126.981 310.151 127.131C310.128 127.218 310.103 127.312 310.101 127.409C310.1 127.506 310.048 127.61 310.043 127.719C310.038 127.829 309.982 128.022 309.951 128.177C309.935 128.239 309.918 128.3 309.901 128.365C309.884 128.43 309.843 128.582 309.814 128.689C309.786 128.796 309.783 128.805 309.768 128.86C309.739 128.97 309.708 129.087 309.682 129.184C309.715 129.269 309.699 129.327 309.687 129.387Z" fill="#E0115F"/>
<path d="M309.687 129.387C309.656 129.5 309.625 129.616 309.595 129.73C308.892 132.196 307.646 134.818 305.465 135.933L305.239 136.046C305.085 136.113 304.929 136.175 304.772 136.23L304.526 136.303C304.447 136.323 304.364 136.346 304.275 136.364L304.021 136.417L303.752 136.456C303.666 136.468 303.573 136.474 303.481 136.481L303.4 136.483L303.315 136.488L303.227 136.492L303.129 136.494C303.095 136.493 303.062 136.496 303.029 136.502L302.927 136.506L302.817 136.511L302.705 136.516L302.588 136.522L302.468 136.528L302.206 136.542L302.075 136.548L301.934 136.555L301.832 136.559L300.596 136.617L300.34 136.624C299.155 136.675 297.719 136.727 296.068 136.774L295.551 136.792L294.67 136.816L294.473 136.822L294.195 136.831L293.918 136.836L293.634 136.843L293.345 136.853L293.058 136.859L292.766 136.868L292.472 136.872L292.175 136.876L291.956 136.886C291.928 136.884 291.9 136.884 291.872 136.888L291.568 136.89C291.059 136.903 290.54 136.916 290.005 136.922L289.075 136.944L288.263 136.958L287.643 136.969L285.157 136.997L284.646 137.003L283.755 137.013L282.936 137.023L282.025 137.029C271.874 137.109 259.632 136.965 248.424 136.241C248.032 136.219 247.639 136.19 247.248 136.166L246.667 136.124C246.276 136.099 245.89 136.069 245.504 136.038C244.347 135.96 243.21 135.868 242.093 135.762L240.977 135.658L240.426 135.607L239.33 135.497L238.245 135.38L237.18 135.258L236.13 135.133L235.094 135.004L234.084 134.869L233.584 134.798C232.912 134.704 232.262 134.606 231.623 134.505L231.146 134.425L230.206 134.267C229.589 134.161 228.984 134.051 228.396 133.931C227.955 133.848 227.522 133.756 227.101 133.664C226.821 133.589 226.538 133.541 226.262 133.478C225.851 133.385 225.449 133.287 225.061 133.187C224.537 133.047 224.033 132.911 223.545 132.781C223.301 132.715 223.06 132.651 222.829 132.565C222.712 132.533 222.598 132.503 222.478 132.47C222.248 132.409 222.024 132.335 221.805 132.249L221.563 132.163L221.502 132.146L221.339 132.103L220.685 131.876L220.493 131.824L220.261 131.741L219.891 131.614L219.688 131.539L219.481 131.466L219.054 131.317L218.61 131.164L218.377 131.084L217.797 130.88L217.517 130.78L216.911 130.57L216.647 130.478L215.869 130.207L213.517 129.383L213.199 129.269L212.56 129.05L211.605 128.714L211.204 128.572L210.248 128.236L209.897 128.114L209.231 127.88L208.499 127.622L208.107 127.485L207.74 127.356L207.148 127.148L203.585 125.899L203.044 125.709L202.215 125.417C201.58 125.188 200.913 124.957 200.247 124.723L200.088 124.681L198.332 124.065L198.247 124.042L186.861 119.988L186.25 119.773L183.781 118.903L182.215 118.348L182.127 118.324L180.315 117.686L180.092 117.606L176.856 116.465L176.019 116.167L175.762 116.074L172.877 115.055L171.603 114.606C171.32 114.502 171.04 114.403 170.756 114.306L169.037 113.696C168.174 113.392 167.311 113.088 166.443 112.776L166.213 112.697L165.137 112.315L165.059 112.294L161.844 111.155L161.752 111.13L161.418 111.013C189.811 103.92 203.175 82.2608 203.175 82.2608L203.195 82.2661C215.458 86.7005 227.218 90.9722 237.637 94.7979L239.279 95.3973C245.393 97.6463 251.016 99.7288 255.971 101.581C258.34 102.472 260.56 103.306 262.62 104.087C270.024 106.897 275.165 108.941 277.13 109.894C282.235 112.372 287.977 114.948 293.263 117.231C293.696 117.424 294.13 117.61 294.556 117.79L294.624 117.808L296.556 118.638L296.615 118.654L298.759 119.575L301.68 120.788L302.856 121.277C307.426 123.174 310.481 124.392 310.481 124.392C310.481 124.392 310.481 124.485 310.468 124.649L310.458 124.687C310.447 124.729 310.434 124.775 310.446 124.837C310.457 124.899 310.427 125.064 310.41 125.205C310.393 125.346 310.37 125.601 310.339 125.835C310.323 125.893 310.324 125.956 310.314 126.016C310.29 126.211 310.262 126.422 310.229 126.649C310.189 126.798 310.174 126.981 310.152 127.131C310.128 127.219 310.103 127.312 310.102 127.409C310.1 127.506 310.048 127.61 310.043 127.72C310.038 127.829 309.982 128.023 309.951 128.177C309.935 128.239 309.919 128.3 309.901 128.365C309.884 128.43 309.843 128.582 309.814 128.689C309.786 128.796 309.783 128.805 309.768 128.86C309.739 128.97 309.708 129.087 309.682 129.184C309.715 129.269 309.699 129.327 309.687 129.387Z" fill="#FD9A41"/>
<path opacity="0.5" d="M303.467 136.481C301.784 136.595 296.785 136.803 289.972 136.941C290.216 127.573 284.397 122.076 284.397 122.076L310.34 126.026C309.927 129.243 308.46 136.136 303.467 136.481Z" fill="#FD9A41"/>
<path d="M171.868 88.7808C171.468 88.6067 171.153 88.2823 170.992 87.8784C170.83 87.4744 170.835 87.0236 171.006 86.6243L171.639 84.8996C171.772 84.4854 172.061 84.1392 172.446 83.9341C172.831 83.729 173.281 83.6811 173.701 83.8005C174.102 83.9748 174.417 84.2998 174.579 84.7045C174.74 85.1092 174.734 85.5607 174.562 85.9603L173.927 87.6809C173.794 88.0945 173.506 88.4404 173.122 88.6456C172.738 88.8508 172.288 88.8993 171.868 88.7808Z" fill="#FD9A41"/>
<path d="M164.34 86.0456C163.94 85.8715 163.625 85.5471 163.463 85.1432C163.302 84.7392 163.307 84.2884 163.478 83.8891L164.111 82.1644C164.244 81.751 164.534 81.4057 164.918 81.2013C165.303 80.9968 165.752 80.9493 166.172 81.0686C166.573 81.242 166.888 81.5663 167.05 81.9706C167.211 82.3748 167.205 82.8259 167.034 83.2251L166.402 84.9466C166.269 85.3608 165.98 85.707 165.595 85.9121C165.21 86.1172 164.76 86.1651 164.34 86.0456Z" fill="#FD9A41"/>
<path d="M156.803 83.3148C156.402 83.1414 156.087 82.8171 155.925 82.4128C155.764 82.0086 155.769 81.5575 155.941 81.1583L156.574 79.4336C156.707 79.0202 156.997 78.6748 157.381 78.4704C157.766 78.266 158.215 78.2184 158.635 78.3378C159.035 78.5126 159.349 78.837 159.51 79.2407C159.672 79.6444 159.667 80.0949 159.497 80.4943L158.862 82.2149C158.729 82.6285 158.44 82.9744 158.056 83.1796C157.672 83.3848 157.223 83.4332 156.803 83.3148Z" fill="#FD9A41"/>
<path d="M149.263 80.5829C148.862 80.4095 148.547 80.0851 148.385 79.6809C148.224 79.2767 148.23 78.8256 148.401 78.4264L149.034 76.7016C149.168 76.2882 149.457 75.9429 149.841 75.7385C150.226 75.5341 150.675 75.4865 151.095 75.6058C151.496 75.7792 151.812 76.1036 151.973 76.5078C152.135 76.912 152.129 77.3631 151.957 77.7623L151.324 79.4871C151.191 79.9005 150.901 80.2458 150.517 80.4502C150.132 80.6546 149.683 80.7022 149.263 80.5829Z" fill="#FD9A41"/>
<path d="M141.726 77.8521C140.922 77.5637 140.534 76.5923 140.861 75.6948L141.497 73.9741C141.827 73.0774 142.756 72.5769 143.555 72.8742C143.955 73.0484 144.271 73.3728 144.433 73.7767C144.595 74.1807 144.59 74.6317 144.42 75.0316L143.784 76.7555C143.651 77.1683 143.362 77.5133 142.978 77.7178C142.595 77.9223 142.146 77.9705 141.726 77.8521Z" fill="#FD9A41"/>
<path d="M134.186 75.1237C133.785 74.9495 133.469 74.6244 133.308 74.2197C133.147 73.815 133.153 73.3635 133.325 72.964L133.957 71.2425C134.089 70.8283 134.379 70.4821 134.763 70.277C135.148 70.0719 135.598 70.024 136.018 70.1434C136.419 70.3175 136.734 70.6419 136.895 71.0459C137.057 71.4499 137.051 71.9006 136.88 72.2999L136.247 74.0247C136.115 74.4389 135.825 74.7851 135.441 74.9902C135.056 75.1953 134.606 75.2431 134.186 75.1237Z" fill="#FD9A41"/>
<path d="M126.649 72.3928C126.249 72.2186 125.933 71.8943 125.771 71.4903C125.609 71.0863 125.614 70.6354 125.784 70.2355L126.42 68.5116C126.552 68.098 126.841 67.7521 127.225 67.5469C127.609 67.3417 128.059 67.2933 128.479 67.4117C128.879 67.5859 129.194 67.9102 129.356 68.3142C129.518 68.7182 129.514 69.1692 129.344 69.5691L128.707 71.2929C128.575 71.7066 128.286 72.0524 127.902 72.2576C127.518 72.4628 127.069 72.5113 126.649 72.3928Z" fill="#FD9A41"/>
<path d="M119.125 69.6661C118.725 69.492 118.41 69.1676 118.248 68.7636C118.087 68.3596 118.092 67.9089 118.263 67.5096L118.896 65.7848C119.029 65.3706 119.318 65.0244 119.703 64.8193C120.088 64.6142 120.538 64.5664 120.958 64.6858C121.358 64.8599 121.673 65.1843 121.835 65.5883C121.996 65.9922 121.991 66.443 121.82 66.8423L121.187 68.567C121.054 68.9812 120.765 69.3274 120.38 69.5325C119.995 69.7376 119.545 69.7855 119.125 69.6661Z" fill="#FD9A41"/>
<path d="M111.572 66.9309C111.172 66.7567 110.856 66.4324 110.694 66.0284C110.532 65.6244 110.537 65.1735 110.707 64.7735L111.343 63.0497C111.476 62.6361 111.764 62.2902 112.148 62.085C112.532 61.8798 112.982 61.8313 113.402 61.9498C113.802 62.1248 114.117 62.4498 114.279 62.8543C114.441 63.2588 114.436 63.7101 114.266 64.1104L113.631 65.831C113.29 66.7251 112.376 67.2226 111.572 66.9309Z" fill="#FD9A41"/>
<path d="M104.191 64.2557C103.791 64.0823 103.475 63.7579 103.313 63.3537C103.152 62.9495 103.158 62.4984 103.329 62.0992L103.966 60.3753C104.099 59.9625 104.388 59.6175 104.771 59.413C105.155 59.2085 105.604 59.1603 106.023 59.2786C106.424 59.452 106.74 59.7764 106.901 60.1806C107.063 60.5848 107.057 61.0359 106.885 61.4351L106.253 63.1566C106.12 63.5708 105.831 63.9171 105.446 64.1221C105.062 64.3272 104.612 64.3751 104.191 64.2557Z" fill="#FD9A41"/>
<path d="M96.6448 61.5228C96.2441 61.3494 95.9284 61.0251 95.7669 60.6209C95.6054 60.2166 95.6111 59.7655 95.783 59.3663L96.4159 57.6416C96.5492 57.2282 96.8386 56.8829 97.2231 56.6784C97.6076 56.474 98.0571 56.4264 98.4768 56.5458C98.8775 56.7192 99.1932 57.0435 99.3547 57.4477C99.5163 57.8519 99.5105 58.3031 99.3387 58.7023L98.7025 60.4261C98.5693 60.839 98.2805 61.1839 97.8968 61.3885C97.513 61.593 97.0642 61.6411 96.6448 61.5228Z" fill="#FD9A41"/>
<path d="M89.1049 58.7909C88.7043 58.6175 88.3886 58.2931 88.227 57.8889C88.0655 57.4847 88.0713 57.0336 88.2431 56.6344L88.8752 54.9129C89.0078 54.4987 89.2971 54.1525 89.6818 53.9474C90.0666 53.7423 90.5167 53.6944 90.937 53.8138C91.337 53.9879 91.6521 54.3123 91.8136 54.7163C91.975 55.1203 91.9697 55.571 91.7988 55.9703L91.1659 57.6951C91.0325 58.1085 90.7432 58.4538 90.3587 58.6582C89.9742 58.8626 89.5247 58.9102 89.1049 58.7909Z" fill="#FD9A41"/>
<path d="M79.7901 55.3199C79.39 55.1458 79.0749 54.8214 78.9135 54.4174C78.7521 54.0134 78.7574 53.5627 78.9283 53.1634L79.5612 51.4386C79.6939 51.0244 79.9831 50.6782 80.3679 50.4731C80.7526 50.268 81.2027 50.2202 81.623 50.3396C82.0237 50.5139 82.3392 50.8389 82.5006 51.2436C82.6619 51.6483 82.6559 52.0998 82.484 52.4993L81.8519 54.2208C81.7192 54.635 81.43 54.9813 81.0452 55.1863C80.6605 55.3914 80.2104 55.4393 79.7901 55.3199Z" fill="#FD9A41"/>
<path d="M253.891 119.467C253.491 119.293 253.175 118.968 253.014 118.564C252.853 118.16 252.858 117.71 253.029 117.31L253.662 115.586C253.794 115.171 254.084 114.825 254.468 114.62C254.853 114.415 255.303 114.367 255.724 114.487C256.124 114.661 256.44 114.986 256.601 115.391C256.762 115.795 256.756 116.247 256.584 116.646L255.952 118.368C255.82 118.782 255.53 119.128 255.146 119.333C254.761 119.538 254.311 119.586 253.891 119.467Z" fill="#FD9A41"/>
<path d="M246.354 116.736C245.951 116.564 245.633 116.24 245.469 115.835C245.305 115.43 245.309 114.978 245.479 114.576L246.115 112.853C246.248 112.439 246.538 112.094 246.922 111.889C247.307 111.685 247.756 111.637 248.176 111.757C248.977 112.044 249.366 113.016 249.038 113.913L248.403 115.634C248.271 116.046 247.984 116.391 247.602 116.596C247.22 116.802 246.773 116.852 246.354 116.736Z" fill="#FD9A41"/>
<path d="M238.814 114.005C238.413 113.831 238.098 113.507 237.936 113.103C237.774 112.699 237.78 112.247 237.952 111.848L238.585 110.123C238.718 109.71 239.008 109.365 239.392 109.16C239.777 108.956 240.226 108.908 240.646 109.028C241.047 109.201 241.362 109.525 241.524 109.93C241.685 110.334 241.68 110.785 241.508 111.184L240.875 112.909C240.742 113.322 240.452 113.668 240.068 113.872C239.683 114.077 239.234 114.124 238.814 114.005Z" fill="#FD9A41"/>
<path d="M53.5585 37.6814L46.9759 41.2121L43.781 40.5815C44.0766 40.4942 44.3636 40.3807 44.6388 40.2423C44.6841 40.2157 44.7271 40.1855 44.7676 40.152C45.9158 39.5481 47.094 39.0023 48.2977 38.5166C49.5683 38.0116 50.8667 37.5788 52.1867 37.2202C52.1935 37.2204 52.2002 37.2222 52.2062 37.2254L53.5585 37.6814Z" fill="#FD9A41"/>
<path d="M54.658 38.1705L48.186 41.7828L53.6878 44.5754L57.0543 39.3746L54.658 38.1705Z" fill="#FD9A41"/>
<path d="M57.5563 39.6998L54.7672 44.6841L59.4174 44.6186L60.6922 40.9668L57.5563 39.6998Z" fill="#FD9A41"/>
<path d="M151.807 108.882C154.319 108.611 155.954 104.841 154.522 102.65C153.091 100.459 150.989 98.1051 148.164 97.1087C142.347 95.0886 141.532 107.759 143.437 108.533C144.554 108.993 148.474 109.248 151.807 108.882Z" fill="#FD9A41"/>
<path d="M284.529 119.554C284.853 119.294 308.876 117.97 322.462 124.99L306.228 129.987L284.394 122.086C284.394 122.086 282.909 120.838 284.529 119.554Z" fill="#FD9A41"/>
<path d="M287.455 65.9749C287.455 65.9749 263.961 94.5306 259.838 98.7135C255.716 102.897 248.703 104.404 248.703 104.404L248.668 104.394L205.241 109.741C205.241 109.741 157.416 92.815 147.112 88.8052C146.165 88.4369 145.537 88.1785 145.295 88.0546C142.246 86.5021 141.137 84.6055 142.069 83.5992C143.001 82.593 220.519 93.7535 229.083 95.0592L229.327 95.0969C237.673 96.3167 239.162 93.777 239.162 93.777L279.607 66.7205C280.23 66.1764 280.994 65.8184 281.812 65.6875C284.336 65.1806 287.455 65.9749 287.455 65.9749Z" fill="#E0115F"/>
<path d="M281.812 65.6873C270.774 73.5267 240.256 95.1455 237.565 96.4333C234.661 97.8376 164.375 90.5579 147.096 88.8007C146.149 88.4324 145.521 88.174 145.279 88.0501C142.23 86.4976 141.121 84.601 142.053 83.5947C142.985 82.5885 220.503 93.749 229.066 95.0547C237.63 96.3605 239.146 93.7725 239.146 93.7725L279.607 66.7204C280.23 66.1763 280.994 65.8182 281.812 65.6873Z" fill="#FD9A41"/>
<path d="M287.455 65.9752C287.455 65.9752 263.961 94.5309 259.838 98.7139C255.716 102.897 248.703 104.404 248.703 104.404L248.667 104.394C241.765 102.34 235.235 99.1974 229.326 95.0867C237.672 96.3064 239.161 93.7668 239.161 93.7668L279.607 66.7209C280.23 66.1767 280.994 65.8187 281.812 65.6878C284.335 65.1809 287.455 65.9752 287.455 65.9752Z" fill="#E0115F"/>
<path d="M150.269 94.6261L144.401 110.634C144.401 110.634 137.497 111.212 127.792 108.04C121.852 106.101 118.187 103.714 116.242 102.152C115.598 101.657 115.002 101.105 114.46 100.502L120.628 83.7278C121.436 83.3906 122.311 83.2395 123.186 83.2858C131.502 83.3836 149.262 93.6485 149.262 93.6485L150.269 94.6261Z" fill="#E9F0FF"/>
<path d="M123.164 83.2801L116.229 102.149C115.585 101.654 114.989 101.102 114.447 100.499L120.615 83.7247C121.42 83.3881 122.291 83.2361 123.164 83.2801Z" fill="#FD9A41"/>
<path d="M163 230C163 230 164.697 197.416 199.726 189.625C199.726 189.625 181.584 181.834 190.73 162.477C199.876 143.12 222.087 141.699 222.087 141.699C222.087 141.699 224.433 106.653 287.381 112.702C305.068 114.4 323.782 124.697 326.707 142.628C326.707 142.628 333.539 131.718 347.69 132.45C347.69 132.45 366.444 136.921 386.797 137.092L397 177.782L392.238 219.149L369.791 230H163Z" fill="white"/>
</svg>
