<svg width="27" height="32" viewBox="0 0 27 32" fill="none" xmlns="http://www.w3.org/2000/svg">
<path d="M13.4737 0C6.73684 0 0 0.842105 0 6.73684V22.7368C0 24.3368 0.64 25.7853 1.68421 26.8463V29.4737C1.68421 30.8716 2.81263 32 4.21053 32C5.60842 32 6.73684 30.8716 6.73684 29.4737V28.6316H20.2105V29.4737C20.2105 30.8547 21.3389 32 22.7368 32C24.1179 32 25.2632 30.8716 25.2632 29.4737V26.8463C26.3074 25.7853 26.9474 24.3368 26.9474 22.7368V6.73684C26.9474 0.842105 20.9179 0 13.4737 0ZM7.57895 23.5789C6.18105 23.5789 5.05263 22.4505 5.05263 21.0526C5.05263 19.6547 6.18105 18.5263 7.57895 18.5263C8.97684 18.5263 10.1053 19.6547 10.1053 21.0526C10.1053 22.4505 8.97684 23.5789 7.57895 23.5789ZM19.3684 23.5789C17.9705 23.5789 16.8421 22.4505 16.8421 21.0526C16.8421 19.6547 17.9705 18.5263 19.3684 18.5263C20.7663 18.5263 21.8947 19.6547 21.8947 21.0526C21.8947 22.4505 20.7663 23.5789 19.3684 23.5789ZM23.5789 13.4737H3.36842V8.42105H23.5789V13.4737Z" fill="#E0115F"/>
</svg>
