<svg width="299" height="340" viewBox="0 0 299 340" fill="none" xmlns="http://www.w3.org/2000/svg">
<path d="M286 92.2173V32.8169L243.717 16.7987V67.4417H234.074V0L191.791 14.0256V115.323H138.314V175.157H118.332V190.23H72.4362V164.276H46.0865V93.745H13.5355V223.943V307.325H41.436H46.0865H72.4362H87.3319H111.189H118.332H138.314H157.084H191.791H202.418H223.566H234.074H243.717H265.849H280.918H286V92.2173Z" fill="#E0115F" fill-opacity="0.2"/>
<path d="M226.635 19.1538H198.11V29.608H226.635V19.1538Z" fill="#E0115F" fill-opacity="0.15"/>
<path d="M226.635 38.7944H198.11V49.2486H226.635V38.7944Z" fill="#E0115F" fill-opacity="0.15"/>
<path d="M226.635 56.4648H198.11V66.919H226.635V56.4648Z" fill="#E0115F" fill-opacity="0.15"/>
<path d="M46.6887 141.261H13.5355V157.399H46.6887V141.261Z" fill="#E0115F" fill-opacity="0.15"/>
<path d="M46.3731 190.797H13.5355V206.935H46.3731V190.797Z" fill="#E0115F" fill-opacity="0.15"/>
<path d="M46.3731 215.174H13.5355V231.313H46.3731V215.174Z" fill="#E0115F" fill-opacity="0.15"/>
<path d="M45.8377 240.677H13V256.815H45.8377V240.677Z" fill="#E0115F" fill-opacity="0.15"/>
<path d="M45.8377 265.655H13V281.794H45.8377V265.655Z" fill="#E0115F" fill-opacity="0.15"/>
<path d="M45.8377 291.158H13V307.296H45.8377V291.158Z" fill="#E0115F" fill-opacity="0.15"/>
<path d="M279.285 56.4648H249.285V66.919H279.285V56.4648Z" fill="#E0115F" fill-opacity="0.15"/>
<path d="M279.285 38.9546H249.285V49.4088H279.285V38.9546Z" fill="#E0115F" fill-opacity="0.15"/>
<path d="M279.285 73.5972H197.383V84.0513H279.285V73.5972Z" fill="#E0115F" fill-opacity="0.15"/>
<path d="M279.285 89.3174H197.383V99.7715H279.285V89.3174Z" fill="#E0115F" fill-opacity="0.15"/>
<path d="M279.285 104.931H197.383V114.985H279.285V104.931Z" fill="#E0115F" fill-opacity="0.15"/>
<path d="M46.3731 166.419H13.5355V182.558H46.3731V166.419Z" fill="#E0115F" fill-opacity="0.15"/>
<path d="M153.669 125.13H146.502V135.242H153.669V125.13Z" fill="#E0115F" fill-opacity="0.15"/>
<path d="M167.074 125.13H159.906V135.242H167.074V125.13Z" fill="#E0115F" fill-opacity="0.15"/>
<path d="M180.179 125.13H173.011V135.242H180.179V125.13Z" fill="#E0115F" fill-opacity="0.15"/>
<path d="M192.604 125.13H185.436V135.242H192.604V125.13Z" fill="#E0115F" fill-opacity="0.15"/>
<path d="M205.267 125.13H198.099V135.242H205.267V125.13Z" fill="#E0115F" fill-opacity="0.15"/>
<path d="M218.076 125.13H210.908V135.242H218.076V125.13Z" fill="#E0115F" fill-opacity="0.15"/>
<path d="M231.481 125.13H224.313V135.242H231.481V125.13Z" fill="#E0115F" fill-opacity="0.15"/>
<path d="M244.583 125.13H237.416V135.242H244.583V125.13Z" fill="#E0115F" fill-opacity="0.15"/>
<path d="M257.011 125.13H249.843V135.242H257.011V125.13Z" fill="#E0115F" fill-opacity="0.15"/>
<path d="M269.673 125.13H262.505V135.242H269.673V125.13Z" fill="#E0115F" fill-opacity="0.15"/>
<path d="M282.869 125.13H275.701V135.242H282.869V125.13Z" fill="#E0115F" fill-opacity="0.15"/>
<path d="M153.669 142.974H146.502V153.085H153.669V142.974Z" fill="#E0115F" fill-opacity="0.15"/>
<path d="M167.074 142.974H159.906V153.085H167.074V142.974Z" fill="#E0115F" fill-opacity="0.15"/>
<path d="M180.179 142.974H173.011V153.085H180.179V142.974Z" fill="#E0115F" fill-opacity="0.15"/>
<path d="M192.604 142.974H185.436V153.085H192.604V142.974Z" fill="#E0115F" fill-opacity="0.15"/>
<path d="M205.267 142.974H198.099V153.085H205.267V142.974Z" fill="#E0115F" fill-opacity="0.15"/>
<path d="M218.076 142.974H210.908V153.085H218.076V142.974Z" fill="#E0115F" fill-opacity="0.15"/>
<path d="M231.481 142.974H224.313V153.085H231.481V142.974Z" fill="#E0115F" fill-opacity="0.15"/>
<path d="M244.583 142.974H237.416V153.085H244.583V142.974Z" fill="#E0115F" fill-opacity="0.15"/>
<path d="M257.011 142.974H249.843V153.085H257.011V142.974Z" fill="#E0115F" fill-opacity="0.15"/>
<path d="M269.673 142.974H262.505V153.085H269.673V142.974Z" fill="#E0115F" fill-opacity="0.15"/>
<path d="M282.869 142.974H275.701V153.085H282.869V142.974Z" fill="#E0115F" fill-opacity="0.15"/>
<path d="M153.669 160.544H146.502V170.656H153.669V160.544Z" fill="#E0115F" fill-opacity="0.15"/>
<path d="M167.074 160.544H159.906V170.656H167.074V160.544Z" fill="#E0115F" fill-opacity="0.15"/>
<path d="M180.179 160.544H173.011V170.656H180.179V160.544Z" fill="#E0115F" fill-opacity="0.15"/>
<path d="M192.604 160.544H185.436V170.656H192.604V160.544Z" fill="#E0115F" fill-opacity="0.15"/>
<path d="M205.267 160.544H198.099V170.656H205.267V160.544Z" fill="#E0115F" fill-opacity="0.15"/>
<path d="M218.076 160.544H210.908V170.656H218.076V160.544Z" fill="#E0115F" fill-opacity="0.15"/>
<path d="M231.481 160.544H224.313V170.656H231.481V160.544Z" fill="#E0115F" fill-opacity="0.15"/>
<path d="M244.583 160.544H237.416V170.656H244.583V160.544Z" fill="#E0115F" fill-opacity="0.15"/>
<path d="M257.011 160.544H249.843V170.656H257.011V160.544Z" fill="#E0115F" fill-opacity="0.15"/>
<path d="M269.673 160.544H262.505V170.656H269.673V160.544Z" fill="#E0115F" fill-opacity="0.15"/>
<path d="M282.869 160.544H275.701V170.656H282.869V160.544Z" fill="#E0115F" fill-opacity="0.15"/>
<path d="M153.669 179.213H146.502V189.325H153.669V179.213Z" fill="#E0115F" fill-opacity="0.15"/>
<path d="M167.074 179.213H159.906V189.325H167.074V179.213Z" fill="#E0115F" fill-opacity="0.15"/>
<path d="M180.179 179.213H173.011V189.325H180.179V179.213Z" fill="#E0115F" fill-opacity="0.15"/>
<path d="M192.604 179.213H185.436V189.325H192.604V179.213Z" fill="#E0115F" fill-opacity="0.15"/>
<path d="M205.267 179.213H198.099V189.325H205.267V179.213Z" fill="#E0115F" fill-opacity="0.15"/>
<path d="M218.076 179.213H210.908V189.325H218.076V179.213Z" fill="#E0115F" fill-opacity="0.15"/>
<path d="M231.481 179.213H224.313V189.325H231.481V179.213Z" fill="#E0115F" fill-opacity="0.15"/>
<path d="M244.583 179.213H237.416V189.325H244.583V179.213Z" fill="#E0115F" fill-opacity="0.15"/>
<path d="M257.011 179.213H249.843V189.325H257.011V179.213Z" fill="#E0115F" fill-opacity="0.15"/>
<path d="M269.673 179.213H262.505V189.325H269.673V179.213Z" fill="#E0115F" fill-opacity="0.15"/>
<path d="M282.869 179.213H275.701V189.325H282.869V179.213Z" fill="#E0115F" fill-opacity="0.15"/>
<path d="M153.669 197.057H146.502V207.169H153.669V197.057Z" fill="#E0115F" fill-opacity="0.15"/>
<path d="M167.074 197.057H159.906V207.169H167.074V197.057Z" fill="#E0115F" fill-opacity="0.15"/>
<path d="M180.179 197.057H173.011V207.169H180.179V197.057Z" fill="#E0115F" fill-opacity="0.15"/>
<path d="M192.604 197.057H185.436V207.169H192.604V197.057Z" fill="#E0115F" fill-opacity="0.15"/>
<path d="M205.267 197.057H198.099V207.169H205.267V197.057Z" fill="#E0115F" fill-opacity="0.15"/>
<path d="M218.076 197.057H210.908V207.169H218.076V197.057Z" fill="#E0115F" fill-opacity="0.15"/>
<path d="M231.481 197.057H224.313V207.169H231.481V197.057Z" fill="#E0115F" fill-opacity="0.15"/>
<path d="M244.583 197.057H237.416V207.169H244.583V197.057Z" fill="#E0115F" fill-opacity="0.15"/>
<path d="M257.011 197.057H249.843V207.169H257.011V197.057Z" fill="#E0115F" fill-opacity="0.15"/>
<path d="M269.673 197.057H262.505V207.169H269.673V197.057Z" fill="#E0115F" fill-opacity="0.15"/>
<path d="M282.869 197.057H275.701V207.169H282.869V197.057Z" fill="#E0115F" fill-opacity="0.15"/>
<path d="M153.669 214.63H146.502V224.742H153.669V214.63Z" fill="#E0115F" fill-opacity="0.15"/>
<path d="M167.074 214.63H159.906V224.742H167.074V214.63Z" fill="#E0115F" fill-opacity="0.15"/>
<path d="M180.179 214.63H173.011V224.742H180.179V214.63Z" fill="#E0115F" fill-opacity="0.15"/>
<path d="M192.604 214.63H185.436V224.742H192.604V214.63Z" fill="#E0115F" fill-opacity="0.15"/>
<path d="M205.267 214.63H198.099V224.742H205.267V214.63Z" fill="#E0115F" fill-opacity="0.15"/>
<path d="M218.076 214.63H210.908V224.742H218.076V214.63Z" fill="#E0115F" fill-opacity="0.15"/>
<path d="M231.481 214.63H224.313V224.742H231.481V214.63Z" fill="#E0115F" fill-opacity="0.15"/>
<path d="M244.583 214.63H237.416V224.742H244.583V214.63Z" fill="#E0115F" fill-opacity="0.15"/>
<path d="M257.011 214.63H249.843V224.742H257.011V214.63Z" fill="#E0115F" fill-opacity="0.15"/>
<path d="M269.673 214.63H262.505V224.742H269.673V214.63Z" fill="#E0115F" fill-opacity="0.15"/>
<path d="M282.869 214.63H275.701V224.742H282.869V214.63Z" fill="#E0115F" fill-opacity="0.15"/>
<path d="M13.5355 109.912V93.7738H20.3878V86.751H21.2499V93.7738H46.2332H46.6886H51.4147V86.751H52.279V93.7738H58.3404V164.298H46.2332V133.911H13.5355V117.773H46.2332V109.912H13.5355Z" fill="#E0115F" fill-opacity="0.15"/>
<path d="M212.706 263.905H221.458V250.529H212.706V263.905Z" fill="#E0115F"/>
<path d="M197.27 263.905H206.022V250.529H197.27V263.905Z" fill="#E0115F"/>
<path d="M181.732 263.905H190.484V250.529H181.732V263.905Z" fill="#E0115F"/>
<path d="M166.299 263.905H175.051V250.529H166.299V263.905Z" fill="#E0115F"/>
<path d="M150.401 263.905H159.153V250.529H150.401V263.905Z" fill="#E0115F"/>
<path d="M134.968 263.905H143.72V250.529H134.968V263.905Z" fill="#E0115F"/>
<path d="M119.43 263.905H128.182V250.529H119.43V263.905Z" fill="#E0115F"/>
<path d="M103.994 263.905H112.746V250.529H103.994V263.905Z" fill="#E0115F"/>
<path d="M87.8074 263.905H96.5595V250.529H87.8074V263.905Z" fill="#E0115F"/>
<path d="M72.3718 263.905H81.1239V250.529H72.3718V263.905Z" fill="#E0115F"/>
<path d="M212.706 283.686H221.458V270.309H212.706V283.686Z" fill="#E0115F"/>
<path d="M197.27 283.686H206.022V270.309H197.27V283.686Z" fill="#E0115F"/>
<path d="M181.732 283.686H190.484V270.309H181.732V283.686Z" fill="#E0115F"/>
<path d="M166.299 283.686H175.051V270.309H166.299V283.686Z" fill="#E0115F"/>
<path d="M150.401 283.686H159.153V270.309H150.401V283.686Z" fill="#E0115F"/>
<path d="M134.968 283.686H143.72V270.309H134.968V283.686Z" fill="#E0115F"/>
<path d="M119.43 283.686H128.182V270.309H119.43V283.686Z" fill="#E0115F"/>
<path d="M103.994 283.686H112.746V270.309H103.994V283.686Z" fill="#E0115F"/>
<path d="M87.8074 283.686H96.5595V270.309H87.8074V283.686Z" fill="#E0115F"/>
<path d="M72.3718 283.686H81.1239V270.309H72.3718V283.686Z" fill="#E0115F"/>
<path d="M212.706 304.935H221.458V291.558H212.706V304.935Z" fill="#E0115F"/>
<path d="M197.27 304.935H206.022V291.558H197.27V304.935Z" fill="#E0115F"/>
<path d="M181.732 304.935H190.484V291.558H181.732V304.935Z" fill="#E0115F"/>
<path d="M166.299 304.935H175.051V291.558H166.299V304.935Z" fill="#E0115F"/>
<path d="M150.401 304.935H159.153V291.558H150.401V304.935Z" fill="#E0115F"/>
<path d="M134.968 304.935H143.72V291.558H134.968V304.935Z" fill="#E0115F"/>
<path d="M119.43 304.935H128.182V291.558H119.43V304.935Z" fill="#E0115F"/>
<path d="M103.994 304.935H112.746V291.558H103.994V304.935Z" fill="#E0115F"/>
<path d="M87.8074 304.935H96.5595V291.558H87.8074V304.935Z" fill="#E0115F"/>
<path d="M72.3718 304.935H81.1239V291.558H72.3718V304.935Z" fill="#E0115F"/>
<path d="M120.285 245.067H86.0276V215.174L120.285 228.299V245.067Z" fill="#E0115F" fill-opacity="0.15"/>
<path d="M79.4397 240.677H86.0276V215.172H79.4397V240.677Z" fill="#E0115F" fill-opacity="0.15"/>
<path d="M106.629 236.73V227.97H93.2645V236.73H106.629Z" fill="#E0115F"/>
<path d="M246.033 339.366C255.36 339.366 262.921 331.793 262.921 322.451C262.921 313.109 255.36 305.536 246.033 305.536C236.706 305.536 229.145 313.109 229.145 322.451C229.145 331.793 236.706 339.366 246.033 339.366Z" fill="#2D3A62"/>
<path d="M246.033 311.971C243.964 311.971 241.941 312.585 240.22 313.737C238.499 314.889 237.158 316.525 236.366 318.44C235.574 320.355 235.367 322.463 235.771 324.496C236.174 326.529 237.171 328.396 238.634 329.862C240.098 331.327 241.962 332.326 243.992 332.73C246.022 333.134 248.125 332.927 250.037 332.134C251.949 331.34 253.584 329.997 254.733 328.274C255.883 326.55 256.497 324.524 256.497 322.451C256.497 319.671 255.394 317.006 253.432 315.04C251.47 313.075 248.808 311.971 246.033 311.971ZM247.467 313.119C249.693 313.463 251.721 314.595 253.184 316.31L249.558 318.553C248.958 318.008 248.241 317.61 247.462 317.389L247.467 313.119ZM244.601 313.119V317.389C243.822 317.61 243.105 318.008 242.506 318.553L238.875 316.31C240.34 314.593 242.372 313.461 244.601 313.119ZM237.339 326.111C236.85 324.945 236.6 323.692 236.603 322.427C236.607 321.162 236.863 319.91 237.357 318.746L240.982 320.989C240.711 321.928 240.706 322.924 240.968 323.866L237.339 326.111ZM244.601 331.783C242.357 331.438 240.314 330.292 238.847 328.556L242.469 326.32C243.075 326.882 243.806 327.292 244.601 327.518V331.783ZM243.665 322.451C243.665 321.98 243.804 321.52 244.065 321.129C244.326 320.737 244.698 320.432 245.132 320.252C245.566 320.072 246.044 320.025 246.505 320.117C246.966 320.209 247.39 320.436 247.722 320.769C248.054 321.102 248.28 321.526 248.372 321.988C248.463 322.449 248.416 322.928 248.236 323.363C248.056 323.798 247.751 324.17 247.36 324.431C246.969 324.692 246.509 324.832 246.039 324.831C245.727 324.831 245.418 324.77 245.13 324.65C244.842 324.53 244.58 324.355 244.36 324.134C244.139 323.913 243.964 323.651 243.845 323.362C243.726 323.073 243.664 322.764 243.665 322.451ZM247.473 331.783V327.513C248.265 327.288 248.993 326.879 249.598 326.32L253.22 328.561C251.752 330.294 249.71 331.439 247.467 331.783H247.473ZM251.1 323.866C251.362 322.924 251.357 321.928 251.086 320.989L254.711 318.746C255.205 319.91 255.461 321.162 255.465 322.427C255.468 323.692 255.218 324.945 254.729 326.111L251.1 323.866Z" fill="#98BDF4"/>
<path d="M46.7134 339.366C56.0405 339.366 63.6015 331.793 63.6015 322.451C63.6015 313.109 56.0405 305.536 46.7134 305.536C37.3864 305.536 29.8253 313.109 29.8253 322.451C29.8253 331.793 37.3864 339.366 46.7134 339.366Z" fill="#2D3A62"/>
<path d="M46.7135 311.971C44.644 311.971 42.621 312.585 40.9002 313.737C39.1795 314.889 37.8384 316.525 37.0464 318.44C36.2545 320.355 36.0473 322.463 36.451 324.496C36.8547 326.529 37.8513 328.396 39.3146 329.862C40.778 331.327 42.6424 332.326 44.6721 332.73C46.7018 333.134 48.8057 332.927 50.7177 332.134C52.6296 331.34 54.2638 329.997 55.4136 328.274C56.5633 326.55 57.177 324.524 57.177 322.451C57.177 319.671 56.0746 317.006 54.1123 315.04C52.15 313.075 49.4886 311.971 46.7135 311.971ZM48.1473 313.119C50.3729 313.463 52.4014 314.595 53.8642 316.31L50.2379 318.553C49.6383 318.008 48.9213 317.61 48.1427 317.389L48.1473 313.119ZM45.2811 313.119V317.389C44.5026 317.61 43.7855 318.008 43.186 318.553L39.5549 316.31C41.0198 314.593 43.0521 313.461 45.2811 313.119ZM38.0191 326.111C37.5306 324.945 37.2805 323.692 37.2837 322.427C37.2869 321.162 37.5432 319.91 38.0376 318.746L41.6625 320.989C41.3911 321.928 41.3863 322.924 41.6486 323.866L38.0191 326.111ZM45.2811 331.783C43.0375 331.438 40.994 330.292 39.5271 328.556L43.1489 326.32C43.7557 326.882 44.4862 327.292 45.2811 327.518V331.783ZM44.3448 322.451C44.3448 321.98 44.4842 321.52 44.7454 321.129C45.0066 320.737 45.3778 320.432 45.8121 320.252C46.2465 320.072 46.7243 320.025 47.1854 320.117C47.6464 320.209 48.0698 320.436 48.4021 320.769C48.7344 321.102 48.9606 321.526 49.0521 321.988C49.1436 322.449 49.0963 322.928 48.9162 323.363C48.7361 323.798 48.4313 324.17 48.0403 324.431C47.6493 324.692 47.1897 324.832 46.7196 324.831C46.0897 324.831 45.4856 324.58 45.0403 324.134C44.595 323.687 44.3448 323.082 44.3448 322.451ZM48.1535 331.783V327.513C48.9452 327.288 49.673 326.879 50.278 326.32L53.8998 328.561C52.4327 330.294 50.3899 331.439 48.1473 331.783H48.1535ZM51.7799 323.866C52.0422 322.924 52.0374 321.928 51.766 320.989L55.3908 318.746C55.8852 319.91 56.1416 321.162 56.1448 322.427C56.148 323.692 55.8979 324.945 55.4094 326.111L51.7799 323.866Z" fill="#98BDF4"/>
<path d="M124.382 215.281H20.7045V210.722C20.7045 210.233 20.8006 209.749 20.9874 209.298C21.1741 208.846 21.4479 208.436 21.7929 208.09C22.138 207.745 22.5476 207.47 22.9985 207.283C23.4493 207.096 23.9325 207 24.4205 207H116.656C117.253 207 117.842 207.145 118.371 207.421C118.901 207.697 119.357 208.097 119.7 208.586L124.382 215.281Z" fill="#E0115F"/>
<path d="M20.7045 212.571V215.281H124.382L122.486 212.571H20.7045Z" fill="#AD1347"/>
<path d="M27.9975 321.541C27.9975 316.616 29.951 311.892 33.4281 308.409C36.9053 304.927 41.6214 302.97 46.5389 302.97C51.4564 302.97 56.1724 304.927 59.6496 308.409C63.1268 311.892 65.0802 316.616 65.0802 321.541H227.317C227.317 316.616 229.271 311.892 232.748 308.409C236.225 304.927 240.941 302.97 245.859 302.97C250.776 302.97 255.492 304.927 258.969 308.409C262.447 311.892 264.4 316.616 264.4 321.541H283.292C284.547 321.541 285.75 321.042 286.638 320.153C287.525 319.264 288.023 318.059 288.023 316.802V224.844C288.023 222.308 287.017 219.875 285.227 218.082C283.436 216.289 281.008 215.281 278.476 215.281H11.5358C9.00388 215.282 6.57574 216.289 4.78537 218.083C2.995 219.876 1.989 222.308 1.98859 224.844V311.903C1.98878 313.04 2.3865 314.141 3.11271 315.015C3.83892 315.889 4.84777 316.481 5.96417 316.688" fill="#E0115F"/>
<path d="M261.166 311.061C263.278 314.146 264.405 317.8 264.4 321.541H283.292C284.547 321.541 285.75 321.042 286.638 320.153C287.525 319.264 288.023 318.059 288.023 316.802C288.023 316.048 287.875 315.302 287.587 314.605C287.299 313.908 286.877 313.275 286.344 312.742C285.812 312.209 285.18 311.786 284.485 311.498C283.789 311.209 283.044 311.061 282.291 311.061H261.166Z" fill="#AD1347"/>
<path d="M27.9975 321.541C27.9916 317.8 29.1187 314.146 31.2299 311.061H1.98859V311.902C1.98878 313.04 2.3865 314.141 3.11271 315.015C3.83892 315.889 4.84777 316.481 5.96417 316.688" fill="#AD1347"/>
<path d="M61.8463 311.061C63.9579 314.146 65.0856 317.8 65.0802 321.541H227.317C227.311 317.8 228.438 314.146 230.55 311.061H61.8463Z" fill="#AD1347"/>
<path d="M4.2228 285.515H0V307.904H4.2228V285.515Z" fill="#B64C41"/>
<path d="M4.2228 279.443H0V283.673H4.2228V279.443Z" fill="#F1A34F"/>
<path d="M288.023 284.38H285.846V304.626H288.023V284.38Z" fill="#B64C41"/>
<path d="M160.924 228.047H82.2263C80.5197 228.047 79.1361 229.433 79.1361 231.143V271.699C79.1361 273.408 80.5197 274.794 82.2263 274.794H160.924C162.63 274.794 164.014 273.408 164.014 271.699V231.143C164.014 229.433 162.63 228.047 160.924 228.047Z" fill="#163560"/>
<path d="M253.23 228.047H220.289C218.582 228.047 217.198 229.433 217.198 231.143V271.699C217.198 273.408 218.582 274.794 220.289 274.794H253.23C254.937 274.794 256.321 273.408 256.321 271.699V231.143C256.321 229.433 254.937 228.047 253.23 228.047Z" fill="#163560"/>
<path d="M262.489 228.047H284.933C285.753 228.047 286.539 228.373 287.118 228.954C287.698 229.534 288.023 230.322 288.023 231.143V274.794H280.01C277.303 274.794 274.623 274.26 272.122 273.223C269.622 272.185 267.349 270.665 265.436 268.747C263.522 266.83 262.003 264.554 260.967 262.05C259.932 259.545 259.398 256.86 259.398 254.149V231.143C259.398 230.322 259.724 229.534 260.304 228.954C260.883 228.373 261.669 228.047 262.489 228.047Z" fill="#163560"/>
<path d="M160.924 228.047H82.2263C80.5197 228.047 79.1361 229.433 79.1361 231.143V271.699C79.1361 273.408 80.5197 274.794 82.2263 274.794H160.924C162.63 274.794 164.014 273.408 164.014 271.699V231.143C164.014 229.433 162.63 228.047 160.924 228.047Z" fill="#98BDF4"/>
<path d="M253.23 228.047H220.289C218.582 228.047 217.198 229.433 217.198 231.143V271.699C217.198 273.408 218.582 274.794 220.289 274.794H253.23C254.937 274.794 256.321 273.408 256.321 271.699V231.143C256.321 229.433 254.937 228.047 253.23 228.047Z" fill="#98BDF4"/>
<path d="M262.489 228.047H284.933C285.753 228.047 286.539 228.373 287.118 228.954C287.698 229.534 288.023 230.322 288.023 231.143V274.794H280.01C277.303 274.794 274.623 274.26 272.122 273.223C269.622 272.185 267.349 270.665 265.436 268.747C263.522 266.83 262.003 264.554 260.967 262.05C259.932 259.545 259.398 256.86 259.398 254.149V231.143C259.398 230.322 259.724 229.534 260.304 228.954C260.883 228.373 261.669 228.047 262.489 228.047Z" fill="#98BDF4"/>
<path d="M69.5132 228.047H17.5432C15.8365 228.047 14.453 229.433 14.453 231.143V271.699C14.453 273.408 15.8365 274.794 17.5432 274.794H69.5132C71.2198 274.794 72.6034 273.408 72.6034 271.699V231.143C72.6034 229.433 71.2198 228.047 69.5132 228.047Z" fill="#98BDF4"/>
<path d="M211.526 228.047H170.117C169.298 228.047 168.512 228.373 167.932 228.954C167.352 229.534 167.027 230.322 167.027 231.143V321.541H214.616V231.143C214.616 230.322 214.291 229.534 213.711 228.954C213.132 228.373 212.346 228.047 211.526 228.047Z" fill="#98BDF4"/>
<path d="M107.504 274.577H96.504L117.615 227.577H128.615L107.504 274.577Z" fill="#D5E7F7"/>
<path d="M122.801 275.577H118.615L138.428 227.577H142.615L122.801 275.577Z" fill="#D5E7F7"/>
<path d="M231.615 275.077H218.404L240.906 228.077H254.115L231.615 275.077Z" fill="#D5E7F7"/>
<path d="M266.115 269.077L263.615 265.577L285.115 228.077L288.115 230.577L266.115 269.077Z" fill="#D5E7F7"/>
<path d="M45.1147 274.077H31.9039L45.1147 228.077H58.3254L45.1147 274.077Z" fill="#D5E7F7"/>
<path d="M217.115 265.577V254.077L228.615 228.077H235.22L217.115 265.577Z" fill="#D5E7F7"/>
<path d="M192.056 228.047H189.507V321.541H192.056V228.047Z" fill="#163560"/>
<path d="M69.5132 275.568H16.7707C15.7462 275.568 14.7637 275.16 14.0393 274.435C13.3149 273.709 12.9079 272.725 12.9079 271.699V231.142C12.9079 230.116 13.3149 229.132 14.0393 228.407C14.7637 227.681 15.7462 227.273 16.7707 227.273H69.5132C70.5376 227.273 71.5202 227.681 72.2446 228.407C72.969 229.132 73.376 230.116 73.376 231.142V271.699C73.376 272.725 72.969 273.709 72.2446 274.435C71.5202 275.16 70.5376 275.568 69.5132 275.568ZM16.7707 228.821C16.156 228.821 15.5665 229.066 15.1318 229.501C14.6972 229.936 14.453 230.527 14.453 231.142V271.699C14.453 272.315 14.6972 272.905 15.1318 273.34C15.5665 273.776 16.156 274.02 16.7707 274.02H69.5132C70.1279 274.02 70.7174 273.776 71.152 273.34C71.5867 272.905 71.8308 272.315 71.8308 271.699V231.142C71.8308 230.527 71.5867 229.936 71.152 229.501C70.7174 229.066 70.1279 228.821 69.5132 228.821H16.7707Z" fill="#163560"/>
<path d="M160.924 275.568H82.2264C81.2019 275.568 80.2194 275.16 79.495 274.435C78.7706 273.709 78.3636 272.725 78.3636 271.699V231.142C78.3636 230.116 78.7706 229.132 79.495 228.407C80.2194 227.681 81.2019 227.273 82.2264 227.273H160.924C161.948 227.273 162.931 227.681 163.655 228.407C164.38 229.132 164.786 230.116 164.786 231.142V271.699C164.786 272.725 164.38 273.709 163.655 274.435C162.931 275.16 161.948 275.568 160.924 275.568ZM82.2264 228.821C81.6117 228.821 81.0222 229.066 80.5875 229.501C80.1529 229.936 79.9087 230.527 79.9087 231.142V271.699C79.9087 272.315 80.1529 272.905 80.5875 273.34C81.0222 273.776 81.6117 274.02 82.2264 274.02H160.924C161.538 274.02 162.128 273.776 162.563 273.34C162.997 272.905 163.241 272.315 163.241 271.699V231.142C163.241 230.527 162.997 229.936 162.563 229.501C162.128 229.066 161.538 228.821 160.924 228.821H82.2264Z" fill="#163560"/>
<path d="M215.389 322.315H166.254V231.142C166.254 230.116 166.661 229.132 167.386 228.407C168.11 227.681 169.093 227.273 170.117 227.273H211.526C212.551 227.273 213.533 227.681 214.258 228.407C214.982 229.132 215.389 230.116 215.389 231.142V322.315ZM167.799 320.767H213.844V231.142C213.844 230.527 213.6 229.936 213.165 229.501C212.73 229.066 212.141 228.821 211.526 228.821H170.117C169.502 228.821 168.913 229.066 168.478 229.501C168.044 229.936 167.799 230.527 167.799 231.142V320.767Z" fill="#163560"/>
<path d="M253.232 275.568H220.289C219.264 275.568 218.282 275.16 217.557 274.435C216.833 273.709 216.426 272.725 216.426 271.699V231.142C216.426 230.116 216.833 229.132 217.557 228.407C218.282 227.681 219.264 227.273 220.289 227.273H253.232C254.256 227.273 255.239 227.681 255.963 228.407C256.688 229.132 257.095 230.116 257.095 231.142V271.699C257.095 272.725 256.688 273.709 255.963 274.435C255.239 275.16 254.256 275.568 253.232 275.568ZM220.289 228.821C219.674 228.821 219.084 229.066 218.65 229.501C218.215 229.936 217.971 230.527 217.971 231.142V271.699C217.971 272.315 218.215 272.905 218.65 273.34C219.084 273.776 219.674 274.02 220.289 274.02H253.232C253.847 274.02 254.436 273.776 254.871 273.34C255.305 272.905 255.55 272.315 255.55 271.699V231.142C255.55 230.527 255.305 229.936 254.871 229.501C254.436 229.066 253.847 228.821 253.232 228.821H220.289Z" fill="#163560"/>
<path d="M287.136 275.568H280.009C268.218 275.568 258.626 265.96 258.626 254.151V231.142C258.626 230.116 259.033 229.132 259.757 228.407C260.482 227.681 261.464 227.273 262.489 227.273H284.933C285.958 227.273 286.94 227.681 287.664 228.407C288.389 229.132 288.796 230.116 288.796 231.142V273.906C288.795 274.346 288.62 274.769 288.309 275.081C287.998 275.392 287.576 275.567 287.136 275.568ZM262.489 228.821C261.874 228.821 261.285 229.066 260.85 229.501C260.415 229.936 260.171 230.527 260.171 231.142V254.151C260.177 259.419 262.269 264.469 265.988 268.194C269.707 271.919 274.749 274.014 280.009 274.02H287.136C287.151 274.02 287.166 274.017 287.18 274.012C287.194 274.006 287.207 273.997 287.217 273.987C287.228 273.976 287.236 273.963 287.242 273.95C287.248 273.936 287.251 273.921 287.251 273.906V231.142C287.251 230.527 287.007 229.936 286.572 229.501C286.137 229.066 285.548 228.821 284.933 228.821H262.489Z" fill="#163560"/>
<path d="M219.947 321.541H161.619V324.308H219.947V321.541Z" fill="#E0115F"/>
<path d="M222.497 324.308H159.07V327.075H222.497V324.308Z" fill="#AD1347"/>
<path d="M295.375 257.246C294.942 257.246 294.513 257.16 294.113 256.995C293.713 256.829 293.35 256.585 293.044 256.279C292.738 255.972 292.495 255.608 292.33 255.207C292.164 254.806 292.079 254.377 292.079 253.943V226.913C292.079 226.479 292.164 226.05 292.33 225.649C292.495 225.249 292.738 224.884 293.044 224.578C293.35 224.271 293.713 224.028 294.113 223.862C294.513 223.696 294.942 223.61 295.375 223.61C295.808 223.61 296.237 223.696 296.637 223.862C297.036 224.028 297.4 224.271 297.706 224.578C298.012 224.884 298.255 225.249 298.42 225.649C298.586 226.05 298.671 226.479 298.671 226.913V253.943C298.671 254.377 298.586 254.806 298.42 255.207C298.255 255.608 298.012 255.972 297.706 256.279C297.4 256.585 297.036 256.829 296.637 256.995C296.237 257.16 295.808 257.246 295.375 257.246Z" fill="#E0115F"/>
<path d="M293.972 225.764H262.966C262.396 225.764 261.849 225.538 261.445 225.134C261.042 224.73 260.815 224.182 260.815 223.61C260.816 223.039 261.042 222.492 261.446 222.088C261.849 221.684 262.396 221.458 262.966 221.458H293.972C294.542 221.458 295.089 221.684 295.492 222.088C295.895 222.492 296.121 223.039 296.121 223.61C296.121 224.181 295.895 224.729 295.492 225.133C295.089 225.537 294.542 225.764 293.972 225.764Z" fill="#AD1347"/>
<path d="M121.928 337.628C122.035 337.882 122.065 338.161 122.014 338.431C121.963 338.701 121.833 338.95 121.641 339.147C121.448 339.343 121.202 339.478 120.934 339.535C120.665 339.591 120.386 339.567 120.131 339.465C119.876 339.362 119.657 339.187 119.501 338.96C119.346 338.733 119.261 338.466 119.257 338.191C119.253 337.916 119.331 337.646 119.48 337.415C119.629 337.184 119.844 337.002 120.096 336.893C120.264 336.82 120.445 336.781 120.629 336.779C120.812 336.776 120.994 336.81 121.165 336.879C121.335 336.947 121.49 337.048 121.621 337.177C121.752 337.306 121.857 337.459 121.928 337.628Z" fill="#D86713"/>
<path d="M122.064 337.628C122.171 337.882 122.201 338.161 122.15 338.431C122.099 338.701 121.969 338.95 121.777 339.147C121.584 339.343 121.338 339.478 121.07 339.535C120.801 339.591 120.521 339.567 120.267 339.465C120.012 339.362 119.793 339.187 119.637 338.96C119.482 338.733 119.397 338.466 119.393 338.191C119.389 337.916 119.467 337.646 119.616 337.415C119.765 337.184 119.98 337.002 120.232 336.893C120.4 336.82 120.581 336.781 120.765 336.779C120.948 336.776 121.13 336.81 121.301 336.879C121.471 336.947 121.626 337.048 121.757 337.177C121.888 337.306 121.992 337.459 122.064 337.628Z" fill="#F1A34F"/>
<path d="M133.132 337.628C133.239 337.882 133.269 338.161 133.217 338.431C133.166 338.701 133.036 338.95 132.844 339.147C132.652 339.343 132.406 339.478 132.137 339.535C131.869 339.591 131.589 339.567 131.334 339.465C131.079 339.362 130.86 339.187 130.705 338.96C130.549 338.733 130.465 338.466 130.461 338.191C130.457 337.916 130.535 337.646 130.684 337.415C130.833 337.184 131.047 337.002 131.299 336.893C131.468 336.82 131.649 336.781 131.832 336.779C132.016 336.776 132.198 336.81 132.368 336.879C132.539 336.947 132.694 337.048 132.825 337.177C132.956 337.306 133.06 337.459 133.132 337.628Z" fill="#D86713"/>
<path d="M133.258 337.628C133.366 337.882 133.395 338.161 133.344 338.431C133.293 338.701 133.163 338.95 132.971 339.147C132.779 339.343 132.533 339.478 132.264 339.535C131.995 339.591 131.716 339.567 131.461 339.465C131.206 339.362 130.987 339.187 130.832 338.96C130.676 338.733 130.591 338.466 130.587 338.191C130.584 337.916 130.661 337.646 130.811 337.415C130.96 337.184 131.174 337.002 131.426 336.893C131.594 336.82 131.775 336.781 131.959 336.779C132.142 336.776 132.325 336.81 132.495 336.879C132.665 336.947 132.82 337.048 132.951 337.177C133.083 337.306 133.187 337.459 133.258 337.628Z" fill="#F1A34F"/>
<path d="M119.042 337.449L121.027 338.162C121.228 338.235 121.44 338.271 121.653 338.269L132.914 338.153L134.15 336.112L119.042 337.449Z" fill="#D86713"/>
<path d="M126.536 302.662C126.565 302.397 126.945 299.686 130.182 299.598L132.535 299.348C132.69 299.319 133.683 299.152 134.445 299.734C134.961 300.127 135.244 300.757 135.287 301.605C135.343 302.7 133.968 309.787 133.34 312.953L137.551 313.797C137.551 313.797 139.323 314.52 138.972 317.629C138.663 320.366 137.307 335.723 137.307 335.723C137.307 335.723 137.022 338.917 130.208 337.992L131.474 312.58L132.75 312.836C133.572 308.704 134.734 302.564 134.686 301.636C134.652 300.975 134.45 300.497 134.084 300.217C133.498 299.766 132.654 299.94 132.647 299.941L130.233 300.198H130.21C127.364 300.269 127.141 302.628 127.134 302.727V302.742L125.123 313.784L124.532 313.676L126.536 302.662Z" fill="#D86713"/>
<path d="M134.842 316.804L133.209 334.002C133.118 334.961 132.674 335.851 131.965 336.501C131.256 337.151 130.331 337.514 129.369 337.52L123.734 337.554H123.594L120.065 337.576C119.72 337.579 119.375 337.536 119.042 337.447C118.966 337.427 118.887 337.406 118.816 337.381C117.945 337.091 117.205 336.501 116.727 335.716C116.249 334.93 116.065 334.001 116.207 333.092L118.767 316.638C118.899 315.785 119.312 315.001 119.939 314.408C120.566 313.816 121.373 313.45 122.231 313.368L123.226 313.272L123.464 313.251L123.663 313.232L126.991 312.913L127.399 312.875L130.612 312.565C131.097 312.518 131.587 312.563 132.056 312.697L132.146 312.724L132.331 312.788C133.133 313.086 133.814 313.642 134.269 314.368C134.723 315.095 134.924 315.951 134.842 316.804Z" fill="#F1A34F"/>
<path opacity="0.4" d="M132.517 335.874C132.161 336.379 131.69 336.792 131.142 337.079C130.595 337.365 129.987 337.517 129.369 337.52L123.734 337.554H123.594L120.065 337.576C119.72 337.579 119.375 337.536 119.042 337.447C118.966 337.427 118.887 337.406 118.816 337.381C117.594 336.974 116.19 335.493 116.166 333.92C116.166 333.92 128.088 333.766 130.581 334.15C131.866 334.351 132.251 335.251 132.517 335.874Z" fill="#D86713"/>
<path d="M117.738 334.618C117.835 333.925 120.123 317.646 120.479 316.202C120.788 314.931 122.634 313.664 123.231 313.281L123.469 313.26L123.668 313.241C123.643 313.257 121.029 314.852 120.686 316.254C120.332 317.695 117.973 334.487 117.949 334.655C117.955 335.192 118.071 335.722 118.29 336.212C118.51 336.702 118.828 337.141 119.226 337.501L119.046 337.458C118.971 337.438 118.892 337.416 118.821 337.392C118.448 337.037 118.158 336.605 117.97 336.126C117.783 335.647 117.704 335.132 117.738 334.618Z" fill="#D86713"/>
<path d="M125.072 316.208C125.282 314.909 125.966 313.735 126.991 312.913L127.399 312.875C126.839 313.265 126.364 313.764 126 314.341C125.636 314.919 125.392 315.565 125.283 316.239C124.923 318.605 123.52 335.791 123.506 335.963V335.976V335.988C123.506 335.988 123.303 336.917 123.88 337.554H123.594C123.042 336.879 123.26 336.05 123.294 335.934C123.339 335.403 124.715 318.554 125.072 316.208Z" fill="#D86713"/>
<path d="M129.944 316.106C130.279 313.897 131.743 312.885 132.053 312.701L132.143 312.729L132.328 312.792C131.947 313.021 131.603 313.307 131.307 313.639C130.689 314.345 130.289 315.215 130.154 316.145C129.796 318.509 128.683 335.644 128.671 335.81V335.824V335.836C128.671 335.836 128.62 336.892 129.198 337.523H128.843C128.401 336.947 128.428 335.906 128.465 335.782C128.499 335.236 129.59 318.458 129.944 316.106Z" fill="#D86713"/>
<path d="M151.906 272.1C152.061 271.606 152.188 271.247 152.248 271.069L152.29 270.944C152.336 270.99 152.379 271.039 152.419 271.091C152.915 271.71 154.621 274.395 153.346 280.599C153.158 281.512 152.905 282.501 152.574 283.572C152.574 283.572 157.296 282.737 158.628 281.848C158.683 281.709 159.379 279.649 159.905 279.372C160.432 279.095 161.406 278.787 161.628 278.899C161.851 279.01 162.266 280.568 161.628 281.375C160.99 282.181 159.351 282.959 159.351 282.959C159.351 282.959 154.074 287.189 150.408 287.076C147.338 286.983 150.714 275.78 151.906 272.1Z" fill="#D9935C"/>
<path d="M133.405 291.527C133.526 291.819 134.048 292.079 134.796 292.266L135.011 292.318C136.71 292.689 139.411 292.709 141.398 291.972C143.621 291.148 145.236 279.377 145.921 273.342C145.931 273.25 145.942 273.158 145.952 273.068C146.176 271.117 146.291 269.832 146.291 269.832C146.291 269.832 145.015 267.83 140.071 268.497C135.126 269.164 134.627 270.834 134.184 273.838C133.74 276.842 133.017 290.581 133.405 291.527Z" fill="#466AA5"/>
<path d="M135.015 292.318C136.715 292.689 139.416 292.709 141.403 291.973C143.626 291.148 145.241 279.377 145.925 273.342C145.936 273.25 145.947 273.158 145.956 273.069C145.451 271.32 145.071 270.202 145.071 270.202C145.071 270.202 138.864 269.452 137.654 271.329C136.599 272.97 135.321 288.444 135.015 292.318Z" fill="#2B478B"/>
<path d="M132.191 298.141C132.557 297.909 132.911 297.213 133.041 296.923C134.17 294.116 135.471 288.653 135.902 287.648C136.057 287.282 136.366 285.558 136.752 283.335C137.457 279.349 138.461 273.759 139.467 271.544C139.587 271.278 139.93 271.052 140.394 270.863C141.596 270.36 143.547 270.114 144.005 270.061C144.491 269.671 145.162 267.995 145.153 265.442L145.371 265.485L149.033 266.211C149.033 266.211 148.949 267.366 148.946 268.454C148.946 269.359 148.999 270.218 149.204 270.326C149.467 270.349 149.623 270.366 149.623 270.366C149.623 270.366 152.676 274.613 152.932 278.569C153.189 282.524 150.48 284.225 152.946 292.118C155.463 300.181 138.357 295.097 139.297 292.986C140.996 289.177 141.811 288.094 141.842 286.89C141.862 286.047 141.494 285.141 140.775 283.188L140.587 283.885C140.179 285.401 139.83 286.754 139.688 287.429C139.252 289.506 134.45 297.488 134.45 297.488C134.45 297.488 134.304 297.586 134.141 298.072C133.977 298.557 132.613 301.131 132.03 301.131C131.448 301.131 131.327 300.257 131.207 299.698C131.086 299.139 131.73 298.432 132.191 298.141Z" fill="#D9935C"/>
<path d="M140.388 255.222C141.2 254.723 142.498 255.319 142.498 255.319C142.049 254.688 140.412 254.894 140.412 254.894C143.68 254.197 144.355 256.296 144.41 256.481C146.775 254.344 150.561 258.902 150.561 258.902L145.128 266.118C145.128 266.118 144.632 264.97 143.977 265.329C142.956 265.888 140.981 263.627 141.613 260.654C141.676 260.354 141.756 260.059 141.854 259.768C141.641 259.87 141.411 259.927 141.176 259.937C140.582 259.937 139.685 258.419 139.564 257.908C139.444 257.398 139.575 255.72 140.388 255.222Z" fill="#233862"/>
<path d="M149.025 266.211C149.025 266.211 148.941 267.366 148.938 268.454C146.889 268.395 145.806 266.522 145.363 265.485L149.025 266.211Z" fill="#CB7D45"/>
<path d="M144.984 265.086C144.984 265.086 143.903 263.384 143.652 261.934C143.469 260.895 143.997 257.05 147.855 257.601C148.633 257.71 149.376 257.992 150.031 258.427C150.868 258.993 152.076 260.218 150.726 263.573L150.374 264.707L144.984 265.086Z" fill="#233862"/>
<path d="M149.709 267.24C149.709 267.24 144.861 267.321 144.858 264.3C144.855 261.279 144.226 259.247 147.33 259.069C150.434 258.891 151.027 260.043 151.273 261.053C151.519 262.064 150.97 267.143 149.709 267.24Z" fill="#D9935C"/>
<path d="M143.589 329.638C144.334 332.591 145.357 335.465 146.645 338.224L148.245 338.113C148.245 338.113 147.461 334.377 147.506 329.328C147.537 325.8 147.969 321.629 149.36 317.647C154.15 303.962 153.377 294.003 153.377 294.003L144.38 295.058L143.96 295.108C143.923 299.246 143.816 304.858 143.724 309.258C143.64 313.209 143.569 316.169 143.569 316.169C141.842 319.899 142.467 325.165 143.589 329.638Z" fill="#AA413E"/>
<path d="M140.485 282.4C141.393 284.915 141.862 285.94 141.838 286.889C144.736 282.4 149.966 281.72 149.966 281.72L140.032 280.582C140.122 281.202 140.274 281.811 140.485 282.4Z" fill="#CB7D45"/>
<path d="M138.428 328.861C138.946 334.391 141.223 337.966 141.223 337.966L141.987 338.523C141.987 338.523 142.71 334.627 143.223 329.992C143.711 325.586 144.379 320.925 145.134 319.503C148.135 313.86 149.037 292.557 149.037 292.557L139.921 292.105C139.003 293.653 138.603 296.183 138.509 299.07C138.269 306.343 139.975 315.819 140.23 317.191C140.245 317.298 140.224 317.407 140.17 317.5C138.35 321.092 138.088 325.209 138.428 328.861Z" fill="#B64C41"/>
<path d="M146.168 263.065C144.131 263.59 143.248 263.043 143.248 263.043C143.248 263.043 143.402 260.97 145.134 259.629C147.651 257.686 149.385 258.771 149.491 258.931C149.8 258.658 150.375 258.458 151.125 259.368C152.248 260.731 151.248 263.144 151.248 263.144C150.785 263.198 150.678 261.612 150.437 260.843C150.259 260.275 149.675 259.698 149.38 259.431C149.284 259.781 148.308 263.178 145.871 264.306C146.625 263.604 147.28 262.803 147.818 261.925C147.342 262.462 146.786 262.904 146.168 263.065Z" fill="#233862"/>
<path d="M138.153 295.749C138.131 295.994 138.15 296.241 138.21 296.479C138.404 297.098 139.071 297.369 140.683 297.202C141.667 297.1 142.106 295.447 142.302 294.036C142.894 296.047 143.722 297.186 144.793 297.423C146.355 297.771 154.233 298.731 154.749 294.98C155.316 290.854 153.618 283.546 153.526 279.607C153.735 278.402 153.83 277.18 153.81 275.956C153.745 273.149 152.923 271.577 152.29 270.944C152.11 270.806 151.933 270.719 151.208 270.596C150.84 270.534 150.332 270.461 149.61 270.367C149.515 270.354 149.419 270.346 149.323 270.343C149.456 270.582 151.24 273.284 151.101 273.985C150.956 274.714 144.626 274.058 144.19 273.657C143.754 273.256 143.062 270.187 143.062 270.187C143.062 270.187 140.822 270.433 139.725 271.232L139.737 271.246C139.618 271.325 139.519 271.431 139.448 271.555C138.278 273.785 137.11 279.415 136.29 283.431C138.28 284.53 140.02 284.205 140.561 284.058C139.859 288.676 138.258 293.641 138.153 295.749Z" fill="#F1A34F"/>
<path d="M149.615 270.367L149.626 270.382C149.841 270.723 153.203 276.108 153.526 279.607C153.735 278.402 153.83 277.18 153.81 275.957C153.379 274.633 152.328 271.695 151.213 270.596C151.074 270.452 149.615 270.367 149.615 270.367Z" fill="#466AA5"/>
<path d="M157.614 282.166L159.026 277.921C159.032 277.903 159.041 277.887 159.053 277.873C159.065 277.859 159.08 277.847 159.097 277.839C159.113 277.83 159.131 277.825 159.149 277.824C159.168 277.823 159.186 277.825 159.204 277.831L161.427 278.572C161.463 278.584 161.492 278.61 161.508 278.643C161.525 278.676 161.527 278.715 161.515 278.75L160.105 282.997C160.093 283.032 160.067 283.061 160.034 283.078C160.001 283.094 159.962 283.097 159.927 283.085L157.704 282.344C157.668 282.332 157.639 282.306 157.623 282.273C157.606 282.24 157.603 282.201 157.614 282.166Z" fill="#F1A34F"/>
<path d="M158.124 282.214L159.465 278.176C159.487 278.115 159.531 278.065 159.588 278.036C159.646 278.007 159.713 278.002 159.774 278.021L161.79 278.693C161.851 278.715 161.901 278.759 161.93 278.817C161.958 278.874 161.964 278.941 161.945 279.002L160.602 283.042C160.581 283.102 160.537 283.153 160.479 283.181C160.421 283.21 160.355 283.216 160.293 283.196L158.285 282.525C158.222 282.504 158.171 282.46 158.14 282.402C158.11 282.344 158.104 282.276 158.124 282.214Z" fill="#D86713"/>
<path d="M138.428 328.861C138.946 334.391 141.223 337.966 141.223 337.966L141.996 338.676C141.996 338.676 142.705 334.628 143.217 329.993C142.682 330.034 140.306 330.118 138.428 328.861Z" fill="#D9935C"/>
<path d="M143.589 329.638C144.334 332.591 145.357 335.466 146.645 338.224L148.244 338.113C148.244 338.113 147.461 334.377 147.506 329.329C146.964 329.603 145.843 329.88 143.589 329.638Z" fill="#D9935C"/>
<path d="M145.724 339.566H146.746C147.087 339.512 147.341 339.411 147.691 339.368C148.223 339.298 148.464 339.523 148.518 339.566L148.527 339.577H152.863C152.973 339.422 152.863 339.06 152.764 338.794C152.73 338.705 152.675 338.625 152.605 338.56C152.535 338.496 152.451 338.449 152.359 338.422C151.896 338.288 150.992 338.17 150.162 337.416C149.698 336.994 147.906 335.869 147.906 335.869H147.897C147.858 335.869 147.671 335.926 146.859 336.615C146.437 336.969 145.721 336.113 145.721 336.113C145.622 336.203 145.542 336.311 145.485 336.432C145.384 336.639 145.352 336.872 145.392 337.099C145.457 337.491 145.249 338.218 145.083 338.708C144.983 339.007 144.898 339.219 144.898 339.219C144.898 339.219 144.847 339.456 145.724 339.566Z" fill="#233862"/>
<path d="M145.485 336.425C145.729 336.596 146.244 336.935 146.585 336.98C147.049 337.041 147.906 335.863 147.906 335.863H147.897C147.858 335.863 147.671 335.92 146.859 336.609C146.437 336.963 145.721 336.107 145.721 336.107C145.622 336.196 145.542 336.304 145.485 336.425Z" fill="#466AA5"/>
<path d="M145.724 339.566H146.746C147.087 339.512 147.341 339.411 147.691 339.368C148.223 339.298 148.464 339.522 148.518 339.566L148.527 339.577H152.863C152.973 339.422 152.863 339.06 152.764 338.794C152.633 338.676 152.596 339.303 152.523 339.402C152.45 339.501 148.986 339.439 148.785 339.293C148.584 339.148 147.985 338.893 147.149 339.092C146.421 339.267 145.347 338.82 145.082 338.701C144.981 338.999 144.896 339.211 144.896 339.211C144.896 339.211 144.847 339.456 145.724 339.566Z" fill="#466AA5"/>
<path d="M140.278 339.566H141.299C141.641 339.512 141.892 339.411 142.243 339.368C142.776 339.298 143.016 339.523 143.07 339.566L143.079 339.577H147.416C147.524 339.422 147.416 339.06 147.317 338.794C147.283 338.704 147.228 338.625 147.158 338.56C147.087 338.496 147.003 338.448 146.911 338.422C146.447 338.288 145.545 338.17 144.715 337.416C144.252 336.994 142.46 335.869 142.46 335.869H142.45C142.412 335.869 142.225 335.926 141.41 336.615C140.99 336.969 140.273 336.113 140.273 336.113C140.175 336.203 140.095 336.311 140.038 336.432C139.937 336.639 139.905 336.872 139.946 337.099C140.011 337.491 139.802 338.218 139.637 338.708C139.536 339.007 139.45 339.219 139.45 339.219C139.45 339.219 139.4 339.456 140.278 339.566Z" fill="#233862"/>
<path d="M140.038 336.425C140.283 336.596 140.797 336.935 141.139 336.98C141.602 337.041 142.46 335.863 142.46 335.863H142.45C142.412 335.863 142.225 335.92 141.41 336.609C140.99 336.963 140.273 336.107 140.273 336.107C140.175 336.197 140.095 336.305 140.038 336.425Z" fill="#466AA5"/>
<path d="M140.278 339.566H141.299C141.641 339.512 141.893 339.411 142.243 339.368C142.776 339.298 143.016 339.522 143.07 339.566L143.079 339.577H147.416C147.524 339.422 147.416 339.06 147.317 338.794C147.186 338.676 147.149 339.303 147.076 339.402C147.004 339.501 143.54 339.439 143.339 339.293C143.138 339.148 142.538 338.893 141.702 339.092C140.973 339.267 139.901 338.82 139.635 338.701C139.535 338.999 139.448 339.211 139.448 339.211C139.448 339.211 139.4 339.456 140.278 339.566Z" fill="#466AA5"/>
<path opacity="0.4" d="M138.153 295.749C139.235 295.387 140.626 294.424 142.293 292.265C146.709 286.548 142.668 279.83 142.126 279.705C141.583 279.579 140.565 284.052 140.565 284.052C139.859 288.676 138.258 293.641 138.153 295.749Z" fill="#D86713"/>
<path d="M140.626 269.775C140.626 269.775 145.069 272.807 145.403 279.233C145.737 285.658 139.96 286.971 139.96 286.971L140.335 284.939C140.335 284.939 145.014 283.236 143.793 278.129C142.572 273.022 138.906 270.22 138.906 270.22L140.626 269.775Z" fill="#466AA5"/>
<path d="M161.746 279.606C161.746 279.606 161.33 278.744 160.567 279.09C159.803 279.437 160.136 280.746 160.581 281.205C160.791 281.408 160.982 281.632 161.149 281.873L161.746 279.606Z" fill="#D9935C"/>
</svg>
