<svg width="31" height="31" viewBox="0 0 31 31" fill="none" xmlns="http://www.w3.org/2000/svg">
<path d="M25.5884 28.9071C26.0339 28.4616 26.2071 27.8182 26.0834 27.1995L22.5938 12.1027L29.3997 5.29682C30.4268 4.26975 30.4268 2.61158 29.3997 1.58451C28.3726 0.557435 26.7145 0.557435 25.6874 1.58451L18.8815 8.39041L3.78475 4.90084C3.17841 4.76472 2.52256 4.95034 2.07709 5.39581C1.21088 6.26202 1.42125 7.73457 2.52257 8.31616L13.313 13.9589L6.50711 20.7648L2.60919 20.2079C2.33695 20.1584 2.06471 20.2574 1.86672 20.4554L1.13663 21.1855C0.728281 21.5939 0.827277 22.2868 1.33463 22.5714L5.88839 25.0958L8.41277 29.6496C8.69737 30.1569 9.39034 30.2559 9.79869 29.8476L10.5288 29.1175C10.7268 28.9195 10.8258 28.6473 10.7763 28.375L10.2194 24.4771L17.0253 17.6712L22.668 28.4616C23.2496 29.563 24.7222 29.7733 25.5884 28.9071Z" fill="#E0115F"/>
</svg>
