<svg width="35" height="35" viewBox="0 0 35 35" fill="none" xmlns="http://www.w3.org/2000/svg">
<path d="M32.9545 6.21139H26.8984V1.55285C26.8984 0.698781 26.1996 0 25.3455 0C24.4915 0 23.7927 0.698781 23.7927 1.55285V6.21139H17.7366C16.8204 6.21139 16.1061 7.00334 16.1838 7.91952L16.3701 9.79846C22.0846 11.1184 26.8984 15.1713 26.8984 21.7399L26.9295 34.1626H29.5693C30.8737 34.1626 31.9451 33.1533 32.1004 31.88L34.4918 7.91952C34.585 7.00334 33.8707 6.21139 32.9545 6.21139ZM22.2399 31.0569H2.05285C1.19878 31.0569 0.5 31.7557 0.5 32.6098C0.5 33.4639 1.19878 34.1626 2.05285 34.1626H22.2399C23.0939 34.1626 23.7927 33.4639 23.7927 32.6098C23.7927 31.7557 23.0939 31.0569 22.2399 31.0569ZM2.20813 21.7399H22.0846C23.0473 21.7399 23.8082 20.8703 23.6219 19.9386C22.6125 14.9229 17.3794 12.4072 12.1464 12.4072C6.91326 12.4072 1.69569 14.9229 0.670813 19.9386C0.484472 20.8703 1.26089 21.7399 2.20813 21.7399ZM22.2399 24.8456H2.05285C1.19878 24.8456 0.5 25.5443 0.5 26.3984C0.5 27.2525 1.19878 27.9512 2.05285 27.9512H22.2399C23.0939 27.9512 23.7927 27.2525 23.7927 26.3984C23.7927 25.5443 23.0939 24.8456 22.2399 24.8456Z" fill="#E0115F"/>
</svg>
