<svg width="344" height="340" viewBox="0 0 344 340" fill="none" xmlns="http://www.w3.org/2000/svg">
<path d="M17.5002 206H326.5C335.942 206 343.667 213.725 343.667 223.167C343.667 232.608 335.942 240.333 326.5 240.333H17.5002C8.0585 240.333 0.333496 232.608 0.333496 223.167C0.333496 213.725 8.0585 206 17.5002 206ZM203.587 47.895C205.303 43.775 206.333 39.14 206.333 34.3333C206.333 15.45 190.883 0 172 0C153.117 0 137.667 15.45 137.667 34.3333C137.667 39.14 138.697 43.775 140.413 47.895C73.2918 61.8 22.1352 118.965 17.5002 188.833H326.5C321.865 118.965 270.708 61.8 203.587 47.895Z" fill="#E0115F" fill-opacity="0.2"/>
<path d="M250.37 324.885H71.6304C67.4089 324.885 64 321.216 64 316.697V163.666H258V316.697C258 321.216 254.591 324.885 250.37 324.885Z" fill="#E0115F"/>
<path d="M221.188 121.312H180.102H141.908H100.812L64 163.666H141.908H180.102H258L221.188 121.312Z" fill="#B10747"/>
<path d="M221.188 121.312H100.812V100.328C100.812 96.9189 103.387 94.167 106.553 94.167H215.447C218.624 94.167 221.188 96.9302 221.188 100.328V121.312Z" fill="#E0115F"/>
<path d="M249.399 332.85L231.505 339.548L200.607 337.25L193.35 335.378L191.478 334.899L199.294 330.925L241.432 332.548L249.248 332.841L249.399 332.85Z" fill="#E06738"/>
<path d="M296.187 323.819L269.972 322.311L250.011 326.498L241.424 332.557L241.246 332.69L231.497 339.557L200.82 333.382L193.35 335.396L177.843 339.566L157.714 334.74L122.832 337.419L122.983 320.315L112 305.322H129.166C134.365 302.519 141.941 301.747 141.941 301.747L152.444 307.052L248.237 307.576L265.465 302.137L296.187 323.819Z" fill="#FDF0B9"/>
<path d="M251.111 286.231H147.485C146.562 291.891 147.485 307.992 147.485 307.992C147.485 317.041 170.684 324.369 199.302 324.369C227.921 324.369 251.12 317.032 251.12 307.992C251.83 295.164 251.111 286.231 251.111 286.231Z" fill="#EDB82C"/>
<path d="M249.825 283.596C254.74 283.339 258.758 288.52 257.099 291.669C255.44 294.819 249.319 297.187 247.297 297.782C242.701 299.139 246.028 306.218 237.343 304.125C232.854 303.042 231.541 306.076 229.048 308.516C226.564 310.956 219.928 309.252 213.71 306.564C207.491 303.876 202.097 311.444 196.091 310.716C190.085 309.989 184.692 307.052 180.753 308.516C176.814 309.98 174.534 308.516 169.761 303.876C164.988 299.237 160.224 305.588 155.869 303.876C151.513 302.164 153.172 298.021 148.408 295.821C143.635 293.621 138.871 292.814 138.871 290.081C138.871 283.907 148.328 282.363 148.328 282.363L249.825 283.596Z" fill="#E06738"/>
<path d="M251.111 276.543C251.111 295.528 227.913 299.662 199.294 299.662C170.675 299.662 147.476 295.528 147.476 276.543C147.476 257.559 170.675 242.167 199.294 242.167C227.913 242.167 251.111 257.559 251.111 276.543Z" fill="#EDB82C"/>
<path d="M173.505 252.973C174.392 252.973 175.111 252.612 175.111 252.166C175.111 251.72 174.392 251.358 173.505 251.358C172.618 251.358 171.899 251.72 171.899 252.166C171.899 252.612 172.618 252.973 173.505 252.973Z" fill="white"/>
<path d="M183.689 259.192C184.576 259.192 185.295 258.831 185.295 258.385C185.295 257.939 184.576 257.578 183.689 257.578C182.802 257.578 182.083 257.939 182.083 258.385C182.083 258.831 182.802 259.192 183.689 259.192Z" fill="white"/>
<path d="M190.378 252.973C191.265 252.973 191.984 252.612 191.984 252.166C191.984 251.72 191.265 251.358 190.378 251.358C189.491 251.358 188.772 251.72 188.772 252.166C188.772 252.612 189.491 252.973 190.378 252.973Z" fill="white"/>
<path d="M201.645 247.198C202.532 247.198 203.251 246.837 203.251 246.391C203.251 245.945 202.532 245.583 201.645 245.583C200.758 245.583 200.039 245.945 200.039 246.391C200.039 246.837 200.758 247.198 201.645 247.198Z" fill="white"/>
<path d="M210.41 255.36C211.296 255.36 212.015 254.998 212.015 254.552C212.015 254.107 211.296 253.745 210.41 253.745C209.523 253.745 208.804 254.107 208.804 254.552C208.804 254.998 209.523 255.36 210.41 255.36Z" fill="white"/>
<path d="M227.726 255.36C228.613 255.36 229.332 254.998 229.332 254.552C229.332 254.107 228.613 253.745 227.726 253.745C226.84 253.745 226.121 254.107 226.121 254.552C226.121 254.998 226.84 255.36 227.726 255.36Z" fill="white"/>
<path d="M166.035 266.581C166.922 266.581 167.641 266.22 167.641 265.774C167.641 265.328 166.922 264.967 166.035 264.967C165.148 264.967 164.429 265.328 164.429 265.774C164.429 266.22 165.148 266.581 166.035 266.581Z" fill="white"/>
<path d="M185.073 274.149C185.96 274.149 186.678 273.788 186.678 273.342C186.678 272.896 185.96 272.535 185.073 272.535C184.186 272.535 183.467 272.896 183.467 273.342C183.467 273.788 184.186 274.149 185.073 274.149Z" fill="white"/>
<path d="M200.03 263.459C200.917 263.459 201.636 263.098 201.636 262.652C201.636 262.206 200.917 261.845 200.03 261.845C199.143 261.845 198.424 262.206 198.424 262.652C198.424 263.098 199.143 263.459 200.03 263.459Z" fill="white"/>
<path d="M210.41 271.726C211.296 271.726 212.015 271.365 212.015 270.919C212.015 270.473 211.296 270.112 210.41 270.112C209.523 270.112 208.804 270.473 208.804 270.919C208.804 271.365 209.523 271.726 210.41 271.726Z" fill="white"/>
<path d="M226.405 268.48C227.291 268.48 228.01 268.118 228.01 267.673C228.01 267.227 227.291 266.865 226.405 266.865C225.518 266.865 224.799 267.227 224.799 267.673C224.799 268.118 225.518 268.48 226.405 268.48Z" fill="white"/>
<path d="M141.719 321.584L157.705 313.387L176.823 321.761C176.823 321.761 184.425 320.91 187.938 320.581C191.451 320.253 196.419 319.747 198.424 320.83C200.438 321.912 203.774 324.343 206.293 324.219C208.813 324.094 217.986 319.517 221.676 320.83C225.367 322.143 237.236 321.415 241.246 320.83L221.339 327.767H157.776L141.719 321.584Z" fill="#FDF0B9"/>
<path d="M296.187 323.82L271.87 333.321L249.399 332.851L249.249 332.842L241.433 332.549L250.02 326.499L269.981 322.312L296.187 323.82Z" fill="#E06738"/>
<path d="M241.903 316.91C241.717 316.91 241.539 316.795 241.477 316.599C241.406 316.369 241.53 316.12 241.761 316.04C241.868 316.005 252.256 312.669 260.32 312.98C260.568 312.989 260.755 313.193 260.746 313.441C260.737 313.69 260.515 313.858 260.284 313.867C252.371 313.557 242.134 316.848 242.027 316.883C241.992 316.91 241.947 316.91 241.903 316.91Z" fill="black"/>
<path d="M153.74 315.242C153.669 315.242 153.589 315.224 153.518 315.189C145.844 310.859 137.931 310.646 137.851 310.646C137.603 310.638 137.408 310.442 137.417 310.194C137.425 309.946 137.638 309.786 137.869 309.759C137.949 309.759 146.084 309.981 153.953 314.417C154.166 314.541 154.245 314.807 154.121 315.02C154.041 315.162 153.891 315.242 153.74 315.242Z" fill="black"/>
<path d="M133.691 323.182C133.655 323.182 133.628 323.182 133.593 323.173L122.894 320.734C122.655 320.68 122.504 320.441 122.557 320.201C122.61 319.962 122.85 319.811 123.089 319.864L133.788 322.304C134.028 322.357 134.179 322.597 134.125 322.836C134.072 323.04 133.886 323.182 133.691 323.182Z" fill="black"/>
<path d="M297.255 269.396L281.085 269.402L276.772 269.404L260.602 269.41L265.169 319.396C265.161 319.43 265.145 319.463 265.147 319.499C265.151 321.183 271.327 322.543 278.945 322.538C286.563 322.533 292.744 321.168 292.738 319.492C292.737 319.456 292.717 319.425 292.716 319.389L297.255 269.396Z" fill="#E06738"/>
<path d="M299.981 258.078L281.227 258.082L276.228 258.088L257.474 258.093L262.767 316.075C262.76 316.109 262.742 316.15 262.741 316.194C262.742 318.145 269.904 319.726 278.744 319.715C287.583 319.704 294.745 318.131 294.745 316.18C294.743 316.144 294.725 316.105 294.715 316.067L299.981 258.078Z" fill="#FDF0B9"/>
<path d="M288.778 277.163L288.372 277.103C287.525 276.983 286.926 276.204 287.047 275.349L288.931 261.703C289.051 260.856 289.829 260.257 290.685 260.378L291.091 260.438C291.939 260.558 292.538 261.337 292.417 262.193L290.532 275.838C290.405 276.683 289.626 277.282 288.778 277.163Z" fill="black"/>
<path d="M278.723 264.252C291.833 264.248 302.459 261.144 302.458 257.319C302.457 253.495 291.828 250.398 278.719 250.402C265.61 250.406 254.983 253.51 254.985 257.334C254.986 261.159 265.614 264.256 278.723 264.252Z" fill="#E06738"/>
<mask id="mask0_17_7323" style="mask-type:alpha" maskUnits="userSpaceOnUse" x="261" y="264" width="36" height="53">
<path d="M296.522 264.923L280.874 264.95L276.702 264.96L261.054 264.987L265.4 313.675C265.394 313.704 265.379 313.738 265.378 313.776C265.376 315.414 271.351 316.733 278.727 316.713C286.103 316.693 292.08 315.364 292.082 313.725C292.082 313.695 292.066 313.662 292.058 313.63L296.522 264.923Z" fill="#A03AB4"/>
</mask>
<g mask="url(#mask0_17_7323)">
<path d="M260.412 273.886C260.412 273.886 266.815 267.998 270.981 269.426C275.155 270.856 275.664 272.471 281.788 272.083C287.913 271.686 289.201 268.755 294.456 270.505C298.139 271.732 301.6 276.323 301.6 276.323L294.324 325.578L259.665 325.593L260.412 273.886Z" fill="#EDB82C"/>
</g>
<path d="M296.68 231.222C296.679 231.311 296.671 231.39 296.661 231.477L294.604 246.341L293.138 257.002C292.005 257.258 290.782 257.477 289.493 257.672L291.165 245.595L293.193 230.991C293.327 230.031 294.203 229.355 295.171 229.491C296.036 229.614 296.676 230.366 296.68 231.222Z" fill="black"/>
<path d="M146.205 210.233H150.145V207.935H139.8V210.233H143.688V221.78H146.205V210.233Z" fill="white"/>
<path d="M150.993 214.639C150.993 212.578 151.641 210.873 152.936 209.522C154.25 208.173 155.901 207.498 157.889 207.498C159.878 207.498 161.52 208.173 162.815 209.522C164.127 210.872 164.785 212.578 164.785 214.639C164.785 216.719 164.129 218.425 162.815 219.756C161.52 221.106 159.878 221.78 157.889 221.78C155.901 221.78 154.25 221.106 152.936 219.756C151.641 218.405 150.993 216.701 150.993 214.639ZM153.511 214.639C153.511 216.08 153.931 217.248 154.769 218.141C155.608 219.036 156.648 219.482 157.889 219.482C159.129 219.482 160.169 219.036 161.009 218.141C161.848 217.248 162.267 216.08 162.267 214.639C162.267 213.217 161.848 212.059 161.009 211.164C160.152 210.253 159.112 209.796 157.889 209.796C156.667 209.796 155.627 210.253 154.769 211.164C153.931 212.057 153.511 213.216 153.511 214.639Z" fill="white"/>
<path d="M178.712 221.342H176.304V219.482H176.194C175.811 220.138 175.223 220.686 174.43 221.124C173.637 221.562 172.811 221.78 171.953 221.78C170.311 221.78 169.048 221.311 168.163 220.371C167.279 219.432 166.836 218.096 166.836 216.362V207.935H169.354V216.198C169.408 218.388 170.513 219.482 172.665 219.482C173.668 219.482 174.507 219.077 175.183 218.264C175.858 217.452 176.196 216.481 176.196 215.35V207.935H178.714V221.342H178.712Z" fill="white"/>
<path d="M187.769 221.78C185.781 221.78 184.13 221.106 182.816 219.756C181.521 218.37 180.873 216.663 180.873 214.639C180.873 212.578 181.521 210.873 182.816 209.522C184.13 208.173 185.781 207.498 187.769 207.498C189.137 207.498 190.331 207.84 191.354 208.524C192.375 209.208 193.141 210.151 193.652 211.355L191.354 212.313C190.642 210.635 189.392 209.795 187.605 209.795C186.455 209.795 185.461 210.26 184.622 211.19C183.802 212.12 183.391 213.27 183.391 214.638C183.391 216.006 183.802 217.156 184.622 218.086C185.461 219.016 186.455 219.481 187.605 219.481C189.447 219.481 190.742 218.642 191.491 216.963L193.735 217.92C193.243 219.124 192.471 220.069 191.422 220.752C190.374 221.438 189.156 221.78 187.769 221.78Z" fill="white"/>
<path d="M195.923 207.502H198.542V213.05H204.381V207.502H207V221.391H204.381V215.532H198.542V221.391H195.923V207.502Z" fill="white"/>
<path d="M120.512 212.768C119.767 214.435 119.332 215.963 119.988 216.231C120.365 216.384 120.738 215.524 121.048 214.501C120.768 213.973 120.583 213.388 120.512 212.768Z" fill="white"/>
<path d="M122.606 220.19C122.713 219.692 121.807 218.853 121.773 219.625C121.756 220.008 122.448 220.923 122.606 220.19Z" fill="white"/>
<path d="M122.041 217.919C121.871 217.698 121.474 213.763 121.173 216.458C121.104 216.994 121.48 217.716 121.479 218.238C121.474 219.525 122.577 218.618 122.041 217.919Z" fill="white"/>
<path d="M122.308 220.809C122.219 222.566 123.062 224.162 123.948 225.649L125.41 227.111L125.564 226.957C125.313 226.569 125.047 226.185 124.897 225.87C124.088 224.162 123.45 222.331 122.308 220.809Z" fill="white"/>
<path d="M123.891 219.31C123.733 218.525 123.644 217.659 123.589 216.782C123.273 216.656 122.972 216.499 122.693 216.314C122.676 218.542 123.767 221.237 124.637 223.213C125.102 224.268 125.677 225.255 126.315 226.204L126.754 225.765C125.456 223.718 124.333 221.508 123.891 219.31Z" fill="white"/>
<path d="M119.98 216.838C119.738 217.158 120.057 220.5 120.624 220.224C120.746 220.052 120.81 219.861 120.816 219.65C120.8 219.731 120.814 219.62 120.818 219.61C120.844 218.984 120.353 216.345 119.98 216.838Z" fill="white"/>
<path d="M120.182 209.225C119.75 209.901 117.45 215.923 118.533 216.157C118.155 216.074 120.74 209.923 121.136 209.593C121.701 209.124 122.034 208.068 122.681 207.502C123.318 206.946 123.708 207.017 124.483 206.756C124.69 206.686 127.472 205.733 127.397 205.346C127.228 205.152 127.009 205.078 126.741 205.124C126.793 205.13 126.761 205.127 126.716 205.124C124.188 204.914 121.429 207.272 120.182 209.225Z" fill="white"/>
<path d="M130.941 213.728C131.078 213.4 130.419 212.662 130.335 212.559C130.333 212.556 130.33 212.554 130.329 212.551C130.306 212.866 130.255 213.173 130.176 213.469C130.456 213.867 130.738 214.211 130.941 213.728Z" fill="white"/>
<path d="M117.437 216.986C116.982 216.99 116.934 217.665 116.982 218.495C117.253 218.867 117.553 219.227 117.878 219.571C118.007 218.38 118.076 216.98 117.437 216.986Z" fill="white"/>
<path d="M125.617 217.126C125.549 217.128 125.48 217.131 125.41 217.131C125.198 217.131 124.988 217.116 124.783 217.09C124.84 217.504 124.905 217.904 124.975 218.284C125.416 220.693 126.386 222.859 127.639 224.881L128.077 224.444C127.496 223.508 127.008 222.531 126.663 221.505C126.178 220.063 125.825 218.599 125.617 217.126Z" fill="white"/>
<path d="M126.716 205.124C126.724 205.124 126.733 205.124 126.741 205.124C126.499 205.103 126.631 205.117 126.716 205.124Z" fill="white"/>
<path d="M120.817 219.61C120.817 219.625 120.815 219.639 120.814 219.65C120.817 219.615 120.817 219.606 120.817 219.61Z" fill="white"/>
<path d="M133.608 206.863C130.828 204.639 127.845 203.762 124.369 203.998C121.703 204.178 118.874 208.235 117.728 210.312C117.55 210.635 115.703 214.182 117.179 213.898C117.223 213.89 117.951 211.73 118.104 211.448C119.58 208.685 121.136 205.67 124.536 205.105C125.162 205.001 127.343 203.78 127.874 204.734C128.252 205.415 130.573 206.045 131.316 206.55C132.802 207.559 133.787 207.934 134.885 209.496C135.143 209.864 135.402 210.232 135.658 210.6C135.528 209.877 135.323 209.154 135.038 208.445C134.974 208.285 134.905 208.128 134.834 207.973C134.444 207.58 134.039 207.208 133.608 206.863Z" fill="white"/>
<path d="M130.531 215.031C131.185 216.623 131.995 218.145 132.895 219.616C133.106 219.396 133.306 219.171 133.494 218.938C132.827 217.723 132.275 216.465 131.646 215.152C131.099 214.013 130.132 214.058 130.531 215.031Z" fill="white"/>
<path d="M131.004 218.715C130.854 218.4 130.106 216.257 129.694 214.642C129.482 215.013 129.223 215.355 128.925 215.658C129.375 217.651 130.198 219.517 131.279 221.24L132.029 220.489C131.65 219.913 131.293 219.328 131.004 218.715Z" fill="white"/>
<path d="M134.441 213.056C134.698 213.775 135.061 214.448 135.47 215.1C135.605 214.598 135.702 214.086 135.76 213.568C134.172 211.26 133.363 208.879 130.892 207.096C128.928 205.681 126.052 206.141 124.029 207.464C124.469 207.335 124.931 207.265 125.412 207.265C125.901 207.265 126.373 207.338 126.818 207.471C130.143 206.746 133.339 209.966 134.441 213.056Z" fill="white"/>
<path d="M128.015 207.683C127.838 207.685 127.661 207.699 127.484 207.723C128.674 208.275 129.607 209.288 130.054 210.533C130.616 211.152 131.143 211.786 131.584 212.586C132.175 213.657 133.436 215.227 133.707 216.386C133.828 216.904 134.061 217.331 134.335 217.749C134.57 217.359 134.78 216.96 134.959 216.549C133.784 214.582 132.904 213.057 132.573 212.496C131.613 210.873 130.229 207.667 128.015 207.683Z" fill="white"/>
<path d="M128.096 202.283C123.863 201.776 119.847 203.835 117.313 207.753C116.506 208.997 115.633 210.522 115.005 212.106C114.985 212.733 115.022 213.357 115.115 213.97C115.931 211.746 117.195 209.25 118.559 207.44C121.276 203.829 125.83 202.334 129.882 203.758C131.088 204.181 132.166 204.729 133.148 205.373C131.811 203.862 130.068 202.789 128.096 202.283Z" fill="white"/>
<path d="M120.834 221.342C120.641 221.385 120.72 221.906 120.901 222.602L121.912 223.613C121.523 222.565 121.075 221.29 120.834 221.342Z" fill="white"/>
<path d="M118.741 218.016C118.399 218.064 118.485 219.193 118.664 220.362L119.582 221.28C119.463 219.897 119.268 217.943 118.741 218.016Z" fill="white"/>
<path d="M127.696 220.667C127.303 221.562 127.8 222.737 128.603 223.916L129.273 223.245C128.748 222.371 128.243 221.483 127.696 220.667Z" fill="white"/>
<path d="M118.383 216.727C118.328 217.424 119.208 217.362 118.952 216.879C118.905 216.789 118.147 215.994 118.383 216.727Z" fill="white"/>
<path d="M129.831 221.173C129.199 220.144 129.091 218.93 128.493 217.919C128.325 218.197 128.474 219.181 128.139 219.264C127.838 219.338 126.917 217.75 127.5 217.434C128.162 217.074 128.292 217.007 128.098 216.333C127.762 216.551 127.399 216.729 127.015 216.862C126.981 218.287 127.041 219.253 128.263 220.489C128.891 221.126 129.47 221.799 130.028 222.491L130.44 222.079C130.223 221.778 130.016 221.474 129.831 221.173Z" fill="white"/>
<path d="M123.216 202.167C119.875 202.855 117.124 205.133 115.793 208.424C117.542 205.516 120 203.223 123.216 202.167Z" fill="white"/>
<path d="M115.716 214.984C115.611 215.063 115.554 215.328 115.524 215.67C115.724 216.267 115.978 216.846 116.288 217.404C116.419 216.121 116.58 214.956 116.539 214.625C116.419 213.615 115.818 214.907 115.716 214.984Z" fill="white"/>
</svg>
