<svg width="43" height="40" viewBox="0 0 43 40" fill="none" xmlns="http://www.w3.org/2000/svg">
<path d="M24.9829 2.25524e-06C25.4075 -0.000994978 25.7431 0.32884 25.7441 0.768619L25.7451 1.51824C28.4998 1.73414 30.3194 3.61119 30.3224 6.48975L30.3332 14.9155C30.3372 18.054 28.3655 19.985 25.2051 19.99L17.4851 20C14.3445 20.004 12.3481 18.027 12.3441 14.8795L12.3333 6.55272C12.3293 3.65517 14.0848 1.78311 16.8394 1.53024L16.8384 0.780613C16.8375 0.340834 17.1633 0.00999951 17.5977 0.00999951C18.0321 0.00900001 18.3579 0.338835 18.3589 0.778614L18.3599 1.47826L24.2246 1.47027L24.2236 0.770618C24.2227 0.330839 24.5485 0.00100402 24.9829 2.25524e-06ZM25.3857 14.1919H25.3759C24.9217 14.2029 24.5574 14.5837 24.5672 15.0435C24.5682 15.5032 24.9345 15.882 25.3887 15.892C25.8518 15.891 26.2269 15.5102 26.226 15.0405C26.226 14.5707 25.8498 14.1919 25.3857 14.1919ZM17.2502 14.1929C16.796 14.2129 16.4405 14.5937 16.4415 15.0535C16.4623 15.5132 16.8375 15.873 17.2916 15.8521C17.7369 15.8321 18.0914 15.4513 18.0706 14.9915C18.0608 14.5417 17.6945 14.1919 17.2502 14.1929ZM21.3179 14.1879C20.8638 14.2089 20.5093 14.5887 20.5093 15.0485C20.5301 15.5082 20.9052 15.8671 21.3594 15.8471C21.8037 15.8261 22.1591 15.4463 22.1384 14.9855C22.1285 14.5367 21.7622 14.1869 21.3179 14.1879ZM17.2452 10.5947C16.791 10.6147 16.4366 10.9955 16.4376 11.4553C16.4573 11.915 16.8335 12.2749 17.2877 12.2539C17.732 12.2339 18.0864 11.8531 18.0657 11.3933C18.0558 10.9435 17.6905 10.5937 17.2452 10.5947ZM21.314 10.5597C20.8598 10.5797 20.5044 10.9605 20.5054 11.4203C20.5251 11.8801 20.9013 12.2389 21.3555 12.2189C21.7998 12.1979 22.1542 11.8181 22.1345 11.3583C22.1236 10.9085 21.7583 10.5587 21.314 10.5597ZM25.3818 10.5647C24.9276 10.5747 24.5722 10.9445 24.5732 11.4043V11.4153C24.583 11.8751 24.9582 12.2239 25.4134 12.2139C25.8577 12.2029 26.2121 11.8221 26.2023 11.3623C26.1815 10.9225 25.8251 10.5637 25.3818 10.5647ZM24.2266 3.0095L18.3619 3.01749L18.3629 3.82609C18.3629 4.25687 18.038 4.5967 17.6036 4.5967C17.1692 4.5977 16.8424 4.25887 16.8424 3.82809L16.8414 3.05847C14.9161 3.25137 13.8508 4.38281 13.8537 6.55072L13.8547 6.86157L28.8029 6.84158V6.49175C28.7604 4.34283 27.6823 3.21539 25.7471 3.04748L25.7481 3.81709C25.7481 4.24688 25.4134 4.58771 24.9888 4.58771C24.5544 4.58871 24.2276 4.24888 24.2276 3.81909L24.2266 3.0095Z" fill="black"/>
<path d="M8.21411 37H6.81372V33.1328H2.8645V37H1.45825V28.4336H2.8645V31.9375H6.81372V28.4336H8.21411V37ZM11.718 30.5137V37H10.3411V30.5137H11.718ZM11.0383 28.0293C11.2493 28.0293 11.4309 28.0859 11.5833 28.1992C11.7395 28.3125 11.8176 28.5078 11.8176 28.7852C11.8176 29.0586 11.7395 29.2539 11.5833 29.3711C11.4309 29.4844 11.2493 29.541 11.0383 29.541C10.8196 29.541 10.634 29.4844 10.4817 29.3711C10.3333 29.2539 10.259 29.0586 10.259 28.7852C10.259 28.5078 10.3333 28.3125 10.4817 28.1992C10.634 28.0859 10.8196 28.0293 11.0383 28.0293ZM18.052 35.1484C18.052 35.5742 17.9485 35.9336 17.7415 36.2266C17.5344 36.5195 17.2317 36.7422 16.8333 36.8945C16.4387 37.043 15.9543 37.1172 15.3801 37.1172C14.927 37.1172 14.5364 37.084 14.2083 37.0176C13.884 36.9551 13.5774 36.8574 13.2883 36.7246V35.5352C13.5969 35.6797 13.9426 35.8047 14.3254 35.9102C14.7122 36.0156 15.0774 36.0684 15.4211 36.0684C15.8743 36.0684 16.2004 35.998 16.3997 35.8574C16.5989 35.7129 16.6985 35.5215 16.6985 35.2832C16.6985 35.1426 16.6575 35.0176 16.5754 34.9082C16.4973 34.7949 16.3489 34.6797 16.1301 34.5625C15.9153 34.4414 15.5989 34.2969 15.1809 34.1289C14.7708 33.9648 14.425 33.8008 14.1438 33.6367C13.8625 33.4727 13.6497 33.2754 13.5051 33.0449C13.3606 32.8105 13.2883 32.5117 13.2883 32.1484C13.2883 31.5742 13.5149 31.1387 13.968 30.8418C14.425 30.541 15.0286 30.3906 15.7786 30.3906C16.177 30.3906 16.552 30.4316 16.9036 30.5137C17.259 30.5918 17.6067 30.707 17.9465 30.8594L17.5129 31.8965C17.22 31.7676 16.925 31.6621 16.6282 31.5801C16.3352 31.4941 16.0364 31.4512 15.7317 31.4512C15.3762 31.4512 15.1047 31.5059 14.9172 31.6152C14.7336 31.7246 14.6418 31.8809 14.6418 32.084C14.6418 32.2363 14.6868 32.3652 14.7766 32.4707C14.8665 32.5762 15.0208 32.6816 15.2395 32.7871C15.4622 32.8926 15.7708 33.0234 16.1653 33.1797C16.552 33.3281 16.886 33.4844 17.1672 33.6484C17.4524 33.8086 17.6711 34.0059 17.8235 34.2402C17.9758 34.4746 18.052 34.7773 18.052 35.1484ZM21.9543 36.0039C22.134 36.0039 22.3118 35.9883 22.4875 35.957C22.6633 35.9219 22.8235 35.8809 22.968 35.834V36.877C22.8157 36.9434 22.6184 37 22.3762 37.0469C22.134 37.0938 21.8821 37.1172 21.6204 37.1172C21.2532 37.1172 20.9231 37.0566 20.6301 36.9355C20.3372 36.8105 20.1047 36.5977 19.9329 36.2969C19.761 35.9961 19.675 35.5801 19.675 35.0488V31.5625H18.7903V30.9473L19.7395 30.4609L20.1907 29.0723H21.0579V30.5137H22.9153V31.5625H21.0579V35.0312C21.0579 35.3594 21.1399 35.6035 21.304 35.7637C21.468 35.9238 21.6848 36.0039 21.9543 36.0039ZM30.0286 33.7422C30.0286 34.2812 29.9583 34.7598 29.8176 35.1777C29.677 35.5957 29.4719 35.9492 29.2024 36.2383C28.9329 36.5234 28.6086 36.7422 28.2297 36.8945C27.8508 37.043 27.4231 37.1172 26.9465 37.1172C26.5012 37.1172 26.093 37.043 25.7219 36.8945C25.3508 36.7422 25.0286 36.5234 24.7551 36.2383C24.4856 35.9492 24.2766 35.5957 24.1282 35.1777C23.9797 34.7598 23.9055 34.2812 23.9055 33.7422C23.9055 33.0273 24.0286 32.4219 24.2747 31.9258C24.5247 31.4258 24.8801 31.0449 25.3411 30.7832C25.802 30.5215 26.3508 30.3906 26.9875 30.3906C27.5852 30.3906 28.1125 30.5215 28.5696 30.7832C29.0266 31.0449 29.384 31.4258 29.6418 31.9258C29.8997 32.4258 30.0286 33.0312 30.0286 33.7422ZM25.3235 33.7422C25.3235 34.2148 25.3801 34.6191 25.4934 34.9551C25.6106 35.291 25.7903 35.5488 26.0325 35.7285C26.2747 35.9043 26.5872 35.9922 26.97 35.9922C27.3528 35.9922 27.6653 35.9043 27.9075 35.7285C28.1497 35.5488 28.3274 35.291 28.4407 34.9551C28.554 34.6191 28.6106 34.2148 28.6106 33.7422C28.6106 33.2695 28.554 32.8691 28.4407 32.541C28.3274 32.209 28.1497 31.957 27.9075 31.7852C27.6653 31.6094 27.3508 31.5215 26.9641 31.5215C26.3938 31.5215 25.9778 31.7129 25.7161 32.0957C25.4543 32.4785 25.3235 33.0273 25.3235 33.7422ZM34.8977 30.3906C35.0071 30.3906 35.1262 30.3965 35.2551 30.4082C35.384 30.4199 35.4954 30.4355 35.5891 30.4551L35.4602 31.7441C35.3782 31.7207 35.2766 31.7031 35.1555 31.6914C35.0383 31.6797 34.9329 31.6738 34.8391 31.6738C34.593 31.6738 34.3586 31.7148 34.136 31.7969C33.9133 31.875 33.7161 31.9961 33.5442 32.1602C33.3723 32.3203 33.2375 32.5215 33.1399 32.7637C33.0422 33.0059 32.9934 33.2871 32.9934 33.6074V37H31.6106V30.5137H32.6887L32.8762 31.6562H32.9407C33.0696 31.4258 33.2297 31.2148 33.4211 31.0234C33.6125 30.832 33.8313 30.6797 34.0774 30.5664C34.3274 30.4492 34.6008 30.3906 34.8977 30.3906ZM35.8118 30.5137H37.3118L38.6418 34.2168C38.7004 34.3848 38.7532 34.5508 38.8 34.7148C38.8508 34.875 38.8938 35.0332 38.929 35.1895C38.968 35.3457 38.9993 35.502 39.0227 35.6582H39.0579C39.0969 35.4551 39.1516 35.2285 39.2219 34.9785C39.2961 34.7246 39.3782 34.4707 39.468 34.2168L40.7454 30.5137H42.2278L39.4446 37.8906C39.2844 38.3125 39.0872 38.6719 38.8528 38.9688C38.6223 39.2695 38.3489 39.4961 38.0325 39.6484C37.7161 39.8047 37.3547 39.8828 36.9485 39.8828C36.7532 39.8828 36.5833 39.8711 36.4387 39.8477C36.2942 39.8281 36.1711 39.8066 36.0696 39.7832V38.6816C36.1516 38.7012 36.2551 38.7188 36.3801 38.7344C36.5051 38.75 36.634 38.7578 36.7668 38.7578C37.0129 38.7578 37.2258 38.709 37.4055 38.6113C37.5852 38.5137 37.7375 38.375 37.8625 38.1953C37.9875 38.0195 38.0911 37.8184 38.1731 37.5918L38.4016 36.9824L35.8118 30.5137Z" fill="black"/>
</svg>
