<svg width="35" height="40" viewBox="0 0 35 40" fill="none" xmlns="http://www.w3.org/2000/svg">
<path d="M14.6437 18.7821V15.7152C14.6437 14.9381 15.2757 14.3067 16.0584 14.3018H18.9326C19.7189 14.3018 20.3562 14.9346 20.3562 15.7152V18.7732C20.3562 19.4472 20.904 19.9951 21.5829 20H23.5438C24.4596 20.0023 25.3387 19.6428 25.9871 19.0007C26.6356 18.3586 27 17.4867 27 16.5775V7.86583C27 7.13138 26.672 6.4347 26.1046 5.96349L19.443 0.674267C18.2785 -0.250877 16.6154 -0.220991 15.4854 0.745383L8.96701 5.96349C8.37274 6.42081 8.01755 7.11955 8 7.86583V16.5686C8 18.4637 9.54738 20 11.4562 20H13.3723C13.6992 20.0023 14.0135 19.875 14.2455 19.6464C14.4774 19.4177 14.6079 19.1066 14.6079 18.7821H14.6437Z" fill="#E0115F"/>
<path d="M7.88086 37H6.48047V33.1328H2.53125V37H1.125V28.4336H2.53125V31.9375H6.48047V28.4336H7.88086V37ZM15.75 33.7422C15.75 34.2812 15.6797 34.7598 15.5391 35.1777C15.3984 35.5957 15.1934 35.9492 14.9238 36.2383C14.6543 36.5234 14.3301 36.7422 13.9512 36.8945C13.5723 37.043 13.1445 37.1172 12.668 37.1172C12.2227 37.1172 11.8145 37.043 11.4434 36.8945C11.0723 36.7422 10.75 36.5234 10.4766 36.2383C10.207 35.9492 9.99805 35.5957 9.84961 35.1777C9.70117 34.7598 9.62695 34.2812 9.62695 33.7422C9.62695 33.0273 9.75 32.4219 9.99609 31.9258C10.2461 31.4258 10.6016 31.0449 11.0625 30.7832C11.5234 30.5215 12.0723 30.3906 12.709 30.3906C13.3066 30.3906 13.834 30.5215 14.291 30.7832C14.748 31.0449 15.1055 31.4258 15.3633 31.9258C15.6211 32.4258 15.75 33.0312 15.75 33.7422ZM11.0449 33.7422C11.0449 34.2148 11.1016 34.6191 11.2148 34.9551C11.332 35.291 11.5117 35.5488 11.7539 35.7285C11.9961 35.9043 12.3086 35.9922 12.6914 35.9922C13.0742 35.9922 13.3867 35.9043 13.6289 35.7285C13.8711 35.5488 14.0488 35.291 14.1621 34.9551C14.2754 34.6191 14.332 34.2148 14.332 33.7422C14.332 33.2695 14.2754 32.8691 14.1621 32.541C14.0488 32.209 13.8711 31.957 13.6289 31.7852C13.3867 31.6094 13.0723 31.5215 12.6855 31.5215C12.1152 31.5215 11.6992 31.7129 11.4375 32.0957C11.1758 32.4785 11.0449 33.0273 11.0449 33.7422ZM24.6621 30.3906C25.3887 30.3906 25.9355 30.5781 26.3027 30.9531C26.6738 31.3281 26.8594 31.9297 26.8594 32.7578V37H25.4824V33.0039C25.4824 32.5117 25.3867 32.1406 25.1953 31.8906C25.0039 31.6406 24.7129 31.5156 24.3223 31.5156C23.7754 31.5156 23.3809 31.6914 23.1387 32.043C22.9004 32.3906 22.7812 32.8965 22.7812 33.5605V37H21.4043V33.0039C21.4043 32.6758 21.3613 32.4023 21.2754 32.1836C21.1934 31.9609 21.0664 31.7949 20.8945 31.6855C20.7227 31.5723 20.5059 31.5156 20.2441 31.5156C19.8652 31.5156 19.5625 31.6016 19.3359 31.7734C19.1133 31.9453 18.9531 32.1992 18.8555 32.5352C18.7578 32.8672 18.709 33.2754 18.709 33.7598V37H17.332V30.5137H18.4043L18.5977 31.3867H18.6738C18.8066 31.1602 18.9707 30.9746 19.166 30.8301C19.3652 30.6816 19.5859 30.5723 19.8281 30.502C20.0703 30.4277 20.3223 30.3906 20.584 30.3906C21.0684 30.3906 21.4766 30.4766 21.8086 30.6484C22.1406 30.8164 22.3887 31.0742 22.5527 31.4219H22.6582C22.8613 31.0703 23.1445 30.8105 23.5078 30.6426C23.8711 30.4746 24.2559 30.3906 24.6621 30.3906ZM31.3652 30.3906C31.9434 30.3906 32.4395 30.5098 32.8535 30.748C33.2676 30.9863 33.5859 31.3242 33.8086 31.7617C34.0312 32.1992 34.1426 32.7227 34.1426 33.332V34.0703H29.8125C29.8281 34.6992 29.9961 35.1836 30.3164 35.5234C30.6406 35.8633 31.0938 36.0332 31.6758 36.0332C32.0898 36.0332 32.4609 35.9941 32.7891 35.916C33.1211 35.834 33.4629 35.7148 33.8145 35.5586V36.6777C33.4902 36.8301 33.1602 36.9414 32.8242 37.0117C32.4883 37.082 32.0859 37.1172 31.6172 37.1172C30.9805 37.1172 30.4199 36.9941 29.9355 36.748C29.4551 36.498 29.0781 36.127 28.8047 35.6348C28.5352 35.1426 28.4004 34.5312 28.4004 33.8008C28.4004 33.0742 28.5234 32.457 28.7695 31.9492C29.0156 31.4414 29.3613 31.0547 29.8066 30.7891C30.252 30.5234 30.7715 30.3906 31.3652 30.3906ZM31.3652 31.4277C30.9316 31.4277 30.5801 31.5684 30.3105 31.8496C30.0449 32.1309 29.8887 32.543 29.8418 33.0859H32.7949C32.791 32.7617 32.7363 32.4746 32.6309 32.2246C32.5293 31.9746 32.373 31.7793 32.1621 31.6387C31.9551 31.498 31.6895 31.4277 31.3652 31.4277Z" fill="#E0115F"/>
</svg>
