<svg width="14" height="16" viewBox="0 0 14 16" fill="none" xmlns="http://www.w3.org/2000/svg">
<path d="M12.2818 7.83758L6.67089 13.4485C5.5625 14.5569 3.76468 14.7319 2.55553 13.7349C1.16606 12.5893 1.09712 10.537 2.33809 9.29599L8.89297 2.74111C9.5877 2.04638 10.7173 1.91379 11.4757 2.53428C12.3507 3.25023 12.3985 4.53893 11.6189 5.31851L6.0504 10.887C5.75872 11.1787 5.28142 11.1787 4.98974 10.887C4.69806 10.5953 4.69806 10.118 4.98974 9.82632L9.63013 5.18593C9.84757 4.9685 9.84757 4.60787 9.63013 4.39044C9.4127 4.173 9.05207 4.173 8.83464 4.39044L4.26849 8.95658C3.57376 9.65131 3.44118 10.7809 4.06166 11.5393C4.77761 12.4143 6.06631 12.4621 6.8459 11.6825L12.3242 6.20416C13.4326 5.09577 13.6076 3.29796 12.6106 2.0888C11.4704 0.704642 9.41269 0.630396 8.17172 1.87137L1.66457 8.37852C0.142524 9.90057 -0.106731 12.3772 1.26682 14.0371C2.85251 15.941 5.66856 16.0418 7.37623 14.3341L13.0773 8.63308C13.2947 8.41564 13.2947 8.05502 13.0773 7.83758C12.8598 7.62015 12.4992 7.62015 12.2818 7.83758Z" fill="black"/>
</svg>
