<svg width="34" height="40" viewBox="0 0 34 40" fill="none" xmlns="http://www.w3.org/2000/svg">
<path d="M17.1867 0C22.8667 0 27.1667 4.65699 27.1667 9.98498C27.1667 16.1642 22.1267 20 17.1667 20C15.5267 20 13.7067 19.5593 12.2467 18.698C11.7367 18.3876 11.3067 18.1572 10.7567 18.3375L8.73675 18.9384C8.22675 19.0986 7.76675 18.698 7.91675 18.1572L8.58675 15.9139C8.69675 15.6034 8.67675 15.2729 8.51675 15.0125C7.65675 13.4301 7.16675 11.6975 7.16675 10.015C7.16675 4.74712 11.3767 0 17.1867 0ZM21.7567 8.74311C21.0467 8.74311 20.4767 9.31397 20.4767 10.025C20.4767 10.7261 21.0467 11.307 21.7567 11.307C22.4667 11.307 23.0367 10.7261 23.0367 10.025C23.0367 9.31397 22.4667 8.74311 21.7567 8.74311ZM17.1467 8.74311C16.4467 8.7331 15.8667 9.31397 15.8667 10.015C15.8667 10.7261 16.4367 11.2969 17.1467 11.307C17.8567 11.307 18.4267 10.7261 18.4267 10.025C18.4267 9.31397 17.8567 8.74311 17.1467 8.74311ZM12.5367 8.74311C11.8267 8.74311 11.2567 9.31397 11.2567 10.025C11.2567 10.7261 11.8367 11.307 12.5367 11.307C13.2467 11.2969 13.8167 10.7261 13.8167 10.025C13.8167 9.31397 13.2467 8.74311 12.5367 8.74311Z" fill="black"/>
<path d="M1.79175 37V28.4336H3.198V37H1.79175ZM8.69995 30.3906C9.43042 30.3906 9.99878 30.5801 10.405 30.959C10.8152 31.334 11.0203 31.9375 11.0203 32.7695V37H9.64331V33.0273C9.64331 32.5234 9.53979 32.1465 9.33276 31.8965C9.12573 31.6426 8.80542 31.5156 8.37183 31.5156C7.74292 31.5156 7.30542 31.709 7.05933 32.0957C6.81714 32.4824 6.69604 33.043 6.69604 33.7773V37H5.31909V30.5137H6.39136L6.58472 31.3926H6.66089C6.80151 31.166 6.97534 30.9805 7.18237 30.8359C7.39331 30.6875 7.62769 30.5762 7.8855 30.502C8.14722 30.4277 8.4187 30.3906 8.69995 30.3906ZM14.325 27.8828V30.0801C14.325 30.334 14.3171 30.584 14.3015 30.8301C14.2898 31.0723 14.2781 31.2617 14.2664 31.3984H14.325C14.5007 31.1172 14.7449 30.8809 15.0574 30.6895C15.3738 30.4941 15.7781 30.3965 16.2703 30.3965C17.0398 30.3965 17.6589 30.6797 18.1277 31.2461C18.5964 31.8086 18.8308 32.6426 18.8308 33.748C18.8308 34.4824 18.7234 35.0996 18.5085 35.5996C18.2937 36.0996 17.991 36.4785 17.6003 36.7363C17.2136 36.9902 16.7585 37.1172 16.2351 37.1172C15.7429 37.1172 15.3445 37.0273 15.0398 36.8477C14.739 36.6641 14.5027 36.4512 14.3308 36.209H14.2312L13.9792 37H12.948V27.8828H14.325ZM15.907 31.5156C15.5164 31.5156 15.2058 31.5938 14.9753 31.75C14.7488 31.9062 14.5847 32.1406 14.4832 32.4531C14.3816 32.7617 14.3289 33.1543 14.325 33.6309V33.7539C14.325 34.4766 14.4382 35.0293 14.6648 35.4121C14.8953 35.7949 15.3132 35.9863 15.9187 35.9863C16.3992 35.9863 16.7683 35.793 17.0261 35.4062C17.2839 35.0156 17.4128 34.457 17.4128 33.7305C17.4128 32.9961 17.2839 32.4434 17.0261 32.0723C16.7722 31.7012 16.3992 31.5156 15.907 31.5156ZM26.1667 33.7422C26.1667 34.2812 26.0964 34.7598 25.9558 35.1777C25.8152 35.5957 25.6101 35.9492 25.3406 36.2383C25.071 36.5234 24.7468 36.7422 24.3679 36.8945C23.989 37.043 23.5613 37.1172 23.0847 37.1172C22.6394 37.1172 22.2312 37.043 21.8601 36.8945C21.489 36.7422 21.1667 36.5234 20.8933 36.2383C20.6238 35.9492 20.4148 35.5957 20.2664 35.1777C20.1179 34.7598 20.0437 34.2812 20.0437 33.7422C20.0437 33.0273 20.1667 32.4219 20.4128 31.9258C20.6628 31.4258 21.0183 31.0449 21.4792 30.7832C21.9402 30.5215 22.489 30.3906 23.1257 30.3906C23.7234 30.3906 24.2507 30.5215 24.7078 30.7832C25.1648 31.0449 25.5222 31.4258 25.78 31.9258C26.0378 32.4258 26.1667 33.0312 26.1667 33.7422ZM21.4617 33.7422C21.4617 34.2148 21.5183 34.6191 21.6316 34.9551C21.7488 35.291 21.9285 35.5488 22.1707 35.7285C22.4128 35.9043 22.7253 35.9922 23.1082 35.9922C23.491 35.9922 23.8035 35.9043 24.0457 35.7285C24.2878 35.5488 24.4656 35.291 24.5789 34.9551C24.6921 34.6191 24.7488 34.2148 24.7488 33.7422C24.7488 33.2695 24.6921 32.8691 24.5789 32.541C24.4656 32.209 24.2878 31.957 24.0457 31.7852C23.8035 31.6094 23.489 31.5215 23.1023 31.5215C22.532 31.5215 22.116 31.7129 21.8542 32.0957C21.5925 32.4785 21.4617 33.0273 21.4617 33.7422ZM29.1843 33.6836L27.0164 30.5137H28.5867L30.0691 32.793L31.5574 30.5137H33.1218L30.9421 33.6836L33.2332 37H31.657L30.0691 34.5684L28.4753 37H26.9109L29.1843 33.6836Z" fill="black"/>
</svg>
