<svg width="32" height="34" viewBox="0 0 32 34" fill="none" xmlns="http://www.w3.org/2000/svg">
<path d="M28.56 30.8267C26.6719 30.8267 24.7837 30.2713 23.0543 29.2717C22.5307 28.9703 21.896 28.9703 21.3565 29.2717C17.9135 31.2709 13.804 31.2709 10.3609 29.2717C9.83733 28.9703 9.20267 28.9703 8.6632 29.2717C6.9496 30.2713 5.06147 30.8267 3.17333 30.8267H1.58667C0.714 30.8267 0 31.5407 0 32.4133C0 33.286 0.714 34 1.58667 34H3.17333C5.36293 34 7.5208 33.4447 9.52 32.4292C13.5184 34.476 18.2149 34.476 22.2133 32.4292C24.2125 33.4605 26.3704 34 28.56 34H30.1467C31.0193 34 31.7333 33.286 31.7333 32.4133C31.7333 31.5407 31.0193 30.8267 30.1467 30.8267H28.56ZM3.094 28.56H3.17333C5.1884 28.56 7.01307 27.6873 8.45693 26.4497C9.07573 25.9103 9.96427 25.9103 10.5831 26.4497C12.0269 27.6873 13.8516 28.56 15.8667 28.56C17.8817 28.56 19.7064 27.6873 21.1503 26.4497C21.7691 25.9103 22.6576 25.9103 23.2764 26.4497C24.7203 27.6873 26.5449 28.56 28.56 28.56H28.6393L31.654 17.9611C31.8285 17.374 31.7175 16.2792 30.6068 15.9301L28.56 15.2637V7.93333C28.56 6.188 27.132 4.76 25.3867 4.76H20.6267V1.58667C20.6267 0.714 19.9127 0 19.04 0H12.6933C11.8207 0 11.1067 0.714 11.1067 1.58667V4.76H6.34667C4.60133 4.76 3.17333 6.188 3.17333 7.93333V15.2637L1.12653 15.9301C0.126933 16.2316 -0.158667 17.2629 0.0793333 17.9611L3.094 28.56ZM6.34667 7.93333H25.3867V14.2324L16.8504 11.424C16.1999 11.2177 15.5176 11.2177 14.8671 11.424L6.34667 14.2324V7.93333Z" fill="#E0115F"/>
</svg>
