<svg width="89" height="24" viewBox="0 0 89 24" fill="none" xmlns="http://www.w3.org/2000/svg">
<path d="M30.0257 7.76058H33.8169V5.54932H23.8627V7.76058H27.6045V18.8718H30.0257V7.76058Z" fill="white"/>
<path d="M34.6336 12.0007C34.6336 10.0172 35.2567 8.37698 36.5031 7.07712C37.7672 5.77864 39.3553 5.12939 41.2687 5.12939C43.1822 5.12939 44.762 5.77864 46.0084 7.07712C47.2711 8.37561 47.9039 10.0172 47.9039 12.0007C47.9039 14.0019 47.2725 15.6436 46.0084 16.9242C44.762 18.2227 43.1822 18.8719 41.2687 18.8719C39.3553 18.8719 37.7672 18.2227 36.5031 16.9242C35.2567 15.6243 34.6336 13.9841 34.6336 12.0007ZM37.0562 12.0007C37.0562 13.387 37.4598 14.5112 38.2669 15.3704C39.074 16.231 40.0746 16.6606 41.2687 16.6606C42.4615 16.6606 43.4622 16.231 44.2706 15.3704C45.0777 14.5112 45.4813 13.387 45.4813 12.0007C45.4813 10.6322 45.0777 9.51761 44.2706 8.65699C43.4457 7.7799 42.4451 7.34066 41.2687 7.34066C40.0924 7.34066 39.0918 7.7799 38.2669 8.65699C37.4598 9.51624 37.0562 10.6308 37.0562 12.0007Z" fill="white"/>
<path d="M61.3047 18.4504H58.9877V16.6606H58.882C58.5128 17.292 57.9473 17.819 57.1841 18.2404C56.4209 18.6618 55.6262 18.8718 54.8012 18.8718C53.2214 18.8718 52.0053 18.4202 51.1542 17.5157C50.3032 16.6125 49.8777 15.3264 49.8777 13.6587V5.54932H52.3004V13.5008C52.3525 15.6078 53.4149 16.6606 55.4862 16.6606C56.4511 16.6606 57.2582 16.2707 57.9088 15.4883C58.5581 14.7073 58.8834 13.7726 58.8834 12.6841V5.54932H61.306V18.4504H61.3047Z" fill="white"/>
<path d="M70.0193 18.8719C68.1059 18.8719 66.5178 18.2227 65.2536 16.9242C64.0073 15.59 63.3842 13.9484 63.3842 12.0007C63.3842 10.0172 64.0073 8.37698 65.2536 7.07712C66.5178 5.77864 68.1059 5.12939 70.0193 5.12939C71.3357 5.12939 72.4845 5.45882 73.4687 6.1163C74.4515 6.77515 75.1886 7.68244 75.6799 8.84092L73.4687 9.76194C72.7838 8.14775 71.5814 7.33929 69.8615 7.33929C68.7552 7.33929 67.7985 7.78676 66.9914 8.6817C66.2021 9.57664 65.8068 10.683 65.8068 11.9993C65.8068 13.3156 66.2021 14.4219 66.9914 15.3169C67.7985 16.2118 68.7552 16.6593 69.8615 16.6593C71.6335 16.6593 72.8798 15.8522 73.6005 14.2366L75.7596 15.1576C75.286 16.3161 74.5434 17.2248 73.5346 17.8823C72.5257 18.5425 71.3535 18.8719 70.0193 18.8719Z" fill="white"/>
<path d="M77.8651 5.1333H80.3852V10.4714H86.0033V5.1333H88.5234V18.497H86.0033V12.8597H80.3852V18.497H77.8651V5.1333Z" fill="white"/>
<path d="M5.30374 10.1997C4.58724 11.8043 4.16859 13.2743 4.79999 13.5324C5.16236 13.6793 5.52198 12.8516 5.81984 11.8674C5.55081 11.3596 5.37237 10.7968 5.30374 10.1997Z" fill="white"/>
<path d="M7.31872 17.3415C7.42166 16.8624 6.55006 16.0554 6.51712 16.7979C6.50064 17.1672 7.16636 18.047 7.31872 17.3415Z" fill="white"/>
<path d="M6.77518 15.1565C6.61184 14.9438 6.23026 11.1581 5.94064 13.751C5.87338 14.2671 6.23575 14.9616 6.23438 15.464C6.23026 16.7021 7.29128 15.8291 6.77518 15.1565Z" fill="white"/>
<path d="M7.03185 17.937C6.94675 19.6281 7.75796 21.164 8.61035 22.5943L10.0173 24.0012L10.1655 23.8529C9.92393 23.4796 9.66725 23.1104 9.52313 22.807C8.74486 21.164 8.13131 19.4016 7.03185 17.937Z" fill="white"/>
<path d="M8.55543 16.4948C8.40307 15.7398 8.31797 14.9067 8.26444 14.0625C7.96109 13.9417 7.67147 13.7907 7.40244 13.6123C7.38597 15.7563 8.43601 18.3492 9.2733 20.2502C9.72077 21.266 10.2739 22.2158 10.8875 23.1286L11.3102 22.7058C10.0612 20.7361 8.98094 18.61 8.55543 16.4948Z" fill="white"/>
<path d="M4.79176 14.1174C4.55979 14.4249 4.86588 17.6409 5.41218 17.3746C5.52885 17.2099 5.59062 17.026 5.59611 16.8228C5.58101 16.901 5.59474 16.794 5.59886 16.7844C5.62356 16.1818 5.15139 13.6425 4.79176 14.1174Z" fill="white"/>
<path d="M4.98667 6.79181C4.57077 7.44242 2.35813 13.2362 3.39994 13.4613C3.0362 13.3817 5.52336 7.46301 5.90495 7.14594C6.4485 6.69435 6.76831 5.67863 7.39148 5.1337C8.00366 4.59839 8.37975 4.66702 9.12508 4.41583C9.32411 4.34857 12.0007 3.43167 11.9293 3.0597C11.766 2.87302 11.556 2.80165 11.2979 2.84557C11.3473 2.85106 11.3171 2.84831 11.2732 2.84557C8.84095 2.6438 6.18633 4.91271 4.98667 6.79181Z" fill="white"/>
<path d="M15.3388 11.1236C15.4706 10.8079 14.8365 10.0983 14.7555 9.99945C14.7541 9.9967 14.7514 9.99396 14.75 9.99121C14.728 10.2946 14.6786 10.5897 14.6031 10.8752C14.8721 11.2581 15.1439 11.5889 15.3388 11.1236Z" fill="white"/>
<path d="M2.34577 14.2588C1.90791 14.2629 1.86125 14.9122 1.90791 15.711C2.16871 16.0693 2.45696 16.4152 2.76991 16.746C2.89344 15.5998 2.9607 14.2533 2.34577 14.2588Z" fill="white"/>
<path d="M10.2163 14.3932C10.1504 14.3959 10.0845 14.3987 10.0173 14.3987C9.81276 14.3987 9.61099 14.3836 9.41333 14.3589C9.46823 14.7569 9.53137 15.1426 9.59863 15.5078C10.0228 17.8261 10.9561 19.9097 12.1613 21.8561L12.5827 21.4347C12.024 20.5342 11.5546 19.594 11.2224 18.6071C10.7557 17.2194 10.4167 15.8111 10.2163 14.3932Z" fill="white"/>
<path d="M11.2732 2.84535C11.2814 2.84535 11.2897 2.84535 11.2979 2.84535C11.0646 2.82476 11.1922 2.83848 11.2732 2.84535Z" fill="white"/>
<path d="M5.59747 16.7842C5.59747 16.7979 5.5961 16.8116 5.59473 16.8226C5.59747 16.7883 5.59747 16.7801 5.59747 16.7842Z" fill="white"/>
<path d="M17.9056 4.51881C15.2304 2.37892 12.3603 1.53477 9.01526 1.76262C6.44986 1.93557 3.72798 5.83926 2.62578 7.83777C2.45421 8.14798 0.676683 11.5616 2.09733 11.2885C2.13988 11.2803 2.83991 9.20214 2.98678 8.93036C4.40742 6.27163 5.90494 3.37131 9.17585 2.82776C9.77843 2.72756 11.8771 1.55261 12.3877 2.47088C12.7515 3.12562 14.9847 3.73231 15.6998 4.21821C17.1301 5.18864 18.0772 5.54964 19.1341 7.05264C19.3825 7.40677 19.631 7.7609 19.8781 8.11504C19.7531 7.41913 19.5555 6.72321 19.281 6.04103C19.2192 5.8873 19.1533 5.73631 19.0847 5.5867C18.71 5.20923 18.3201 4.85098 17.9056 4.51881Z" fill="white"/>
<path d="M14.9449 12.378C15.5736 13.9099 16.3532 15.3744 17.2193 16.7896C17.4225 16.5782 17.6146 16.3613 17.7958 16.1376C17.1534 14.9682 16.6222 13.7575 16.0169 12.4947C15.4912 11.398 14.5606 11.4419 14.9449 12.378Z" fill="white"/>
<path d="M15.3992 15.9222C15.2551 15.6189 14.5359 13.5572 14.1392 12.0034C13.9347 12.3603 13.6862 12.6897 13.3994 12.9807C13.8317 14.8982 14.6237 16.6936 15.6642 18.3517L16.3861 17.6297C16.021 17.0752 15.6779 16.5124 15.3992 15.9222Z" fill="white"/>
<path d="M18.7072 10.4773C18.9543 11.1691 19.3029 11.817 19.6969 12.4443C19.8273 11.9611 19.9206 11.4684 19.9755 10.9701C18.4478 8.74923 17.6695 6.45835 15.2922 4.74259C13.4021 3.38097 10.6349 3.82432 8.68857 5.09672C9.11133 4.97319 9.55605 4.90593 10.0186 4.90593C10.4894 4.90593 10.9438 4.97594 11.372 5.10359C14.5716 4.4063 17.6462 7.50427 18.7072 10.4773Z" fill="white"/>
<path d="M12.5236 5.30767C12.3534 5.30905 12.1832 5.32277 12.013 5.34611C13.1578 5.8773 14.0555 6.85185 14.4851 8.05014C15.0259 8.64585 15.5338 9.25528 15.9579 10.0253C16.5262 11.0561 17.7395 12.566 18.0003 13.6819C18.117 14.1802 18.3407 14.5906 18.6043 14.9928C18.8308 14.6181 19.0325 14.2337 19.2055 13.8384C18.0745 11.9456 17.2276 10.4783 16.9091 9.93884C15.9854 8.37682 14.6539 5.29257 12.5236 5.30767Z" fill="white"/>
<path d="M12.6019 0.111396C8.52798 -0.375878 4.6641 1.60479 2.22635 5.37534C1.44946 6.57225 0.609425 8.03956 0.00547895 9.56316C-0.0137375 10.1671 0.0219502 10.7669 0.11117 11.3572C0.8963 9.21726 2.11243 6.8152 3.42464 5.07336C6.03945 1.5993 10.4208 0.16081 14.3204 1.53067C15.4802 1.93833 16.5179 2.46541 17.4623 3.08446C16.1761 1.63087 14.4988 0.598671 12.6019 0.111396Z" fill="white"/>
<path d="M5.61395 18.4507C5.42865 18.4919 5.50414 18.9929 5.67846 19.6628L6.65164 20.6359C6.27692 19.6271 5.84592 18.4 5.61395 18.4507Z" fill="white"/>
<path d="M3.60034 15.2495C3.27092 15.2961 3.35327 16.3819 3.52622 17.5074L4.40881 18.39C4.29488 17.0599 4.10683 15.1795 3.60034 15.2495Z" fill="white"/>
<path d="M12.2162 17.8013C11.8387 18.6619 12.3164 19.7929 13.0891 20.9267L13.7343 20.2816C13.2291 19.4402 12.7432 18.5864 12.2162 17.8013Z" fill="white"/>
<path d="M3.25579 14.0102C3.20226 14.68 4.04916 14.621 3.80346 14.1557C3.75817 14.0692 3.02794 13.3047 3.25579 14.0102Z" fill="white"/>
<path d="M14.271 18.2871C13.6629 17.2975 13.5586 16.1294 12.9835 15.1562C12.8215 15.4239 12.9656 16.371 12.6431 16.4506C12.3534 16.522 11.4667 14.9943 12.0281 14.6895C12.665 14.3436 12.7899 14.2791 12.6033 13.6299C12.2807 13.8399 11.9307 14.0115 11.5615 14.1391C11.5285 15.5104 11.5862 16.4396 12.7625 17.6297C13.3664 18.2418 13.9237 18.8897 14.4604 19.5554L14.8571 19.1587C14.6484 18.8691 14.4494 18.5768 14.271 18.2871Z" fill="white"/>
<path d="M7.90619 0C4.69155 0.661596 2.04379 2.85365 0.763153 6.02025C2.44597 3.22288 4.81097 1.01573 7.90619 0Z" fill="white"/>
<path d="M0.689025 12.3327C0.588825 12.4081 0.533921 12.6635 0.505096 12.9929C0.697261 13.5666 0.941585 14.1239 1.23944 14.6606C1.36572 13.4266 1.52082 12.3052 1.48102 11.9868C1.36572 11.015 0.787853 12.2585 0.689025 12.3327Z" fill="white"/>
</svg>
