<svg width="365" height="360" viewBox="0 0 365 360" fill="none" xmlns="http://www.w3.org/2000/svg">
<path d="M83.9969 269.049C70.7438 255.425 60.8271 251.625 44.5156 271.737C29.0381 290.829 0.400269 321.691 0.400269 321.691H135.619C135.619 321.598 97.3427 282.673 83.9969 269.049Z" fill="#EBEBEB"/>
<path d="M93.6355 273.868C114.952 258.762 124.776 243.84 150.726 265.713C162.404 258.947 172.598 252.181 180.105 245.879C220.421 211.403 261.014 232.626 294.008 256.074C326.909 279.522 365 321.691 365 321.691H240.161H29.5942H21.9945C21.9945 321.598 72.2266 289.068 93.6355 273.868Z" fill="#FAFAFA"/>
<path d="M264.073 261.356C280.755 244.211 295.491 233.553 315.973 258.854C335.436 282.858 364.908 321.691 364.908 321.691H195.027C195.027 321.598 247.39 278.502 264.073 261.356Z" fill="#EBEBEB"/>
<path opacity="0.2" d="M350.913 100.744C349.894 100.836 348.874 101.485 347.762 102.505C347.484 96.3878 344.889 92.588 340.348 93.0514C338.031 93.2368 335.528 94.5343 333.026 96.5732C334.509 87.3053 332.841 80.725 328.392 80.725C325.89 80.725 322.924 82.8567 319.958 86.3785C319.217 80.169 316.807 76.3691 312.729 76.3691C306.242 76.3691 297.623 86.1004 291.135 99.7243C287.891 100.002 281.774 105.378 280.848 110.197H352.303C352.396 109.919 352.489 109.641 352.674 109.27C354.25 104.266 353.508 100.466 350.913 100.744Z" fill="#E0115F"/>
<path opacity="0.2" d="M181.681 64.9695C180.847 65.0621 179.827 65.8963 178.808 67.1011C179.271 59.5941 177.51 54.9601 173.618 55.4235C171.671 55.7016 169.354 57.2771 166.945 59.7794C169.262 48.3799 168.613 40.3168 164.813 40.3168C162.681 40.3168 159.901 42.9118 156.935 47.2677C157.028 39.5754 155.36 34.9414 151.931 34.9414C147.667 34.9414 141.551 42.1704 135.619 53.1992C135.434 49.9554 134.507 48.1019 132.839 48.1019C130.522 48.1019 127.371 51.7163 124.22 57.4625C124.034 57.4625 123.756 57.4624 123.571 57.5551C119.493 58.4819 113.839 65.8963 110.596 74.3301H182.515C184.09 68.862 183.812 64.6914 181.681 64.9695Z" fill="#E0115F"/>
<path d="M105.498 321.599H97.25C97.25 321.599 102.44 270.718 84.6456 246.621C109.298 268.493 105.498 321.599 105.498 321.599Z" fill="#EBEBEB"/>
<path d="M84.4603 261.357C84.0896 261.542 83.7189 261.728 83.3482 261.913C83.9043 263.303 84.553 264.694 85.3871 265.991C86.1286 266.269 86.9627 266.454 87.5188 266.547C86.9627 266.732 86.4993 266.918 86.1286 267.011C87.148 268.308 88.3529 269.42 89.8357 270.254C94.377 261.357 88.4455 250.514 84.6457 246.621C81.958 250.05 81.4019 255.982 83.0702 261.264C83.5336 261.357 83.9969 261.45 84.4603 261.357Z" fill="#E0E0E0"/>
<path d="M84.6457 246.621C81.3093 254.406 76.0266 263.581 67.5928 271.459C65.6465 256.723 74.8217 244.582 84.6457 246.621Z" fill="#E0E0E0"/>
<path d="M65.4612 246.621C65.4612 246.713 64.9978 247.918 64.8125 249.123C73.1536 248.567 79.6411 247.733 84.6458 246.621C81.0313 237.538 67.6855 240.041 59.2517 249.494C60.7346 249.401 62.2174 249.308 63.515 249.308C64.2564 247.64 65.3685 246.713 65.4612 246.621Z" fill="#E0E0E0"/>
<path d="M84.6456 246.621C86.7773 251.904 94.8403 262.469 105.498 261.913C105.035 258.02 102.903 254.591 100.216 251.904C99.567 252.923 98.5475 254.128 97.0646 254.406C97.8988 253.108 98.3622 251.625 98.4548 250.421C94.1916 247.177 88.8162 245.601 84.6456 246.621Z" fill="#E0E0E0"/>
<path d="M84.6456 246.621C92.06 247.455 101.328 247.363 110.967 244.304C100.494 236.519 87.3333 238.28 84.6456 246.621Z" fill="#E0E0E0"/>
<path d="M92.1527 233.368C92.2454 233.368 93.1722 233.553 94.099 233.924C90.4845 239.485 87.3334 243.655 84.553 246.621C79.7337 240.597 86.6847 232.256 96.5087 230.124C95.8599 231.143 95.3038 232.07 94.6551 232.997C93.3576 232.997 92.2454 233.368 92.1527 233.368Z" fill="#E0E0E0"/>
<path d="M197.529 321.598H209.67C209.67 321.598 202.07 246.528 228.298 211.032C192.061 243.377 197.529 321.598 197.529 321.598Z" fill="#EBEBEB"/>
<path d="M211.524 221.134C210.968 220.856 210.504 220.578 210.133 220.3C208.929 221.875 207.816 223.544 207.075 225.397C207.26 226.324 207.631 227.436 208.002 228.085C207.353 227.714 206.89 227.251 206.519 226.88C205.777 228.826 205.407 230.958 205.499 233.09C218.753 231.699 226.816 217.705 228.484 211.032C222.645 210.476 215.509 214.09 210.782 219.651C210.875 220.207 211.246 220.763 211.524 221.134Z" fill="#E0E0E0"/>
<path d="M192.154 200.93C194.007 201.856 195.768 202.691 197.529 203.525C197.9 202.598 198.641 201.578 199.753 200.837C199.383 201.949 199.197 203.154 199.197 204.173C200.495 204.73 201.7 205.193 202.904 205.656C203.553 204.266 204.758 202.691 206.89 201.949C205.963 203.339 205.685 205.1 205.499 206.583C213.562 209.271 220.884 210.476 228.298 211.032C226.538 198.242 209.948 192.589 192.154 200.93Z" fill="#E0E0E0"/>
<path d="M228.298 211.124C219.865 214.183 209.021 216.778 196.88 216.222C206.982 204.359 222.923 202.505 228.298 211.124Z" fill="#E0E0E0"/>
<path d="M214.489 190.457C214.397 190.457 212.265 191.384 212.08 192.681C218.66 201.301 223.386 206.491 228.298 211.032C235.898 200.744 223.479 188.233 206.797 185.73C207.909 187.306 209.021 188.789 210.133 190.179C212.543 189.994 214.397 190.457 214.489 190.457Z" fill="#E0E0E0"/>
<path d="M228.298 211.125C223.85 217.149 217.733 233.182 225.981 244.211C229.967 240.967 232.469 236.333 233.488 231.514C231.82 231.514 229.689 231.236 228.484 229.846C230.615 229.846 232.562 229.197 233.952 228.641C234.601 221.69 232.562 214.832 228.298 211.125Z" fill="#E0E0E0"/>
<path d="M228.298 211.124C232.747 219.651 239.513 229.567 249.893 237.723C251.19 221.041 239.791 208.066 228.298 211.124Z" fill="#E0E0E0"/>
<path d="M247.205 210.105C247.205 210.198 247.761 211.403 248.039 212.608C239.142 212.608 233.674 211.959 228.391 211.032C231.82 201.579 246.093 203.34 255.546 212.329C253.878 212.608 250.912 212.608 249.429 212.608C248.503 211.032 247.298 210.198 247.205 210.105Z" fill="#E0E0E0"/>
<path opacity="0.2" d="M314.119 37.7218C312.915 37.8145 311.617 38.6486 310.32 39.8534C309.949 32.4391 306.89 27.9905 301.422 28.4539C298.642 28.7319 295.676 30.2148 292.618 32.7171C294.379 21.5956 292.34 13.7179 287.057 13.7179C284.091 13.7179 280.477 16.3129 276.955 20.5761C276.121 13.0691 273.155 8.52783 268.243 8.52783C260.458 8.52783 250.078 20.2054 242.293 36.6096C238.401 36.8877 231.079 43.3752 229.874 49.214H315.602C315.695 48.8433 315.88 48.4726 315.973 48.1019C318.105 41.985 317.178 37.3511 314.119 37.7218Z" fill="#E0115F"/>
<path d="M191.041 359.319C280.206 359.319 352.488 355.086 352.488 349.865C352.488 344.644 280.206 340.412 191.041 340.412C101.876 340.412 29.5941 344.644 29.5941 349.865C29.5941 355.086 101.876 359.319 191.041 359.319Z" fill="#F5F5F5"/>
<path d="M54.3396 349.865H72.6901C75.1924 349.865 77.046 347.734 76.8606 345.324C74.6363 318.076 66.0171 175.628 118.659 104.543C45.3497 169.697 48.9642 319.467 50.169 345.88C50.169 348.104 52.0226 349.865 54.3396 349.865Z" fill="#3A3A3A"/>
<path opacity="0.2" d="M49.7057 323.729C49.7057 325.12 49.7057 326.602 49.7057 327.9C58.2322 326.88 67.7781 326.695 75.7485 327.159C75.6559 325.768 75.6559 324.378 75.5632 322.988C67.5928 322.525 58.2322 322.71 49.7057 323.729Z" fill="black"/>
<path opacity="0.2" d="M50.1691 301.208C50.0764 302.598 50.0764 303.989 49.9838 305.379C57.8615 304.637 67.0367 304.637 75.0072 305.193C75.0072 303.803 75.0071 302.413 74.9145 301.023C67.0367 300.467 58.1395 300.467 50.1691 301.208Z" fill="black"/>
<path opacity="0.2" d="M51.6518 278.502C51.5592 279.892 51.4665 281.282 51.2811 282.672C58.6028 282.116 67.222 282.394 75.0997 283.136C75.0997 281.745 75.1924 280.355 75.1924 278.965C67.4073 278.224 59.0662 278.038 51.6518 278.502Z" fill="black"/>
<path opacity="0.2" d="M54.0617 255.61C53.8763 257 53.691 258.39 53.5056 259.78C60.3639 259.502 68.3343 260.058 75.7486 260.985C75.8413 259.595 75.934 258.205 76.0267 256.815C68.7977 255.888 60.92 255.332 54.0617 255.61Z" fill="black"/>
<path opacity="0.2" d="M56.9347 236.796C63.2369 236.889 70.5585 237.63 77.4168 238.742C77.5095 237.352 77.6948 235.962 77.7875 234.572C71.0219 233.46 63.9783 232.718 57.5834 232.625C57.3981 234.016 57.2127 235.406 56.9347 236.796Z" fill="black"/>
<path opacity="0.2" d="M61.5686 213.905C67.3147 214.275 73.8023 215.295 79.9191 216.592C80.1044 215.202 80.2898 213.812 80.4752 212.422C74.451 211.217 68.2415 210.29 62.4954 209.827C62.2174 211.124 61.8466 212.514 61.5686 213.905Z" fill="black"/>
<path opacity="0.2" d="M67.6853 191.291C72.7827 192.032 78.3434 193.144 83.5334 194.535C83.8115 193.144 84.0895 191.754 84.3676 190.457C79.2702 189.159 73.9875 188.047 68.9828 187.306C68.5194 188.696 68.056 189.993 67.6853 191.291Z" fill="black"/>
<path opacity="0.2" d="M75.3777 169.511C79.7336 170.531 84.0895 171.735 88.3528 173.033C88.7235 171.643 89.0942 170.345 89.4649 168.955C85.387 167.658 81.2165 166.545 77.0459 165.526C76.4898 166.916 75.9338 168.214 75.3777 169.511Z" fill="black"/>
<path opacity="0.2" d="M86.9626 145.044C86.3139 146.249 85.5725 147.546 84.9237 148.751C88.1675 149.771 91.5039 150.975 94.5623 152.18C95.0257 150.883 95.4891 149.585 95.9525 148.195C93.0795 147.176 90.0211 146.063 86.9626 145.044Z" fill="black"/>
<path d="M119.308 152.737C120.605 153.478 121.81 154.034 123.015 154.498C121.347 159.224 119.03 163.673 116.249 167.843C113.932 168.677 111.245 169.512 109.206 169.697C110.874 170.346 112.449 170.809 113.84 171.087C110.503 175.258 106.518 178.872 101.791 181.745C87.0552 152.737 106.425 117.055 118.659 104.543C127.556 115.758 129.41 135.22 123.756 152.459C122.181 152.644 120.605 152.829 119.308 152.737Z" fill="#E0115F"/>
<path d="M118.659 104.451C129.595 129.938 146.926 160.058 174.545 185.73C180.661 137.537 150.819 97.7779 118.659 104.451Z" fill="#E0115F"/>
<path d="M181.403 104.543C181.495 104.822 182.793 108.714 183.442 112.792C156.101 111.031 134.878 108.343 118.659 104.451C130.615 74.8861 174.266 83.0419 201.792 113.719C196.973 113.533 192.246 113.255 187.705 112.977C185.203 107.88 181.588 104.729 181.403 104.543Z" fill="#E0115F"/>
<path d="M118.659 104.451C111.708 121.782 85.2943 156.444 50.4469 154.59C52.1151 141.893 58.788 130.586 67.8706 121.874C70.0022 125.303 73.4313 129.196 78.158 129.937C75.3776 125.674 74.0801 120.855 73.4313 117.055C87.4259 106.212 105.035 101.022 118.659 104.451Z" fill="#E0115F"/>
<path d="M118.659 104.451C94.4695 107.046 64.0708 106.86 32.4672 96.8511C66.6658 71.3643 109.854 77.0177 118.659 104.451Z" fill="#E0115F"/>
<path d="M94.0061 61.0768C93.7281 61.1694 90.577 61.7255 87.5186 62.9303C99.4742 81.0955 109.669 94.812 118.659 104.451C134.414 84.6173 111.615 57.6476 79.6409 50.604C81.6798 53.8478 83.7188 56.9989 85.665 60.0573C90.2063 59.7793 93.8208 60.9841 94.0061 61.0768Z" fill="#E0115F"/>
<path d="M318.383 213.627C316.993 208.808 315.417 204.081 313.749 199.54L314.49 199.262C316.158 203.803 317.641 208.53 319.124 213.349L318.383 213.627Z" fill="#3A3A3A"/>
<path d="M321.534 225.212C321.07 223.358 320.607 221.597 320.144 219.743L320.978 219.558C321.441 221.412 321.904 223.173 322.368 225.026L321.534 225.212Z" fill="#3A3A3A"/>
<path d="M327.002 349.865H310.968C308.837 349.865 307.076 348.012 307.261 345.88C309.208 322.061 316.715 197.315 270.653 135.127C334.787 192.218 331.729 323.266 330.616 346.343C330.616 348.29 329.041 349.865 327.002 349.865Z" fill="#3A3A3A"/>
<path opacity="0.2" d="M331.08 326.974C331.08 328.271 331.08 329.476 331.08 330.588C323.666 329.754 315.232 329.569 308.281 329.939C308.374 328.735 308.374 327.53 308.466 326.232C315.417 325.862 323.666 326.047 331.08 326.974Z" fill="black"/>
<path opacity="0.2" d="M330.709 307.233C330.802 308.438 330.802 309.643 330.894 310.848C323.943 310.199 315.973 310.199 309.022 310.755C309.022 309.55 309.022 308.345 309.022 307.048C315.88 306.585 323.665 306.585 330.709 307.233Z" fill="black"/>
<path opacity="0.2" d="M329.412 287.4C329.504 288.605 329.597 289.81 329.69 291.014C323.295 290.551 315.695 290.736 308.837 291.478C308.837 290.273 308.744 289.068 308.744 287.771C315.603 287.122 322.924 286.937 329.412 287.4Z" fill="black"/>
<path opacity="0.2" d="M327.28 267.381C327.465 268.586 327.558 269.791 327.743 270.996C321.719 270.811 314.768 271.181 308.188 272.015C308.095 270.81 308.095 269.606 308.003 268.308C314.398 267.567 321.256 267.103 327.28 267.381Z" fill="black"/>
<path opacity="0.2" d="M324.778 250.884C319.217 250.977 312.915 251.625 306.798 252.552C306.705 251.347 306.613 250.143 306.427 248.938C312.359 248.011 318.568 247.362 324.036 247.27C324.314 248.474 324.592 249.679 324.778 250.884Z" fill="black"/>
<path opacity="0.2" d="M320.7 230.773C315.602 231.143 310.042 231.978 304.574 233.09C304.388 231.885 304.203 230.68 304.018 229.475C309.3 228.363 314.768 227.622 319.773 227.251C320.144 228.456 320.422 229.661 320.7 230.773Z" fill="black"/>
<path opacity="0.2" d="M315.324 211.032C310.876 211.681 306.056 212.7 301.422 213.905C301.237 212.7 300.959 211.495 300.681 210.291C305.13 209.178 309.764 208.159 314.212 207.51C314.676 208.715 314.954 209.92 315.324 211.032Z" fill="black"/>
<path opacity="0.2" d="M308.559 191.94C304.759 192.774 300.959 193.887 297.252 194.999C296.974 193.794 296.603 192.589 296.325 191.477C299.847 190.365 303.554 189.345 307.169 188.511C307.632 189.623 308.095 190.828 308.559 191.94Z" fill="black"/>
<path opacity="0.2" d="M298.457 170.531C299.013 171.643 299.662 172.663 300.218 173.775C297.345 174.702 294.472 175.721 291.784 176.741C291.413 175.629 290.95 174.424 290.579 173.312C293.081 172.385 295.769 171.458 298.457 170.531Z" fill="black"/>
<path d="M303.461 154.683C304.481 154.22 305.408 153.663 306.242 153.107C308.651 156.166 310.69 159.502 312.266 162.931C311.802 164.692 311.246 166.824 310.505 168.214C311.71 167.38 312.637 166.639 313.378 165.804C314.768 169.697 315.51 173.775 315.417 177.853C289.652 175.165 273.989 147.917 270.838 135.035C282.238 134.015 295.954 140.966 305.222 151.717C304.573 152.829 304.017 153.849 303.461 154.683Z" fill="#E0115F"/>
<path d="M341.089 115.294C337.475 117.148 334.046 118.816 330.617 120.299C329.782 118.445 328.485 116.499 326.353 115.109C327.095 117.241 327.373 119.558 327.465 121.689C324.963 122.709 322.553 123.728 320.144 124.562C318.846 121.967 316.437 118.909 312.451 117.426C314.212 120.206 314.861 123.543 315.046 126.416C299.476 131.699 285.111 134.015 270.746 135.035C274.175 110.197 306.52 99.0754 341.089 115.294Z" fill="#E0115F"/>
<path d="M270.746 135.035C287.057 140.966 308.281 146.064 331.729 144.859C312.173 122.06 281.218 118.353 270.746 135.035Z" fill="#E0115F"/>
<path d="M297.53 95.0903C297.808 95.183 301.886 96.9439 302.164 99.4462C289.281 116.128 280.106 126.323 270.653 135.035C255.917 115.109 280.014 90.7344 312.359 85.915C310.134 88.8808 308.003 91.8465 305.871 94.6269C301.422 94.0708 297.808 94.9976 297.53 95.0903Z" fill="#E0115F"/>
<path d="M270.746 135.035C279.457 146.62 291.32 177.946 275.287 199.355C267.502 193.052 262.775 184.062 260.736 174.609C263.98 174.609 268.058 174.146 270.56 171.458C266.482 171.458 262.683 170.253 259.902 169.048C258.605 155.703 262.59 142.264 270.746 135.035Z" fill="#E0115F"/>
<path d="M270.746 135.035C262.219 151.532 248.966 170.809 228.855 186.75C226.352 154.405 248.595 129.196 270.746 135.035Z" fill="#E0115F"/>
<path d="M234.045 133.181C233.952 133.367 233.025 135.684 232.469 138.093C249.8 138.093 260.366 136.796 270.653 135.035C264.073 116.685 236.269 120.021 217.826 137.537C221.07 138.093 226.816 138.093 229.689 138.093C231.542 135.035 233.952 133.274 234.045 133.181Z" fill="#E0115F"/>
<path d="M327.187 236.797C326.446 235.036 324.221 234.572 322.924 235.87C323.387 235.128 324.129 234.48 325.148 233.831C323.48 232.997 321.441 234.016 321.256 235.777C316.066 236.611 307.076 245.508 303.554 247.918C199.475 290.087 110.411 257.464 78.3435 234.943C76.3046 231.328 65.7391 221.597 60.6418 222.061C61.1052 219.466 58.3248 218.168 56.4712 219.466C57.5834 219.929 58.4175 220.578 58.9735 221.226C57.4907 220.114 55.3591 220.948 54.803 222.802C56.5639 222.339 57.8614 222.431 58.9735 222.802C58.7882 222.987 58.6955 223.08 58.5101 223.265C55.1737 228.363 57.5834 228.919 57.5834 228.919C57.5834 228.919 75.1924 233.738 76.6753 237.353C83.2555 253.942 110.503 308.438 184.369 312.979C263.053 317.798 289.003 276.093 305.222 252.274C308.559 248.474 325.148 242.543 325.148 242.543C325.148 242.543 327.558 241.987 324.221 236.982C325.056 236.704 325.982 236.704 327.187 236.797Z" fill="#E0115F"/>
<path opacity="0.7" d="M327.187 236.797C326.446 235.036 324.221 234.572 322.924 235.87C323.387 235.128 324.129 234.48 325.148 233.831C323.48 232.997 321.441 234.016 321.256 235.777C316.066 236.611 307.076 245.508 303.554 247.918C199.475 290.087 110.411 257.464 78.3435 234.943C76.3046 231.328 65.7391 221.597 60.6418 222.061C61.1052 219.466 58.3248 218.168 56.4712 219.466C57.5834 219.929 58.4175 220.578 58.9735 221.226C57.4907 220.114 55.3591 220.948 54.803 222.802C56.5639 222.339 57.8614 222.431 58.9735 222.802C58.7882 222.987 58.6955 223.08 58.5101 223.265C55.1737 228.363 57.5834 228.919 57.5834 228.919C57.5834 228.919 75.1924 233.738 76.6753 237.353C83.2555 253.942 110.503 308.438 184.369 312.979C263.053 317.798 289.003 276.093 305.222 252.274C308.559 248.474 325.148 242.543 325.148 242.543C325.148 242.543 327.558 241.987 324.221 236.982C325.056 236.704 325.982 236.704 327.187 236.797Z" fill="white"/>
<path d="M142.57 236.982L144.145 237.074L145.906 237.167C147.111 237.167 148.223 237.26 149.428 237.26C151.745 237.26 154.062 237.26 156.379 237.074C157.491 236.982 158.603 236.889 159.716 236.796C160.828 236.704 161.94 236.518 162.959 236.333C164.998 235.962 166.945 235.313 168.52 234.665L165.925 237.445C166.759 235.869 167.593 234.294 168.427 232.626C169.169 230.957 170.003 229.197 170.744 227.436C171.486 225.675 172.227 223.914 172.969 222.06C173.71 220.299 174.452 218.446 175.193 216.685L175.286 216.592C176.027 214.831 178.159 213.997 179.92 214.739C181.217 215.295 182.051 216.592 182.051 217.982C182.051 220.114 181.866 222.153 181.681 224.285C181.495 226.323 181.217 228.362 180.846 230.494C180.476 232.533 180.012 234.572 179.456 236.704C178.9 238.743 178.251 240.874 177.417 242.913C176.954 244.025 176.213 244.859 175.286 245.415L174.822 245.693C171.949 247.454 169.076 248.566 166.203 249.401C163.33 250.235 160.55 250.698 157.769 251.069C154.989 251.44 152.209 251.532 149.428 251.532C148.038 251.532 146.648 251.532 145.35 251.44C144.702 251.44 143.96 251.347 143.311 251.254L142.292 251.162L141.18 251.069C137.38 250.605 134.6 247.176 135.063 243.376C135.526 239.669 138.677 236.982 142.385 237.167L142.57 236.982Z" fill="#B55B52"/>
<path d="M127.556 236.889C133.766 234.294 149.799 232.811 157.028 240.133C165.369 248.474 185.202 250.606 187.705 256.815C182.7 263.025 177.881 272.2 177.881 272.2C177.881 272.2 132.097 245.786 127.556 236.889Z" fill="#263238"/>
<path d="M179.271 223.08L185.017 219.466L179.086 212.422C179.086 212.422 173.432 215.388 174.637 218.539L179.271 223.08Z" fill="#B55B52"/>
<path d="M174.359 219.373C172.413 217.334 172.783 213.812 171.949 211.495C171.857 211.124 172.32 210.568 172.691 210.568C173.432 210.661 174.081 212.422 174.174 213.071C174.266 213.905 178.993 214.183 178.252 217.241C176.861 218.168 174.359 219.373 174.359 219.373Z" fill="#B55B52"/>
<path d="M187.89 212.515L186.963 211.31C185.944 209.92 183.998 209.549 182.515 210.476L179.178 212.515L185.11 219.558L187.705 217.056C188.724 215.758 188.91 213.812 187.89 212.515Z" fill="#B55B52"/>
<path d="M212.914 348.568C213.192 346.714 215.138 343.934 215.323 340.69C215.323 340.69 223.479 339.485 222.552 341.617C221.626 343.656 228.298 347.455 234.508 348.66C235.342 348.846 234.323 351.163 232.284 351.163C227.094 351.163 223.108 350.699 220.235 350.606C217.733 350.514 216.806 351.255 214.86 351.163C213.099 351.07 212.636 350.328 212.914 348.568Z" fill="#B55B52"/>
<path d="M264.258 288.419C263.146 286.936 263.238 283.6 261.014 281.19C261.014 281.19 264.629 273.961 266.019 275.722C267.78 277.946 276.492 277.761 282.238 274.98C283.072 274.61 283.628 277.112 281.96 278.317C277.789 281.375 273.619 282.858 271.487 284.804C269.633 286.473 269.819 287.492 267.687 289.16C266.297 290.18 265.37 289.902 264.258 288.419Z" fill="#B55B52"/>
<path d="M143.404 237.075C134.785 235.407 117.639 239.577 112.171 249.586C113.654 266.639 135.99 291.663 164.35 297.78L190.856 271.737C190.856 271.737 189.466 257.928 162.774 250.884C156.565 244.211 150.262 238.465 143.404 237.075Z" fill="#B55B52"/>
<path d="M180.939 259.318C180.939 259.318 205.963 248.381 231.82 242.728C246.093 239.67 267.224 277.761 267.224 277.761L262.868 283.6C257.214 274.702 240.439 268.771 233.674 260.8C223.201 272.2 203.09 281.839 184.183 287.121C178.344 273.312 180.939 259.318 180.939 259.318Z" fill="#B55B52"/>
<path d="M207.353 248.474C211.431 250.884 213.47 269.327 210.689 279.336C205.407 284.341 183.442 293.053 167.594 285.638C163.516 285.175 163.052 283.692 163.052 283.692C165.462 276.463 173.525 264.971 180.847 258.669C184.368 255.332 201.143 251.254 207.353 248.474Z" fill="#E0115F"/>
<path opacity="0.2" d="M185.573 279.8C192.246 282.302 197.066 283.878 200.587 284.897C204.48 283.414 207.631 281.746 209.577 280.263C205.499 276.463 193.822 275.629 185.573 279.8Z" fill="black"/>
<path d="M177.047 273.034C177.047 273.034 205.407 280.726 228.298 293.979C239.235 300.374 221.162 343.655 221.162 343.655L214.953 343.841C214.953 343.841 212.543 318.632 217.27 306.398C199.939 307.696 180.569 304.452 162.404 296.852C166.296 282.394 177.047 273.034 177.047 273.034Z" fill="#B55B52"/>
<path d="M211.153 284.341C211.153 284.341 205.221 299.911 197.529 306.955C188.076 308.53 170.281 302.691 164.535 299.17C160.365 299.448 158.418 296.296 158.418 296.296C160.087 289.531 164.721 278.039 170.745 270.532C176.12 269.234 200.495 278.131 211.153 284.341Z" fill="#E0115F"/>
<path opacity="0.2" d="M136.175 256.166C136.453 256.444 136.824 256.444 137.009 256.259C137.195 256.074 137.102 255.61 136.824 255.425C136.546 255.147 136.175 255.147 135.99 255.332C135.804 255.518 135.897 255.888 136.175 256.166Z" fill="black"/>
<path opacity="0.2" d="M170.003 262.376C170.281 262.654 170.652 262.654 170.837 262.469C171.022 262.283 170.93 261.82 170.652 261.634C170.374 261.356 170.003 261.356 169.818 261.542C169.632 261.727 169.632 262.098 170.003 262.376Z" fill="black"/>
<path opacity="0.2" d="M156.009 247.362C156.194 247.732 156.565 247.825 156.843 247.64C157.121 247.454 157.121 247.084 156.843 246.713C156.657 246.342 156.287 246.25 156.009 246.435C155.823 246.62 155.731 246.991 156.009 247.362Z" fill="black"/>
<path d="M121.254 255.981L120.605 256.074L120.142 256.166L119.215 256.259C118.566 256.352 118.01 256.352 117.454 256.352C116.249 256.444 115.044 256.352 113.932 256.352C111.615 256.166 109.206 255.888 106.889 255.24C104.572 254.591 102.255 253.757 100.03 252.552C97.806 251.44 95.7671 249.864 93.8208 248.103L93.3574 247.733C92.2453 246.713 91.6892 245.416 91.5965 244.025C91.4112 241.245 91.6892 238.557 92.338 236.055C92.894 233.553 93.8208 231.236 94.933 229.011C96.0451 226.88 97.3426 224.841 98.7328 222.987C99.4743 222.06 100.216 221.134 100.957 220.3C101.328 219.836 101.791 219.465 102.162 219.002C102.625 218.539 102.996 218.261 103.552 217.705C104.942 216.407 107.167 216.5 108.464 217.89C109.484 219.002 109.576 220.485 109.02 221.69L108.835 222.153L108.279 223.358C108.093 223.821 107.815 224.192 107.63 224.655C107.259 225.582 106.889 226.416 106.518 227.343C105.776 229.104 105.22 230.958 104.757 232.719C104.294 234.479 104.016 236.24 103.923 237.909C103.83 239.577 103.923 241.152 104.201 242.635L102.069 238.465C103.274 239.299 104.479 239.948 105.869 240.504C106.518 240.782 107.259 240.967 108.001 241.245C108.742 241.43 109.484 241.616 110.225 241.801C111.708 242.079 113.283 242.264 114.859 242.357C115.693 242.357 116.435 242.357 117.269 242.357C117.639 242.357 118.01 242.357 118.381 242.357L119.308 242.265H120.049C123.849 242.079 127.185 244.952 127.371 248.845C127.371 252.367 124.776 255.425 121.254 255.981Z" fill="#B55B52"/>
<path d="M101.699 219.836L104.85 213.812L112.357 219.187C112.357 219.187 109.762 225.026 106.518 224.007L101.699 219.836Z" fill="#B55B52"/>
<path d="M111.615 210.475L112.913 211.31C114.396 212.236 114.859 214.183 114.118 215.666L112.357 219.187L104.85 213.812L107.167 211.032C108.279 209.827 110.225 209.549 111.615 210.475Z" fill="#B55B52"/>
<path d="M115.044 229.197C117.825 233.553 121.81 241.801 118.566 246.435C118.566 246.435 121.81 250.698 133.117 246.991C140.624 244.489 140.624 242.543 139.512 241.43C138.678 240.689 137.473 240.318 136.083 240.411C130.151 240.689 129.132 236.982 129.132 233.182L115.044 229.197Z" fill="#B55B52"/>
<path opacity="0.2" d="M120.791 230.772L129.132 233.089C129.132 234.016 129.224 235.036 129.41 235.87C127.741 236.611 122.273 236.426 121.347 234.387C120.883 233.368 120.698 231.329 120.791 230.772Z" fill="black"/>
<path d="M112.079 225.119C116.064 230.587 118.103 234.016 122.829 235.036C129.966 236.704 135.341 229.568 133.024 222.988C130.985 217.056 124.776 209.178 117.825 210.476C110.966 211.773 108.093 219.651 112.079 225.119Z" fill="#B55B52"/>
<path d="M114.488 230.772C116.527 229.938 115.786 222.709 114.117 221.504C114.859 220.577 116.898 216.778 114.766 214.739C118.659 214.739 124.683 211.31 125.146 208.993C125.61 206.676 123.849 204.822 120.883 204.544C121.346 205.285 122.366 206.398 120.605 206.676C118.937 206.954 112.079 204.173 108.927 207.417C110.41 207.324 110.966 207.973 110.966 207.973C110.966 207.973 101.698 215.387 106.147 219.836C102.255 221.412 100.864 230.309 114.488 230.772Z" fill="#263238"/>
<path d="M106.889 220.299C106.889 220.299 104.479 216.963 101.421 221.226C103.552 219.28 106.889 220.299 106.889 220.299Z" fill="#263238"/>
<path d="M121.717 221.134C121.995 221.597 122.459 221.783 122.83 221.597C123.108 221.412 123.108 220.856 122.83 220.392C122.552 219.929 122.088 219.744 121.717 219.929C121.347 220.114 121.439 220.67 121.717 221.134Z" fill="#263238"/>
<path d="M127 217.797C127.278 218.261 127.741 218.446 128.112 218.261C128.39 218.075 128.39 217.519 128.112 217.056C127.834 216.593 127.371 216.407 127 216.593C126.722 216.778 126.722 217.334 127 217.797Z" fill="#263238"/>
<path d="M125.517 219.095C125.517 219.095 128.298 221.134 130.244 221.597C129.873 222.895 128.298 223.451 128.298 223.451L125.517 219.095Z" fill="#A02724"/>
<path d="M126.629 226.138C127 226.046 127.371 225.86 127.741 225.582C127.834 225.49 127.834 225.397 127.834 225.397C127.741 225.304 127.649 225.304 127.649 225.304C125.61 226.602 123.756 225.768 123.756 225.768C123.663 225.768 123.571 225.768 123.571 225.86C123.571 225.953 123.571 226.046 123.663 226.046C123.571 226.138 124.961 226.787 126.629 226.138Z" fill="#263238"/>
<path d="M116.62 220.392C116.713 220.3 116.805 220.207 116.805 220.114C116.713 218.631 117.639 217.983 117.639 217.983C117.825 217.89 117.825 217.705 117.732 217.519C117.639 217.334 117.454 217.334 117.269 217.427C117.176 217.427 116.064 218.353 116.156 220.207C116.156 220.392 116.342 220.485 116.527 220.485C116.527 220.392 116.62 220.392 116.62 220.392Z" fill="#263238"/>
<path d="M127.371 212.051C127.464 212.051 127.464 211.958 127.464 211.866C127.464 211.68 127.371 211.495 127.278 211.495C125.517 211.031 124.405 212.051 124.405 212.051C124.312 212.144 124.22 212.329 124.405 212.514C124.498 212.607 124.776 212.607 124.869 212.514C124.869 212.514 125.795 211.68 127.185 212.051C127.185 212.144 127.371 212.144 127.371 212.051Z" fill="#263238"/>
<path d="M124.405 219.558C125.425 221.227 124.869 223.451 123.2 224.47C121.532 225.49 119.308 224.934 118.288 223.265C117.269 221.597 117.825 219.373 119.493 218.353C121.254 217.334 123.386 217.89 124.405 219.558Z" fill="#263238"/>
<path d="M112.635 226.509C112.542 226.509 112.542 226.509 112.635 226.509C112.449 226.509 112.357 226.324 112.449 226.231C112.542 225.49 115.971 224.285 118.01 223.636L123.478 219.373C123.756 218.724 124.498 217.612 125.795 217.797C125.888 217.797 125.981 217.89 125.981 218.075C125.981 218.168 125.888 218.261 125.703 218.261C124.498 218.075 123.849 219.651 123.849 219.651C123.849 219.651 123.849 219.744 123.756 219.744L118.196 224.1C118.196 224.1 118.196 224.1 118.103 224.1C115.693 224.934 113.006 225.953 112.82 226.324C112.82 226.417 112.727 226.509 112.635 226.509Z" fill="#263238"/>
<path d="M112.079 231.05C113.654 231.977 115.415 232.163 116.898 231.884C119.03 231.421 118.937 229.289 117.361 227.807C115.971 226.509 113.191 225.212 111.523 226.416C109.762 227.621 110.318 229.938 112.079 231.05Z" fill="#B55B52"/>
<path d="M119.586 218.353C119.122 218.631 118.752 219.002 118.474 219.373L119.771 224.563C120.42 224.933 121.161 225.026 121.903 224.933L120.235 218.075C119.957 218.075 119.771 218.261 119.586 218.353Z" fill="white"/>
<path d="M120.791 217.89L122.459 224.748C122.737 224.656 123.015 224.563 123.2 224.378C123.293 224.285 123.386 224.285 123.478 224.192L121.903 217.797C121.532 217.797 121.161 217.797 120.791 217.89Z" fill="white"/>
<path d="M130.985 214.461C132.005 216.129 131.541 218.261 129.966 219.28C128.39 220.207 126.259 219.651 125.239 217.983C124.22 216.314 124.683 214.183 126.259 213.163C127.834 212.236 129.966 212.793 130.985 214.461Z" fill="#263238"/>
<path d="M126.258 213.163C125.795 213.441 125.517 213.719 125.239 214.182L126.536 219.28C127.185 219.65 127.927 219.836 128.575 219.743L126.814 212.978C126.629 212.978 126.444 213.07 126.258 213.163Z" fill="white"/>
<path d="M127.37 212.7L129.131 219.558C129.409 219.465 129.595 219.373 129.873 219.28C129.965 219.187 130.058 219.187 130.058 219.095L128.39 212.7C128.112 212.7 127.741 212.7 127.37 212.7Z" fill="white"/>
<path d="M113.654 240.967C119.586 240.04 130.522 244.859 141.365 252.644C152.209 260.429 169.354 277.853 169.354 277.853C169.354 277.853 159.53 295.926 162.496 302.413C136.361 298.613 112.264 260.337 112.264 260.337C112.264 260.337 102.069 259.595 96.9719 254.961C99.0109 246.435 105.22 239.021 105.22 239.021L113.654 240.967Z" fill="#263238"/>
<path d="M185.944 207.602C186.593 211.958 183.534 216.036 179.178 216.685C174.822 217.334 170.745 214.275 170.096 209.919C169.447 205.564 172.784 203.895 177.232 203.247C181.588 202.69 185.295 203.247 185.944 207.602Z" fill="#263238"/>
<path d="M183.905 205.471C184.09 206.861 181.495 208.344 177.974 208.9C174.452 209.456 171.486 208.715 171.301 207.325C171.115 205.934 173.71 204.451 177.232 203.895C180.754 203.432 183.72 204.081 183.905 205.471Z" fill="white"/>
<path d="M175.101 208.251L170.467 200.281L167.594 204.544L166.759 204.081L170.467 198.52L175.842 207.788L175.101 208.251Z" fill="#E0115F"/>
<g opacity="0.5">
<g opacity="0.5">
<path opacity="0.5" d="M259.16 12.5129C253.414 17.3322 247.297 25.8587 242.293 36.4242C239.698 36.6095 235.434 39.6679 232.654 43.4678C223.572 40.6874 216.991 32.2536 216.991 22.2442C216.991 10.0106 226.908 0.00122154 239.234 0.00122154C247.946 -0.0914577 255.639 5.09858 259.16 12.5129Z" fill="#DD9412"/>
</g>
</g>
</svg>
