<svg width="361" height="373" viewBox="0 0 361 373" fill="none" xmlns="http://www.w3.org/2000/svg">
<path fill-rule="evenodd" clip-rule="evenodd" d="M101.658 60.2626C101.058 60.2642 100.46 60.332 99.8755 60.4648C99.0659 57.3924 97.2623 54.6743 94.7458 52.7346C92.2294 50.7949 89.1417 49.7427 85.9644 49.742C84.4762 49.7386 82.9969 49.9712 81.5816 50.4312C80.2767 46.4607 77.7384 43.0104 74.3363 40.5828C70.9341 38.1552 66.8459 36.8771 62.6669 36.9345C58.4878 36.9919 54.4363 38.3819 51.1021 40.902C47.768 43.4222 45.3254 46.9409 44.1301 50.9457C42.243 50.1222 40.201 49.7135 38.1424 49.7473C36.0837 49.7812 34.0563 50.2567 32.1972 51.1418C30.3382 52.0269 28.691 53.3008 27.3668 54.8776C26.0427 56.4543 25.0727 58.297 24.5223 60.281H23.9985C22.0702 60.2795 20.2069 60.9784 18.7551 62.2476C17.3033 63.5169 16.3619 65.2701 16.1058 67.1814H109.551C109.297 65.2676 108.357 63.5111 106.905 62.2384C105.453 60.9658 103.589 60.2637 101.658 60.2626Z" fill="#E0115F" fill-opacity="0.2"/>
<path fill-rule="evenodd" clip-rule="evenodd" d="M312.759 21.7544C312.199 21.7581 311.642 21.8228 311.096 21.9474C310.633 20.1808 309.814 18.5271 308.691 17.0873C307.567 15.6475 306.162 14.4517 304.561 13.573C302.96 12.6942 301.197 12.1509 299.379 11.9762C297.561 11.8016 295.726 11.9991 293.987 12.557C292.753 8.85859 290.374 5.64881 287.194 3.3918C284.015 1.1348 280.2 -0.0524417 276.301 0.00177778C272.402 0.0559972 268.622 1.34886 265.507 3.69341C262.391 6.03796 260.102 9.31266 258.971 13.0439C257.204 12.266 255.291 11.8776 253.361 11.9052C251.431 11.9328 249.529 12.3758 247.785 13.204C246.042 14.0322 244.497 15.2262 243.256 16.7048C242.015 18.1835 241.107 19.912 240.594 21.7728H240.098C238.304 21.7803 236.572 22.4349 235.222 23.6165C233.872 24.7981 232.993 26.4272 232.747 28.2046H320.147C319.902 26.4184 319.02 24.781 317.661 23.5953C316.303 22.4095 314.562 21.7556 312.759 21.7544Z" fill="#E0115F" fill-opacity="0.2"/>
<path d="M283.945 166.746C285.069 166.667 286.197 166.819 287.26 167.192C288.324 167.564 289.3 168.151 290.128 168.914C295.641 159.827 302.551 154.388 310.085 154.388C327.947 154.388 342.428 184.893 342.428 222.51C342.428 223.649 342.428 224.779 342.428 225.9C348.097 223.732 353.142 223.713 356.615 226.341C365.031 232.718 360.97 252.271 347.537 270.004C334.104 287.737 316.379 296.935 307.963 290.558C307.908 290.558 307.871 290.476 307.825 290.439C291.029 287.958 277.77 258.5 277.77 222.51C277.769 217.695 278.014 212.883 278.505 208.093C276.347 203.562 274.962 198.702 274.407 193.714C272.698 179.665 276.98 167.591 283.945 166.746Z" fill="#FFD9E7"/>
<path d="M310.113 190.553C310.113 190.553 307.623 350.741 315.396 371.819H304.82C304.82 371.819 307.292 239.765 310.113 190.553Z" fill="#3A2A21"/>
<path d="M307.292 277.437C307.292 277.437 317.399 230.871 327.506 222.941C317.399 230.871 307.696 262.929 307.696 262.929L307.292 277.437Z" fill="#3A2A21"/>
<path d="M309.727 244.204C309.727 244.204 304.977 220.415 301.007 212.963C306.373 219.028 309.727 233.94 309.727 233.94V244.204Z" fill="#3A2A21"/>
<path d="M292.039 299.388H290.349V371.544H292.039V299.388Z" fill="#333333"/>
<path d="M291.203 279.661C287.023 279.661 285.69 285.22 285.69 285.22L288.272 299.839H294.18L296.762 285.22C296.762 285.22 295.375 279.661 291.203 279.661Z" fill="#333333"/>
<path d="M287.693 286.074H294.768L293.013 298.295H289.504L287.693 286.074Z" fill="#FD9A41"/>
<path d="M292.683 278.54C292.653 278.913 292.484 279.262 292.209 279.516C291.934 279.77 291.573 279.912 291.199 279.912C290.824 279.912 290.463 279.77 290.188 279.516C289.913 279.262 289.744 278.913 289.715 278.54C289.699 278.335 289.725 278.129 289.792 277.935C289.86 277.741 289.966 277.563 290.106 277.413C290.245 277.262 290.414 277.142 290.602 277.059C290.79 276.977 290.993 276.935 291.199 276.935C291.404 276.935 291.607 276.977 291.795 277.059C291.983 277.142 292.152 277.262 292.292 277.413C292.431 277.563 292.538 277.741 292.605 277.935C292.672 278.129 292.699 278.335 292.683 278.54Z" fill="#333333"/>
<path d="M292.049 299.838L290.358 301.263V299.838H292.049Z" fill="#3A2A21"/>
<path d="M293.794 369.899H287.105V371.544H293.794V369.899Z" fill="#594233" fill-opacity="0.2"/>
<path d="M66.5128 299.388H64.8222V371.544H66.5128V299.388Z" fill="#333333"/>
<path d="M65.6766 279.661C61.496 279.661 60.1637 285.22 60.1637 285.22L62.7456 299.839H68.6537L71.2356 285.22C71.2356 285.22 69.8573 279.661 65.6766 279.661Z" fill="#333333"/>
<path d="M62.1667 286.074H69.2417L67.4868 298.295H63.9768L62.1667 286.074Z" fill="#FD9A41"/>
<path d="M67.1559 278.54C67.1559 278.835 67.0684 279.123 66.9044 279.368C66.7405 279.613 66.5075 279.803 66.2349 279.916C65.9624 280.028 65.6626 280.057 65.3737 279.999C65.0847 279.941 64.8195 279.798 64.6117 279.589C64.4039 279.38 64.2628 279.114 64.2064 278.825C64.15 278.535 64.1808 278.236 64.2949 277.964C64.409 277.692 64.6012 277.46 64.8472 277.298C65.0932 277.135 65.3818 277.049 65.6766 277.051C65.8717 277.051 66.0648 277.09 66.2449 277.165C66.425 277.24 66.5884 277.349 66.7259 277.488C66.8634 277.626 66.9722 277.79 67.046 277.971C67.1198 278.151 67.1572 278.345 67.1559 278.54Z" fill="#333333"/>
<path d="M66.522 299.838L64.8222 301.263V299.838H66.522Z" fill="#3A2A21"/>
<path d="M69.7746 369.899H63.747V371.544H69.7746V369.899Z" fill="#594233" fill-opacity="0.2"/>
<path d="M81.0394 114.4H62.8282V118.995H81.0394V114.4Z" fill="#423E3C"/>
<path d="M83.5019 215.591H65.2907V220.185H83.5019V215.591Z" fill="#423E3C"/>
<path d="M221.519 38.8909C221.519 38.8909 206.147 14.0825 178.334 14.0825C150.521 14.0825 136.344 38.8909 136.344 38.8909H110.947V48.0792H245.776V38.8909H221.519Z" fill="#E0115F"/>
<path d="M246.006 48.0792L218.322 44.7071C218.322 44.7071 205.127 19.6781 178.481 19.6689C151.835 19.6689 138.65 44.7071 138.65 44.7071L110.957 48.0792V50.22L178.481 54.8785L246.006 50.22V48.0792Z" fill="#594233" fill-opacity="0.2"/>
<path d="M252.907 48.0791H104.056V57.883H252.907V48.0791Z" fill="#E0115F"/>
<path d="M278.946 59.7207H78.0257V371.544H278.946V59.7207Z" fill="#E0115F"/>
<path d="M235.357 281.839H195.085V362.999H235.357V281.839Z" fill="#FD9A41"/>
<path d="M191.547 312.316H165.434V371.507H191.547V312.316Z" fill="#E0115F"/>
<path d="M189.967 283.299H165.315V309.945H189.967V283.299Z" fill="#FD9A41"/>
<path d="M162.751 281.839H124.776V362.999H162.751V281.839Z" fill="#FD9A41"/>
<path d="M168.172 316.092C168.172 316.092 178.573 311.259 188.809 316.717V309.072H166.16L168.172 316.092Z" fill="#594233" fill-opacity="0.2"/>
<path d="M158.956 360.94H128.561V371.507H158.956V360.94Z" fill="#594233" fill-opacity="0.2"/>
<path d="M228.401 360.94H195.939V371.507H228.401V360.94Z" fill="#594233" fill-opacity="0.2"/>
<path d="M185.345 319.207H171.636V352.671H185.345V319.207Z" fill="#FD9A41"/>
<path d="M170.791 342.794C170.791 342.976 170.737 343.153 170.636 343.304C170.535 343.455 170.391 343.573 170.224 343.643C170.056 343.712 169.871 343.73 169.693 343.695C169.514 343.66 169.351 343.572 169.222 343.444C169.094 343.315 169.006 343.151 168.971 342.973C168.935 342.795 168.954 342.61 169.023 342.442C169.093 342.274 169.21 342.131 169.361 342.03C169.513 341.929 169.69 341.875 169.872 341.875C170.116 341.875 170.349 341.972 170.522 342.144C170.694 342.316 170.791 342.55 170.791 342.794Z" fill="#594233" fill-opacity="0.2"/>
<path d="M128.561 283.299H119.373V371.507H128.561V283.299Z" fill="#3A2A21"/>
<path d="M168.145 283.299H158.956V371.507H168.145V283.299Z" fill="#3A2A21"/>
<path d="M198.007 283.299H188.818V371.507H198.007V283.299Z" fill="#3A2A21"/>
<path d="M237.599 283.299H228.411V371.507H237.599V283.299Z" fill="#3A2A21"/>
<path d="M246.787 278.246H110.185V283.299H246.787V278.246Z" fill="#3A2A21"/>
<path d="M161.832 319.667H125.575V322.423H161.832V319.667Z" fill="#3A2A21"/>
<path d="M161.887 360.94H125.63V363.697H161.887V360.94Z" fill="#3A2A21"/>
<path d="M231.277 319.667H195.02V322.423H231.277V319.667Z" fill="#3A2A21"/>
<path d="M192.374 309.072H165.425V311.829H192.374V309.072Z" fill="#3A2A21"/>
<path d="M231.342 360.94H195.085V363.697H231.342V360.94Z" fill="#3A2A21"/>
<path d="M137.943 281.609V321.045" stroke="#3A2A21" stroke-width="2" stroke-miterlimit="10"/>
<path d="M149.584 281.609V321.045" stroke="#3A2A21" stroke-width="2" stroke-miterlimit="10"/>
<path d="M125.63 294.628H137.943" stroke="#3A2A21" stroke-width="2" stroke-miterlimit="10"/>
<path d="M137.548 303.357H149.86" stroke="#3A2A21" stroke-width="2" stroke-miterlimit="10"/>
<path d="M149.584 288.353H161.887" stroke="#3A2A21" stroke-width="2" stroke-miterlimit="10"/>
<path d="M127.073 314.999H137.943" stroke="#3A2A21" stroke-width="2" stroke-miterlimit="10"/>
<path d="M149.86 309.945H162.163" stroke="#3A2A21" stroke-width="2" stroke-miterlimit="10"/>
<path d="M207.195 281.609V321.045" stroke="#3A2A21" stroke-width="2" stroke-miterlimit="10"/>
<path d="M218.836 281.609V321.045" stroke="#3A2A21" stroke-width="2" stroke-miterlimit="10"/>
<path d="M194.882 294.628H207.195" stroke="#3A2A21" stroke-width="2" stroke-miterlimit="10"/>
<path d="M206.8 303.357H219.112" stroke="#3A2A21" stroke-width="2" stroke-miterlimit="10"/>
<path d="M218.836 288.353H231.139" stroke="#3A2A21" stroke-width="2" stroke-miterlimit="10"/>
<path d="M196.325 314.999H207.195" stroke="#3A2A21" stroke-width="2" stroke-miterlimit="10"/>
<path d="M219.112 309.945H231.415" stroke="#3A2A21" stroke-width="2" stroke-miterlimit="10"/>
<path d="M178.481 281.609V309.9" stroke="#3A2A21" stroke-width="2" stroke-miterlimit="10"/>
<path d="M178.481 319.207V352.671" stroke="#E0115F" stroke-miterlimit="10"/>
<path d="M171.636 325.979H185.336" stroke="#E0115F" stroke-miterlimit="10"/>
<path d="M171.636 336.15H185.336" stroke="#E0115F" stroke-miterlimit="10"/>
<path d="M171.636 346.313H185.336" stroke="#E0115F" stroke-miterlimit="10"/>
<path d="M119 366H63V372H119V366Z" fill="#8CA32C"/>
<path d="M119 361H69V366H119V361Z" fill="#8CA32C"/>
<path d="M69 366L119 365V366H69Z" fill="#7B8940"/>
<path d="M294 366H238V372H294V366Z" fill="#8CA32C"/>
<path d="M288 361H238V366H288V361Z" fill="#8CA32C"/>
<path d="M288 366L238 365V366H288Z" fill="#7B8940"/>
<path d="M278.946 54.8784H78.0257V74.1095H278.946V54.8784Z" fill="#E0115F"/>
<path d="M278.946 61.356H78.0257V65.1048H278.946V61.356Z" fill="#E2E2E2"/>
<path d="M278.946 74.1094L78.0257 77.4815V74.1094H278.946Z" fill="#594233" fill-opacity="0.2"/>
<path d="M138.641 103.797H94.0776V164.44H138.641V103.797Z" fill="#594233" fill-opacity="0.2"/>
<path d="M134.451 108.565H98.2583V159.662H134.451V108.565Z" fill="#FD9A41"/>
<path d="M116.359 120.281V162.317" stroke="#594233" stroke-opacity="0.2" stroke-width="3" stroke-miterlimit="10"/>
<path d="M96.6779 120.281H134.929" stroke="#594233" stroke-opacity="0.2" stroke-width="5" stroke-miterlimit="10"/>
<path d="M138.641 181.282H94.0776V241.924H138.641V181.282Z" fill="#594233" fill-opacity="0.2"/>
<path d="M134.451 186.051H98.2583V237.147H134.451V186.051Z" fill="#FD9A41"/>
<path d="M116.359 197.766V239.802" stroke="#594233" stroke-opacity="0.2" stroke-width="3" stroke-miterlimit="10"/>
<path d="M96.6779 197.766H134.929" stroke="#594233" stroke-opacity="0.2" stroke-width="5" stroke-miterlimit="10"/>
<path d="M262.894 103.797H218.331V164.44H262.894V103.797Z" fill="#594233" fill-opacity="0.2"/>
<path d="M258.704 108.565H222.512V159.662H258.704V108.565Z" fill="#FD9A41"/>
<path d="M240.613 120.281V162.317" stroke="#594233" stroke-opacity="0.2" stroke-width="3" stroke-miterlimit="10"/>
<path d="M220.931 120.281H259.182" stroke="#594233" stroke-opacity="0.2" stroke-width="5" stroke-miterlimit="10"/>
<path d="M262.894 181.282H218.331V241.924H262.894V181.282Z" fill="#594233" fill-opacity="0.2"/>
<path d="M258.704 186.051H222.512V237.147H258.704V186.051Z" fill="#FD9A41"/>
<path d="M240.613 197.766V239.802" stroke="#594233" stroke-opacity="0.2" stroke-width="3" stroke-miterlimit="10"/>
<path d="M220.931 197.766H259.182" stroke="#594233" stroke-opacity="0.2" stroke-width="5" stroke-miterlimit="10"/>
<path d="M201.186 103.797H156.622V241.925H201.186V103.797Z" fill="#594233" fill-opacity="0.2"/>
<path d="M197.005 108.565H160.812V171.698V237.156H197.005V174.014V108.565Z" fill="#FD9A41"/>
<path d="M156.622 103.778C156.622 103.778 161.566 89.7109 178.904 89.7109C196.242 89.7109 201.186 103.778 201.186 103.778L178.904 106.865L156.622 103.778Z" fill="#594233" fill-opacity="0.2"/>
<path d="M178.904 98.3022V237.156" stroke="#594233" stroke-opacity="0.2" stroke-width="3" stroke-miterlimit="10"/>
<path d="M158.956 126.023H198.007" stroke="#594233" stroke-opacity="0.2" stroke-width="3" stroke-miterlimit="10"/>
<path d="M159.379 157.815H198.429" stroke="#594233" stroke-opacity="0.2" stroke-width="3" stroke-miterlimit="10"/>
<path d="M158.745 189.606H197.795" stroke="#594233" stroke-opacity="0.2" stroke-width="3" stroke-miterlimit="10"/>
<path d="M159.168 221.407H198.218" stroke="#594233" stroke-opacity="0.2" stroke-width="3" stroke-miterlimit="10"/>
<path d="M255.139 280.772C255.139 280.239 255.351 279.727 255.729 279.35C256.106 278.972 256.618 278.76 257.152 278.76H262.315C262.849 278.76 263.361 278.972 263.738 279.35C264.116 279.727 264.328 280.239 264.328 280.772C264.325 281.305 264.112 281.814 263.735 282.189C263.358 282.565 262.847 282.776 262.315 282.776H257.152C256.619 282.776 256.109 282.565 255.732 282.189C255.355 281.814 255.142 281.305 255.139 280.772Z" fill="#846B5A"/>
<path d="M249.397 282.776H251.979C252.254 282.794 252.53 282.756 252.789 282.664C253.049 282.571 253.287 282.426 253.488 282.238C253.69 282.05 253.85 281.822 253.96 281.569C254.07 281.317 254.127 281.044 254.127 280.768C254.127 280.492 254.07 280.22 253.96 279.967C253.85 279.714 253.69 279.486 253.488 279.298C253.287 279.11 253.049 278.965 252.789 278.872C252.53 278.78 252.254 278.742 251.979 278.76H249.397V282.776Z" fill="#846B5A"/>
<path d="M252.907 54.8784L104.056 52.0576V54.8784H252.907Z" fill="#E2E2E2"/>
<path d="M146.322 45.1668H211.559C211.559 45.1668 199.927 24.3369 178.941 24.3369C157.955 24.3369 146.322 45.1668 146.322 45.1668Z" fill="#FD9A41"/>
<path d="M178.904 22.8848V46.7743" stroke="#594233" stroke-opacity="0.2" stroke-width="3" stroke-miterlimit="10"/>
<path d="M60.8712 98.918H41.1163C36.5492 98.918 32.8468 102.62 32.8468 107.187V227.398C32.8468 231.965 36.5492 235.667 41.1163 235.667H60.8712C65.4383 235.667 69.1406 231.965 69.1406 227.398V107.187C69.1406 102.62 65.4383 98.918 60.8712 98.918Z" fill="#423E3C"/>
<path d="M56.6445 104.431H45.3429C40.7758 104.431 37.0734 108.133 37.0734 112.7V221.434C37.0734 226.002 40.7758 229.704 45.3429 229.704H56.6445C61.2116 229.704 64.914 226.002 64.914 221.434V112.7C64.914 108.133 61.2116 104.431 56.6445 104.431Z" fill="#E2E2E2"/>
<path d="M56.3598 131H54.1635V124.935H47.9698V131H45.7644V117.565H47.9698V123.06H54.1635V117.565H56.3598V131Z" fill="#423E3C"/>
<path d="M57.6923 144.264C57.6923 145.299 57.5606 146.243 57.2971 147.094C57.0398 147.94 56.6508 148.669 56.1301 149.282C55.6093 149.888 54.9569 150.357 54.1727 150.688C53.3886 151.018 52.4696 151.184 51.4159 151.184C50.3438 151.184 49.4126 151.018 48.6223 150.688C47.8381 150.357 47.1857 149.885 46.6649 149.272C46.1503 148.66 45.7644 147.928 45.5071 147.076C45.2498 146.225 45.1211 145.281 45.1211 144.246C45.1211 142.861 45.3478 141.654 45.8011 140.625C46.2606 139.59 46.9559 138.787 47.8871 138.217C48.8245 137.642 50.0068 137.354 51.4343 137.354C52.8311 137.354 53.992 137.639 54.9171 138.208C55.8421 138.778 56.5344 139.581 56.9939 140.616C57.4595 141.645 57.6923 142.861 57.6923 144.264ZM47.4369 144.264C47.4369 145.299 47.5778 146.197 47.8596 146.957C48.1414 147.71 48.5733 148.292 49.1553 148.703C49.7434 149.107 50.4969 149.309 51.4159 149.309C52.341 149.309 53.0945 149.107 53.6765 148.703C54.2585 148.292 54.6873 147.71 54.963 146.957C55.2387 146.197 55.3765 145.299 55.3765 144.264C55.3765 142.69 55.061 141.458 54.43 140.57C53.8051 139.676 52.8066 139.228 51.4343 139.228C50.5153 139.228 49.7587 139.43 49.1645 139.835C48.5763 140.239 48.1414 140.818 47.8596 141.572C47.5778 142.319 47.4369 143.217 47.4369 144.264Z" fill="#423E3C"/>
<path d="M51.4234 171H49.2088V159.44H45.2757V157.565H55.3473V159.44H51.4234V171Z" fill="#423E3C"/>
<path d="M54.3732 191H46.7644V177.565H54.3732V179.421H48.9698V183.07H54.0332V184.917H48.9698V189.135H54.3732V191Z" fill="#423E3C"/>
<path d="M47.7644 211V197.565H49.9698V209.125H55.6765V211H47.7644Z" fill="#423E3C"/>
<path d="M58.1698 217.401C57.3212 217.339 56.4687 217.451 55.6656 217.733C54.8625 218.014 54.1261 218.458 53.5021 219.037C49.349 212.201 44.1301 208.066 38.4333 208.066C24.9541 208.066 14.02 231.092 14.02 259.52C14.02 260.372 14.02 261.226 14.02 262.084C9.73828 260.448 5.92514 260.43 3.30648 262.415C-3.04264 267.229 0.0262546 281.986 10.1609 295.373C20.2956 308.76 33.683 315.707 40.0413 310.892L40.1424 310.8C52.8222 308.963 62.8283 286.69 62.8283 259.52C62.8289 255.887 62.6449 252.256 62.277 248.641C63.9042 245.219 64.9477 241.548 65.3642 237.781C66.6782 227.15 63.4255 218.035 58.1698 217.401Z" fill="#FFD9E7"/>
<path d="M38.4333 235.364C38.4333 235.364 40.3169 356.291 34.4456 372.205H42.4303C42.4303 372.205 40.565 272.521 38.4333 235.364Z" fill="#3A2A21"/>
<path d="M40.565 300.941C40.565 300.941 32.9203 265.787 25.2849 259.805C32.9203 265.787 40.2434 289.989 40.2434 289.989L40.565 300.941Z" fill="#3A2A21"/>
<path d="M38.7274 275.875C38.7274 275.875 42.3108 257.912 45.3062 252.271C41.2541 256.865 38.7274 268.102 38.7274 268.102V275.875Z" fill="#3A2A21"/>
</svg>
