<svg width="31" height="31" viewBox="0 0 31 31" fill="none" xmlns="http://www.w3.org/2000/svg">
<path fill-rule="evenodd" clip-rule="evenodd" d="M30.9757 11.2791C30.9007 12.9274 30.2069 14.5938 28.992 15.9621C26.9747 18.2343 17.8759 27.4486 15.2284 29.1049C13.5438 30.1581 12.0112 30.8062 10.6964 30.8803C8.01458 31.0311 0.208602 23.0765 0.29878 20.4977C0.350569 19.02 1.00898 17.3686 2.10789 15.5942C3.67611 13.0612 12.9339 4.04413 15.0992 2.09846C16.4242 0.907518 18.0832 0.194775 19.7257 0.0875224C24.1336 -0.19941 31.1578 7.27328 30.9757 11.2791ZM10.1701 19.0005L10.3482 19.1787L10.6123 18.9146C11.048 18.4789 11.759 18.4787 12.1933 18.913C12.5769 19.2966 12.6206 19.8967 12.3249 20.3317L12.0101 20.0169C12.1456 19.7588 12.1055 19.4303 11.8899 19.2147C11.6249 18.9497 11.1895 18.9504 10.9236 19.2162L10.6547 19.4851L12.0784 20.9089C12.112 20.9424 12.1123 20.9985 12.0783 21.0325L10.6221 22.4887C10.5881 22.5227 10.532 22.5224 10.4985 22.4888L8.57691 20.5673C8.54296 20.5333 8.54304 20.4777 8.5771 20.4436L10.0341 18.9866C10.0472 18.9739 10.064 18.9656 10.0821 18.9629C10.1001 18.9601 10.1186 18.9631 10.1348 18.9714C10.1503 18.9789 10.1586 18.9891 10.1701 19.0005ZM16.6744 12.4962L16.8526 12.6744L17.1166 12.4103C17.5528 11.9742 18.2633 11.9744 18.6976 12.4087C19.1315 12.8426 19.1304 13.5536 18.6952 13.9888L18.4311 14.2529L18.5828 14.4046C18.6163 14.4381 18.6166 14.4942 18.5826 14.5282L17.1265 15.9843C17.0928 16.0179 17.0363 16.018 17.0028 15.9845L15.0812 14.063C15.0473 14.029 15.0478 13.9729 15.0814 13.9393L16.5389 12.4819C16.5659 12.4558 16.6065 12.4504 16.6396 12.4667C16.6546 12.4746 16.663 12.4848 16.6744 12.4962ZM18.1242 13.946L18.3931 13.6771C18.659 13.4112 18.6601 12.9753 18.3947 12.7099C18.1297 12.4449 17.6938 12.446 17.4279 12.7119L17.159 12.9808L18.1242 13.946ZM17.0021 8.58026L22.4855 14.0637C22.6641 14.2422 22.6623 14.5359 22.4845 14.7137L18.3673 18.8308C18.1895 19.0087 17.8954 19.0091 17.7177 18.8314L12.2343 13.348C12.0571 13.1708 12.0558 12.8775 12.2349 12.6984L16.352 8.58129C16.5312 8.40215 16.8235 8.40169 17.0021 8.58026ZM10.4973 15.085L15.9807 20.5684C16.1593 20.747 16.158 21.0402 15.9801 21.2181L11.863 25.3352C11.6852 25.513 11.3911 25.5134 11.2134 25.3358L5.73 19.8524C5.55275 19.6751 5.55144 19.3819 5.73058 19.2027L9.8477 15.0856C10.0264 14.9069 10.3188 14.9065 10.4973 15.085ZM24.8013 6.26447C26.4199 7.88312 27.2314 9.69603 26.6131 10.3144C25.9952 10.9323 24.1818 10.1213 22.5631 8.50261C20.9445 6.88396 20.1339 5.07104 20.7518 4.45312C21.3702 3.83476 23.1826 4.64582 24.8013 6.26447Z" fill="#E0115F"/>
</svg>
