<svg width="35" height="24" viewBox="0 0 35 24" fill="none" xmlns="http://www.w3.org/2000/svg">
<path d="M9.77273 12.3636C12.3382 12.3636 14.4091 10.2927 14.4091 7.72727C14.4091 5.16182 12.3382 3.09091 9.77273 3.09091C7.20727 3.09091 5.13636 5.16182 5.13636 7.72727C5.13636 10.2927 7.20727 12.3636 9.77273 12.3636ZM28.3182 3.09091H19.0455C17.3455 3.09091 15.9545 4.48182 15.9545 6.18182V13.9091H3.59091V1.54545C3.59091 0.695455 2.89545 0 2.04545 0C1.19545 0 0.5 0.695455 0.5 1.54545V21.6364C0.5 22.4864 1.19545 23.1818 2.04545 23.1818C2.89545 23.1818 3.59091 22.4864 3.59091 21.6364V18.5455H31.4091V21.6364C31.4091 22.4864 32.1045 23.1818 32.9545 23.1818C33.8045 23.1818 34.5 22.4864 34.5 21.6364V9.27273C34.5 5.85727 31.7336 3.09091 28.3182 3.09091Z" fill="#E0115F"/>
</svg>
