<svg width="354" height="356" viewBox="0 0 354 356" fill="none" xmlns="http://www.w3.org/2000/svg">
<mask id="mask0_17_7444" style="mask-type:alpha" maskUnits="userSpaceOnUse" x="57" y="0" width="241" height="271">
<rect x="57" width="241" height="270.443" fill="#D9D9D9"/>
</mask>
<g mask="url(#mask0_17_7444)">
<path d="M259.764 490.724L93.13 489.948C83.5119 489.888 74.3093 486.022 67.5375 479.197C60.7658 472.373 56.9767 463.144 57.0001 453.534L58.7677 36.113C58.8241 26.4962 62.6948 17.2942 69.5311 10.5245C76.3674 3.7549 85.6113 -0.0298336 95.2362 0.000177123L261.87 0.764271C271.491 0.823899 280.695 4.69113 287.467 11.5188C294.239 18.3464 298.027 27.5777 298 37.1903L296.232 454.611C296.176 464.228 292.305 473.43 285.469 480.2C278.633 486.969 269.389 490.754 259.764 490.724Z" fill="#455A64"/>
<path d="M261.632 15.1817L229.326 15.0313C228.272 15.0493 227.232 15.2745 226.265 15.694C225.299 16.1135 224.424 16.7192 223.692 17.4765C222.96 18.2337 222.384 19.1277 221.998 20.1073C221.611 21.087 221.422 22.133 221.44 23.1859V29.0356C221.46 30.0884 221.272 31.1348 220.887 32.1151C220.502 33.0954 219.928 33.9903 219.197 34.7487C218.466 35.5071 217.592 36.1142 216.626 36.5352C215.66 36.9563 214.621 37.1831 213.567 37.2026L150.584 36.902C148.457 36.843 146.44 35.9434 144.976 34.4006C143.512 32.8578 142.72 30.7978 142.774 28.6723V22.8226C142.802 21.7697 142.623 20.7216 142.246 19.7381C141.869 18.7546 141.301 17.855 140.576 17.0907C139.85 16.3265 138.981 15.7125 138.019 15.2839C137.056 14.8553 136.018 14.6205 134.964 14.5929H123.606L95.3238 14.405C91.9851 14.3902 88.6762 15.0326 85.5859 16.2955C82.4957 17.5584 79.6846 19.4172 77.3133 21.7656C74.942 24.114 73.0569 26.9062 71.7655 29.9825C70.4742 33.0589 69.8019 36.3593 69.7871 39.6953L68.0697 447.183C68.053 453.906 70.7057 460.362 75.4459 465.133C80.1862 469.905 86.627 472.603 93.3556 472.636L259.664 473.4C266.4 473.42 272.869 470.768 277.65 466.026C282.431 461.285 285.133 454.841 285.163 448.11L286.88 40.6849C286.91 33.9595 284.269 27.497 279.535 22.7156C274.801 17.9343 268.363 15.2247 261.632 15.1817Z" fill="#FAFAFA"/>
<path d="M69.5864 88.5972H96.8406L121.161 112.898L95.8753 138.163L69.8748 112.184L69.5864 88.5972Z" fill="#EBEBEB"/>
<path d="M126.715 102.238L113.05 88.5972H143.777L126.715 102.238Z" fill="#EBEBEB"/>
<path d="M138.662 113.374L162.594 89.4741H246.212C246.212 89.4741 259.012 146.593 208.603 183.257L138.662 113.374Z" fill="#EBEBEB"/>
<path d="M128.42 121.002L102.808 146.593L173.664 217.379L199.263 190.936L128.42 121.002Z" fill="#EBEBEB"/>
<path d="M69.2732 161.086L85.3198 144.451L69.5866 128.731L69.2732 161.086Z" fill="#EBEBEB"/>
<path d="M94.9227 154.259L70.2761 178.886V213.107L121.161 265.128L164.262 225.044L94.9227 154.259Z" fill="#EBEBEB"/>
<path d="M218.168 190.397C218.168 190.397 270.959 151.716 253.897 89.4365H286.73L286.329 265.241L218.168 190.397Z" fill="#EBEBEB"/>
<path d="M208.264 200.581L182.74 227.224L261.018 305.437L284.962 280.084L208.264 200.581Z" fill="#EBEBEB"/>
<path d="M172.072 234.514L131.943 274.322L212.201 353.951L252.242 315.258L172.072 234.514Z" fill="#EBEBEB"/>
<path d="M69.3359 402.214C72.7584 401.863 160.4 319.867 160.4 319.867L69.3359 225.583V402.214Z" fill="#EBEBEB"/>
<path d="M95.3739 63.7704C93.1429 62.1234 91.0469 60.3013 89.1057 58.3215V57.8455L89.1935 57.7703L89.3439 57.62L89.6448 57.3319L90.2591 56.7808L91.3999 55.7286L93.4433 53.8622C94.0121 53.2755 94.6623 52.7735 95.3739 52.3716C94.9148 53.0474 94.3714 53.662 93.7567 54.2004L91.8888 56.0543L90.7731 57.1315L90.1713 57.6952L89.8704 57.9833L89.7075 58.1336L89.6322 58.2088V57.7328C91.7028 59.5905 93.6227 61.6094 95.3739 63.7704Z" fill="#263238"/>
<path d="M268.652 54.2127C268.655 54.4838 268.576 54.7495 268.427 54.976C268.278 55.2024 268.065 55.3793 267.815 55.4842C267.564 55.5891 267.289 55.6172 267.022 55.5649C266.756 55.5126 266.512 55.3824 266.32 55.1907C266.128 54.999 265.997 54.7545 265.945 54.4885C265.893 54.2225 265.921 53.947 266.026 53.697C266.131 53.447 266.308 53.2339 266.535 53.0848C266.761 52.9357 267.027 52.8574 267.298 52.8599C267.476 52.8599 267.652 52.8949 267.817 52.9629C267.981 53.0309 268.13 53.1305 268.256 53.2561C268.381 53.3818 268.481 53.5309 268.549 53.695C268.617 53.8592 268.652 54.0351 268.652 54.2127Z" fill="#263238"/>
<path d="M268.251 57.9206C268.41 58.0361 268.542 58.1843 268.638 58.3552C268.734 58.5262 268.792 58.7158 268.808 58.9112C268.825 59.1067 268.799 59.3033 268.732 59.4878C268.665 59.6722 268.56 59.8402 268.422 59.9802C268.285 60.1202 268.119 60.229 267.936 60.2992C267.752 60.3694 267.556 60.3993 267.36 60.3869C267.164 60.3745 266.974 60.3201 266.801 60.2274C266.628 60.1347 266.477 60.0058 266.358 59.8496C266.105 59.5921 265.964 59.2458 265.964 58.8851C265.964 58.5245 266.105 58.1782 266.358 57.9206C266.613 57.6764 266.952 57.54 267.305 57.54C267.657 57.54 267.997 57.6764 268.251 57.9206Z" fill="#263238"/>
<path d="M268.652 63.5575C268.655 63.8286 268.576 64.0943 268.427 64.3207C268.278 64.5471 268.065 64.7241 267.815 64.829C267.564 64.9338 267.289 64.9619 267.022 64.9097C266.756 64.8574 266.512 64.7271 266.32 64.5354C266.128 64.3437 265.997 64.0993 265.945 63.8332C265.893 63.5672 265.921 63.2917 266.026 63.0417C266.131 62.7917 266.308 62.5786 266.535 62.4295C266.761 62.2805 267.027 62.2022 267.298 62.2046C267.476 62.2046 267.652 62.2396 267.817 62.3076C267.981 62.3756 268.13 62.4753 268.256 62.6009C268.381 62.7265 268.481 62.8756 268.549 63.0398C268.617 63.2039 268.652 63.3798 268.652 63.5575Z" fill="#263238"/>
<path d="M209.907 59.7622H151.261V64.6474H209.907V59.7622Z" fill="#263238"/>
<path d="M203.998 146.867C203.998 124.37 179.954 110.108 155.42 121.394C149.878 123.94 145.344 128.21 142.518 133.544C136.35 145.286 139.076 158.708 144.667 169.845L163.761 197.395C164.377 198.893 165.437 200.175 166.802 201.075C168.167 201.974 169.775 202.451 171.418 202.443C173.062 202.435 174.665 201.943 176.021 201.03C177.377 200.117 178.423 198.825 179.024 197.321L197.742 169.537C204.275 154.979 203.998 146.867 203.998 146.867ZM180.959 166.45C164.477 175.871 147.77 158.449 156.802 141.261C157.992 138.994 159.807 137.103 162.04 135.803C178.522 126.382 195.242 143.804 186.198 160.992C185.007 163.259 183.192 165.15 180.959 166.45Z" fill="#E0115F"/>
</g>
<g clip-path="url(#clip0_17_7444)">
<path d="M330.815 279.332H19.5042V325.445H330.815V279.332Z" fill="#E0115F"/>
<g opacity="0.5">
<path opacity="0.5" d="M330.815 279.332H19.5042V325.445H330.815V279.332Z" fill="black"/>
</g>
<path d="M63.3553 355.375C79.8969 354.251 92.4042 339.803 91.291 323.105C90.1778 306.406 75.8657 293.78 59.3241 294.904C42.7824 296.027 30.2752 310.475 31.3884 327.174C32.5016 343.873 46.8137 356.499 63.3553 355.375Z" fill="#263238"/>
<path d="M31.3266 324.624C31.3266 324.652 31.3266 324.675 31.3266 324.703C31.212 332.74 34.2648 340.494 39.8135 346.259C45.3621 352.024 52.952 355.327 60.9136 355.443C68.8751 355.559 76.5561 352.477 82.2668 346.876C87.9774 341.274 91.25 333.612 91.3646 325.575C91.3646 325.547 91.3646 325.524 91.3646 325.496L31.3266 324.624Z" fill="#263238"/>
<path d="M40.2648 324.833C40.203 329.041 41.3788 333.173 43.6433 336.706C45.9078 340.239 49.1593 343.015 52.9866 344.682C56.8139 346.349 61.0451 346.834 65.145 346.073C69.245 345.313 73.0295 343.343 76.0199 340.411C79.0104 337.479 81.0724 333.718 81.9453 329.603C82.8182 325.488 82.4627 321.205 80.9237 317.294C79.3847 313.383 76.7315 310.021 73.2995 307.632C69.8675 305.244 65.8109 303.936 61.6428 303.875C56.0551 303.794 50.664 305.956 46.655 309.886C42.6461 313.816 40.3475 319.193 40.2648 324.833Z" fill="#FAFAFA"/>
<path d="M61.6429 303.864C56.0557 303.784 50.6654 305.946 46.6568 309.876C42.6482 313.806 40.3491 319.182 40.2649 324.822L82.4093 325.434C82.4873 319.794 80.3436 314.354 76.4495 310.309C72.5554 306.264 67.2296 303.946 61.6429 303.864Z" fill="#E0E0E0"/>
<path d="M48.5018 324.952C48.4655 327.515 49.1827 330.031 50.5629 332.183C51.9431 334.334 53.9242 336.024 56.2557 337.039C58.5872 338.053 61.1645 338.347 63.6616 337.884C66.1587 337.42 68.4635 336.219 70.2845 334.433C72.1056 332.647 73.3611 330.356 73.8924 327.849C74.4237 325.343 74.2068 322.734 73.2692 320.352C72.3316 317.97 70.7154 315.922 68.625 314.467C66.5345 313.013 64.0638 312.216 61.525 312.179C58.1205 312.131 54.8362 313.449 52.3941 315.844C49.9521 318.239 48.552 321.515 48.5018 324.952Z" fill="#263238"/>
<path d="M292.632 355.368C309.183 354.399 321.822 340.068 320.862 323.36C319.902 306.652 305.706 293.892 289.155 294.862C272.603 295.831 259.964 310.162 260.925 326.87C261.885 343.578 276.08 356.338 292.632 355.368Z" fill="#263238"/>
<path d="M260.874 324.624C260.877 324.65 260.877 324.676 260.874 324.703C260.759 332.74 263.812 340.494 269.361 346.259C274.909 352.024 282.499 355.327 290.461 355.443C298.422 355.559 306.103 352.477 311.814 346.876C317.525 341.274 320.797 333.612 320.912 325.575V325.496L260.874 324.624Z" fill="#263238"/>
<path d="M269.812 324.833C269.75 329.041 270.926 333.173 273.191 336.706C275.455 340.239 278.707 343.015 282.534 344.682C286.361 346.349 290.592 346.834 294.692 346.073C298.792 345.313 302.577 343.343 305.567 340.411C308.558 337.479 310.62 333.718 311.493 329.603C312.366 325.488 312.01 321.205 310.471 317.294C308.932 313.383 306.279 310.021 302.847 307.632C299.415 305.244 295.358 303.936 291.19 303.875C285.602 303.794 280.211 305.956 276.202 309.886C272.193 313.816 269.895 319.193 269.812 324.833Z" fill="#FAFAFA"/>
<path d="M291.213 303.864C285.625 303.784 280.235 305.946 276.227 309.876C272.218 313.806 269.919 319.182 269.835 324.822L311.974 325.445C312.055 319.804 309.913 314.362 306.02 310.315C302.126 306.268 296.8 303.947 291.213 303.864Z" fill="#E0E0E0"/>
<path d="M278.049 324.952C278.013 327.515 278.73 330.031 280.11 332.183C281.49 334.334 283.472 336.024 285.803 337.039C288.135 338.053 290.712 338.347 293.209 337.884C295.706 337.42 298.011 336.219 299.832 334.433C301.653 332.647 302.908 330.356 303.44 327.849C303.971 325.343 303.754 322.734 302.817 320.352C301.879 317.97 300.263 315.922 298.172 314.467C296.082 313.013 293.611 312.216 291.072 312.179C287.668 312.131 284.384 313.449 281.941 315.844C279.499 318.239 278.099 321.515 278.049 324.952Z" fill="#263238"/>
<path d="M100.69 253.389C100.69 253.389 56.4864 256.68 40.0909 260.39C28.5547 263.007 6.28448 267.516 6.55381 281.66L8.32128 291.793C8.32128 291.793 0.0618467 295.611 0.0618467 305.32C0.0618467 315.028 -1.95812 330.112 17.3214 330.73C20.4972 330.832 26.5347 330.73 26.5347 330.73C26.5347 330.73 22.8314 289.284 60.5544 288.072C98.9282 286.837 96.3752 330.35 96.3752 330.35H256.531C256.531 330.35 249.96 287.953 291.269 287.868C332.577 287.783 326.293 330.599 326.293 330.599C326.293 330.599 341.487 331.925 348.557 319.033C355.627 306.141 353.787 296.942 353.787 296.942L353.551 288.814C353.508 287.476 352.962 286.204 352.024 285.258C351.086 284.311 349.827 283.76 348.501 283.716C348.501 283.716 351.262 263.194 347.026 259.642C342.789 256.091 319.604 234.663 319.604 234.663L320.727 233.96C321.143 233.695 321.476 233.316 321.687 232.867C321.898 232.418 321.979 231.918 321.92 231.425C321.862 230.932 321.666 230.465 321.355 230.08C321.044 229.695 320.632 229.406 320.166 229.248C311.356 226.189 293.928 220.139 289.827 218.689C289.212 218.474 288.573 218.339 287.925 218.287C285.489 218.095 278.565 217.653 265.856 217.517C250.376 217.353 188.912 217.517 188.912 217.517C188.912 217.517 167.77 219.273 155.987 224.512C143.581 230.018 100.69 253.389 100.69 253.389Z" fill="#E0115F"/>
<g opacity="0.4">
<path opacity="0.4" d="M11.2671 304.198C9.66238 303.869 7.20475 303.835 5.98154 304.934C5.07817 305.75 4.85934 307.064 4.69662 308.282C4.44163 309.95 4.47962 311.651 4.80884 313.306C4.97779 314.133 5.31423 314.915 5.79702 315.604C6.27982 316.294 6.89855 316.874 7.61435 317.311C9.07883 318.115 11.0932 317.985 12.2322 316.744C13.2703 315.611 13.3937 313.912 13.3544 312.394C13.3152 310.208 13.4891 308.355 13.0907 306.209C13.0001 305.756 12.8082 305.329 12.5296 304.963C12.3898 304.743 12.2017 304.558 11.9798 304.424C11.7579 304.289 11.5083 304.208 11.2503 304.187" fill="black"/>
</g>
<path d="M8.32119 291.793C13.012 291.793 17.5682 291.532 22.2478 291.227C22.7579 291.247 23.2599 291.093 23.673 290.79C23.8619 290.554 24.0028 290.282 24.0875 289.99C24.1722 289.699 24.1991 289.393 24.1667 289.091C24.1667 286.554 24.0601 283.67 22.1524 282.016C20.9909 281.002 19.3918 280.691 17.8599 280.544C14.0541 280.132 10.2051 280.518 6.55371 281.677L8.32119 291.793Z" fill="#FAFAFA"/>
<path d="M105.762 329.03C105.762 329.03 105.762 328.894 105.723 328.628C105.684 328.362 105.678 327.954 105.645 327.439C105.589 326.385 105.504 324.844 105.398 322.868C105.291 320.891 105.162 318.455 104.876 315.646C104.599 312.466 104.052 309.317 103.243 306.231C102.214 302.5 100.687 298.927 98.7038 295.611C96.4704 291.779 93.5022 288.436 89.973 285.778C82.3981 280.345 72.1692 277.281 61.469 277.139C50.7687 276.998 40.551 280.43 33.1725 286.134C29.6318 288.783 26.5296 291.981 23.9817 295.611C21.7635 298.762 19.9568 302.189 18.6063 305.807C17.5088 308.8 16.7557 311.912 16.3619 315.079C16.0517 317.471 15.9597 319.887 16.0869 322.295C16.1812 323.816 16.3686 325.33 16.648 326.827C16.7378 327.337 16.8108 327.728 16.8613 327.999C16.9118 328.271 16.923 328.402 16.923 328.402C16.923 328.402 16.8837 328.266 16.8276 328.005C16.7715 327.745 16.6929 327.342 16.5919 326.838C16.289 325.343 16.0866 323.829 15.9859 322.307C15.8362 319.89 15.9114 317.465 16.2104 315.062C16.6004 311.877 17.3536 308.749 18.4548 305.739C19.8005 302.092 21.6073 298.637 23.8302 295.458C26.3847 291.805 29.4984 288.585 33.0547 285.919C40.4725 280.17 50.7351 276.715 61.5195 276.856C72.3039 276.998 82.5496 280.079 90.175 285.574C93.73 288.256 96.716 291.63 98.9563 295.498C100.927 298.84 102.437 302.438 103.445 306.192C104.25 309.293 104.79 312.457 105.061 315.651C105.33 318.483 105.443 320.896 105.538 322.885C105.633 324.873 105.684 326.402 105.729 327.456C105.729 327.977 105.768 328.368 105.779 328.645C105.791 328.923 105.762 329.03 105.762 329.03Z" fill="white"/>
<path d="M107.463 329.744C107.463 329.744 107.463 329.625 107.463 329.404L107.429 328.396C107.429 327.507 107.362 326.193 107.311 324.482C107.21 321.05 107.07 316.02 106.89 309.63C106.711 303.241 106.509 295.469 106.267 286.576C106.208 284.352 106.146 282.056 106.082 279.689C106.041 278.488 106.092 277.285 106.234 276.092C106.318 275.491 106.402 274.88 106.492 274.268L106.862 272.444C107.442 269.944 108.279 267.512 109.359 265.188C110.471 262.742 111.851 260.43 113.472 258.294L141.207 240.656L148.692 235.864C151.217 234.171 153.867 232.678 156.621 231.4C159.422 230.077 162.296 228.918 165.228 227.928C166.704 227.407 168.213 226.976 169.717 226.523C171.221 226.07 172.764 225.696 174.318 225.39C180.201 224.118 186.182 223.36 192.195 223.125C197.96 222.845 203.736 222.865 209.499 223.187H209.662L209.628 223.351L202.194 256.992C200.813 259.269 199.684 261.693 198.827 264.219C197.979 266.617 197.598 269.158 197.705 271.702C197.896 274.189 197.963 276.619 198.025 278.981C198.086 281.343 198.114 283.637 198.159 285.857C198.288 294.75 198.322 302.51 198.35 308.9C198.378 315.289 198.35 320.308 198.35 323.74C198.35 325.439 198.35 326.765 198.35 327.654C198.35 328.096 198.35 328.43 198.35 328.657C198.35 328.883 198.35 328.997 198.35 328.997C198.35 328.997 198.35 328.883 198.35 328.657C198.35 328.43 198.35 328.09 198.35 327.654C198.35 326.765 198.35 325.451 198.322 323.74C198.322 320.308 198.272 315.289 198.238 308.9C198.204 302.51 198.137 294.739 197.991 285.863C197.946 283.642 197.897 281.35 197.845 278.986C197.778 276.624 197.705 274.2 197.514 271.719C197.402 269.143 197.783 266.57 198.636 264.14C199.494 261.596 200.623 259.154 202.003 256.856V256.895C204.292 246.53 206.783 235.224 209.432 223.232L209.561 223.408C203.807 223.093 198.04 223.076 192.285 223.357C186.289 223.597 180.325 224.355 174.458 225.623C172.91 225.94 171.395 226.376 169.868 226.755C168.342 227.135 166.861 227.633 165.38 228.155C162.457 229.14 159.593 230.294 156.8 231.61C154.041 232.908 151.387 234.421 148.861 236.136L141.398 240.865L113.64 258.481H113.668C112.061 260.599 110.691 262.89 109.584 265.313C108.509 267.621 107.674 270.036 107.092 272.518C105.83 277.372 106.469 282.147 106.481 286.599C106.699 295.492 106.89 303.252 107.042 309.647C107.193 316.042 107.305 321.067 107.39 324.505C107.423 326.204 107.451 327.53 107.468 328.419C107.468 328.861 107.468 329.195 107.468 329.427L107.463 329.744Z" fill="#263238"/>
<path d="M209.325 224.122H209.589H210.358L213.337 224.048L224.385 223.827L261.637 223.187H261.704L261.749 223.238L266.967 229.69L281.876 248.138L283.559 250.24C284.104 250.941 284.57 251.701 284.951 252.506C285.649 253.996 286.028 255.618 286.065 257.266C286.102 258.914 285.795 260.552 285.164 262.073C284.569 263.455 284.002 264.791 283.481 266.038L278.307 278.052C277.696 279.456 277.224 280.555 276.893 281.314C276.736 281.677 276.607 281.96 276.523 282.158C276.439 282.357 276.383 282.442 276.383 282.442C276.383 282.442 276.416 282.34 276.495 282.147C276.573 281.954 276.691 281.66 276.843 281.292C277.157 280.527 277.617 279.422 278.206 278.006L283.256 265.941C284.221 263.375 285.921 260.685 285.804 257.4C285.776 255.73 285.393 254.086 284.681 252.579C284.322 251.792 283.878 251.048 283.357 250.359L281.674 248.263C277.084 242.599 272.045 236.368 266.754 229.831L261.536 223.38L261.654 223.431L224.402 223.997L213.354 224.133H210.374H209.336L209.325 224.122Z" fill="#263238"/>
<path d="M190.523 274.12C190.523 274.12 190.68 274.12 190.971 274.052C191.515 273.96 192.023 273.721 192.442 273.36C192.861 272.998 193.175 272.529 193.351 272.002C193.477 271.6 193.529 271.177 193.502 270.756C193.488 270.286 193.369 269.825 193.154 269.408C192.903 268.934 192.53 268.537 192.075 268.258C191.62 267.979 191.1 267.829 190.567 267.822H186.786H178.117C177.396 267.823 176.701 268.091 176.164 268.576C175.627 269.06 175.286 269.727 175.204 270.45C175.112 271.138 175.238 271.838 175.564 272.449C175.887 273.029 176.392 273.483 177 273.741C177.599 273.947 178.233 274.024 178.863 273.967H180.703H183.997L188.772 274.013L190.068 274.041C190.219 274.029 190.371 274.029 190.523 274.041C190.371 274.057 190.219 274.057 190.068 274.041H188.772L183.997 274.086H180.703H178.863C178.543 274.086 178.234 274.086 177.892 274.086C177.549 274.062 177.212 273.983 176.893 273.854C176.23 273.578 175.677 273.085 175.322 272.455C174.965 271.793 174.824 271.034 174.918 270.286C175.006 269.491 175.381 268.757 175.971 268.223C176.561 267.689 177.324 267.393 178.117 267.391H186.786H190.573C191.401 267.403 192.191 267.743 192.774 268.337C193.356 268.931 193.684 269.733 193.687 270.569C193.708 271.011 193.645 271.453 193.502 271.872C193.267 272.544 192.812 273.115 192.212 273.492C191.836 273.725 191.415 273.874 190.977 273.928C190.835 274.013 190.682 274.078 190.523 274.12Z" fill="#263238"/>
<path d="M273.527 274.12C273.527 274.12 273.684 274.12 273.976 274.052C274.519 273.96 275.027 273.721 275.446 273.36C275.865 272.998 276.179 272.529 276.355 272.002C276.481 271.6 276.533 271.177 276.506 270.756C276.492 270.286 276.373 269.825 276.158 269.408C275.907 268.934 275.534 268.537 275.079 268.258C274.624 267.979 274.104 267.829 273.572 267.822H269.79H261.121C260.4 267.823 259.706 268.091 259.169 268.576C258.632 269.06 258.29 269.727 258.209 270.45C258.116 271.138 258.242 271.838 258.568 272.449C258.893 273.028 259.398 273.481 260.004 273.741C260.603 273.947 261.237 274.024 261.867 273.967H263.719H267.012L271.787 274.013L273.083 274.041C273.235 274.029 273.387 274.029 273.538 274.041C273.387 274.057 273.235 274.057 273.083 274.041H271.787L267.012 274.086H263.719H261.867C261.547 274.086 261.239 274.086 260.902 274.086C260.557 274.061 260.219 273.983 259.898 273.854C259.234 273.578 258.681 273.085 258.326 272.455C257.969 271.793 257.828 271.034 257.922 270.286C258.011 269.491 258.385 268.757 258.975 268.223C259.565 267.689 260.329 267.393 261.121 267.391H269.79H273.577C274.405 267.403 275.196 267.743 275.778 268.337C276.361 268.931 276.688 269.733 276.691 270.569C276.712 271.011 276.649 271.453 276.506 271.872C276.271 272.544 275.816 273.115 275.216 273.492C274.84 273.725 274.419 273.874 273.981 273.928C273.839 274.013 273.686 274.078 273.527 274.12Z" fill="#263238"/>
<path d="M346.319 260.447H329.71C328.593 260.447 327.497 260.755 326.541 261.338C325.585 261.921 324.804 262.757 324.284 263.755C323.855 264.579 323.616 265.49 323.584 266.421C323.552 267.352 323.728 268.278 324.099 269.13L330.613 284.061L347.245 283.897C347.245 283.897 350.78 264.967 346.319 260.447Z" fill="#FAFAFA"/>
<path d="M115.649 258.334L201.346 256.742L257.126 255.706L275.502 244.989C275.853 244.784 276.157 244.506 276.394 244.174C276.631 243.842 276.795 243.462 276.875 243.061C276.955 242.659 276.95 242.245 276.859 241.846C276.768 241.447 276.595 241.072 276.349 240.746L264.903 225.56C264.313 224.779 263.553 224.144 262.683 223.705C261.812 223.266 260.854 223.035 259.881 223.028L197.509 222.541C197.509 222.541 174.015 221.164 155.51 231.604C136.034 242.61 115.649 258.334 115.649 258.334Z" fill="#263238"/>
<path d="M154.926 224.082C154.926 224.082 159.219 226.059 156.424 227.894C153.63 229.729 110.212 257.349 110.212 257.349L100.23 252.817C117.91 242.854 135.787 233.196 154.926 224.082Z" fill="#455A64"/>
<path d="M111.615 258.051L111.345 258.119L110.56 258.289L107.513 258.929C104.865 259.461 101.027 260.203 96.263 261.03C86.7243 262.684 73.5271 264.61 58.843 265.896C55.1734 266.219 51.5824 266.462 48.1147 266.712C44.6471 266.961 41.303 267.153 38.1271 267.448C31.7754 268.014 26.0802 268.943 21.4567 270.331C17.7896 271.372 14.2608 272.858 10.9473 274.755C9.75213 275.389 8.90486 276.012 8.29887 276.386L7.61433 276.828L7.37866 276.97C7.37866 276.97 7.45161 276.907 7.59749 276.8L8.26521 276.341C9.11174 275.73 9.98817 275.163 10.8912 274.642C14.1946 272.697 17.7248 271.175 21.4006 270.11C26.0297 268.694 31.7418 267.737 38.1047 267.159C41.2861 266.859 44.6303 266.638 48.0979 266.406C51.5655 266.173 55.1454 265.907 58.8206 265.584C73.4934 264.304 86.7074 262.407 96.2294 260.809C100.993 260.011 104.837 259.297 107.491 258.798L110.537 258.226L111.334 258.085C111.427 258.068 111.521 258.057 111.615 258.051Z" fill="#263238"/>
<path d="M352.934 296.789C352.934 296.868 347.222 296.936 340.18 296.936C333.138 296.936 327.421 296.868 327.421 296.789C327.421 296.71 333.133 296.642 340.18 296.642C347.228 296.642 352.934 296.71 352.934 296.789Z" fill="#263238"/>
<path d="M248.462 311.505C248.462 311.584 216.216 311.652 176.45 311.652C136.685 311.652 104.438 311.584 104.438 311.505C104.438 311.426 136.674 311.358 176.45 311.358C216.227 311.358 248.462 311.42 248.462 311.505Z" fill="#263238"/>
<path d="M22.7023 297.276C22.7023 297.355 18.1461 297.423 12.5239 297.423C6.90161 297.423 2.33984 297.355 2.33984 297.276C2.33984 297.197 6.896 297.129 12.5239 297.129C18.1517 297.129 22.7023 297.197 22.7023 297.276Z" fill="#263238"/>
<path d="M319.15 234.068C319.15 234.068 315.34 238.401 316.827 241.567C318.314 244.734 333.856 255.847 333.856 255.847L345.14 257.988L319.15 234.068Z" fill="#455A64"/>
<path d="M211.867 226.331L209.325 253.989L254.73 252.687L273.033 241.947L261.182 226.331H211.867Z" fill="#455A64"/>
<path d="M126.406 255.394C126.406 255.394 153.793 235.422 164.6 231.457C175.031 227.622 180.468 226.665 190.265 226.359C199.629 226.093 205.336 226.359 205.336 226.359L198.098 254.482L126.406 255.394Z" fill="#455A64"/>
<path d="M122.394 255.496C122.394 254.636 122.621 253.792 123.052 253.05C123.483 252.309 124.102 251.696 124.846 251.276L131.136 247.708C132.929 246.689 134.952 246.155 137.01 246.156C138.28 246.155 139.541 246.357 140.747 246.756C142.056 247.215 143.196 248.066 144.014 249.195C144.832 250.325 145.29 251.679 145.326 253.078C145.362 254.018 145.21 254.957 144.878 255.837C144.547 256.717 144.042 257.52 143.396 258.199C142.749 258.877 141.974 259.417 141.116 259.786C140.258 260.155 139.334 260.345 138.402 260.345H127.18C125.909 260.34 124.691 259.828 123.794 258.919C122.897 258.01 122.394 256.779 122.394 255.496Z" fill="#E0115F"/>
<path d="M122.394 255.496C122.394 255.496 122.394 255.711 122.467 256.114C122.571 256.865 122.85 257.58 123.281 258.201C123.712 258.823 124.283 259.332 124.947 259.688C125.452 259.957 126.001 260.132 126.568 260.203C127.163 260.271 127.82 260.232 128.504 260.237H138.099C139.009 260.259 139.915 260.11 140.77 259.795C141.672 259.454 142.492 258.924 143.177 258.241C143.863 257.558 144.398 256.736 144.748 255.83C145.102 254.874 145.244 253.851 145.163 252.834C145.095 251.828 144.808 250.85 144.323 249.969C143.838 249.088 143.167 248.326 142.358 247.736C141.572 247.189 140.687 246.804 139.754 246.603C138.865 246.388 137.953 246.28 137.038 246.28C135.339 246.273 133.659 246.636 132.112 247.345C131.388 247.668 130.726 248.082 130.07 248.438L128.195 249.492L124.969 251.299C124.158 251.736 123.49 252.401 123.045 253.214C122.763 253.729 122.573 254.291 122.483 254.873C122.427 255.275 122.433 255.485 122.416 255.485C122.395 255.28 122.395 255.073 122.416 254.868C122.478 254.273 122.653 253.696 122.932 253.168C123.375 252.322 124.051 251.623 124.879 251.157L128.083 249.316L129.946 248.246C130.603 247.883 131.259 247.464 132 247.113C133.582 246.372 135.305 245.985 137.05 245.98C137.994 245.975 138.936 246.083 139.855 246.303C140.81 246.512 141.715 246.906 142.52 247.464C143.367 248.072 144.071 248.861 144.582 249.774C145.093 250.688 145.398 251.703 145.477 252.749C145.56 253.811 145.41 254.878 145.04 255.876C144.678 256.822 144.121 257.68 143.406 258.392C142.691 259.105 141.835 259.657 140.893 260.011C140.006 260.337 139.065 260.491 138.121 260.464L128.493 260.447C127.838 260.463 127.182 260.444 126.529 260.39C125.766 260.287 125.039 260 124.409 259.553C123.779 259.107 123.265 258.514 122.91 257.824C122.632 257.296 122.459 256.719 122.399 256.125C122.378 255.916 122.377 255.706 122.394 255.496Z" fill="#263238"/>
<path d="M333.436 329.297C333.436 329.297 333.436 329.161 333.436 328.9C333.436 328.64 333.48 328.249 333.509 327.767C333.537 327.286 333.604 326.634 333.632 325.898C333.66 325.162 333.688 324.306 333.722 323.343C333.755 322.381 333.722 321.316 333.722 320.143C333.722 318.971 333.643 317.702 333.486 316.348C333.229 313.265 332.684 310.214 331.859 307.234C331.377 305.497 330.781 303.793 330.075 302.136C329.32 300.344 328.413 298.622 327.364 296.987C325.026 293.39 322.054 290.257 318.594 287.743C314.78 284.96 310.524 282.853 306.009 281.512C301.329 280.062 296.234 279.536 291.055 279.502C285.996 279.449 280.959 280.189 276.125 281.694C273.835 282.422 271.612 283.349 269.481 284.464C267.451 285.547 265.522 286.813 263.719 288.247C260.367 290.905 257.379 293.998 254.831 297.446C253.717 299.033 252.73 300.708 251.879 302.453C251.109 304.074 250.427 305.736 249.837 307.432C248.04 312.555 246.951 317.904 246.599 323.326C246.509 325.247 246.521 326.725 246.566 327.75C246.594 328.249 246.616 328.634 246.633 328.883C246.65 329.132 246.633 329.28 246.633 329.28C246.633 329.28 246.633 329.144 246.588 328.889C246.543 328.634 246.538 328.237 246.498 327.756C246.424 326.279 246.424 324.798 246.498 323.321C246.806 317.879 247.867 312.508 249.652 307.364C250.24 305.659 250.92 303.988 251.688 302.357C252.537 300.594 253.528 298.904 254.651 297.305C257.2 293.826 260.198 290.707 263.567 288.032C265.37 286.58 267.299 285.295 269.33 284.192C271.491 283.07 273.744 282.135 276.063 281.399C280.925 279.883 285.99 279.138 291.078 279.19C296.279 279.224 301.402 279.756 306.115 281.218C310.661 282.581 314.942 284.719 318.774 287.539C320.55 288.855 322.21 290.324 323.734 291.929C325.184 293.438 326.475 295.093 327.589 296.868C328.641 298.516 329.549 300.252 330.305 302.057C331.009 303.715 331.603 305.418 332.083 307.155C332.897 310.149 333.428 313.214 333.671 316.308C333.817 317.673 333.817 318.948 333.884 320.12C333.952 321.293 333.884 322.386 333.884 323.326C333.884 324.267 333.806 325.139 333.772 325.881C333.739 326.623 333.66 327.246 333.621 327.75C333.581 328.254 333.537 328.628 333.514 328.883C333.492 329.138 333.436 329.297 333.436 329.297Z" fill="white"/>
<path d="M196.902 258.334C196.86 258.341 196.816 258.341 196.773 258.334H196.392H194.927L189.546 258.436C185.001 258.521 178.723 258.691 171.793 258.878C164.863 259.065 158.579 259.206 154.028 259.24C151.756 259.24 149.916 259.24 148.647 259.24H147.183H146.801H146.672C146.715 259.232 146.759 259.232 146.801 259.24H147.183L148.647 259.206L154.028 259.11C158.573 259.025 164.846 258.855 171.782 258.663C178.717 258.47 184.996 258.34 189.541 258.306C191.813 258.306 193.654 258.306 194.927 258.306H196.392H196.773C196.818 258.306 196.862 258.316 196.902 258.334Z" fill="white"/>
<path d="M189.462 266.853C187.828 266.999 186.187 267.048 184.547 267C182.907 267.048 181.266 266.999 179.632 266.853C181.266 266.713 182.907 266.669 184.547 266.723C186.186 266.67 187.828 266.713 189.462 266.853Z" fill="white"/>
<path d="M191.263 236.538C191.297 236.617 185.192 239.183 177.634 242.27C170.076 245.357 163.926 247.798 163.898 247.725C163.87 247.651 169.969 245.085 177.527 241.993C185.086 238.9 191.235 236.464 191.263 236.538Z" fill="white"/>
<path d="M178.902 238.475C178.93 238.548 173.123 241.131 165.924 244.247C158.725 247.362 152.861 249.82 152.828 249.73C152.794 249.639 158.607 247.068 165.806 243.958C173.005 240.848 178.869 238.401 178.902 238.475Z" fill="white"/>
<path d="M257.322 235.467C257.322 235.546 251.245 238.107 243.693 241.199C236.14 244.292 229.98 246.728 229.952 246.654C229.923 246.58 236.023 244.014 243.581 240.922C251.139 237.829 257.288 235.393 257.322 235.467Z" fill="white"/>
<path d="M244.955 237.404C244.983 237.478 239.176 240.061 231.977 243.176C224.778 246.292 218.915 248.75 218.887 248.676C218.859 248.603 224.66 246.014 231.865 242.905C239.069 239.795 244.922 237.331 244.955 237.404Z" fill="white"/>
<path d="M258.512 258.328C258.512 258.413 246.375 258.549 231.41 258.64C216.446 258.73 204.298 258.736 204.298 258.64C204.298 258.543 216.435 258.419 231.405 258.328C246.375 258.238 258.512 258.226 258.512 258.328Z" fill="white"/>
<path d="M271.95 266.377C271.95 266.462 268.55 266.559 264.353 266.598C260.156 266.638 256.744 266.598 256.744 266.525C256.744 266.451 260.15 266.343 264.347 266.304C268.544 266.264 271.95 266.298 271.95 266.377Z" fill="white"/>
<path d="M39.5692 262.192C39.4643 262.228 39.3547 262.249 39.2437 262.254L38.2898 262.379C37.8746 262.429 37.3696 262.492 36.7861 262.588C36.2025 262.684 35.5348 262.769 34.8054 262.917C33.3409 263.172 31.6127 263.562 29.7106 264.049C27.8084 264.537 25.7829 265.245 23.6451 266.072C21.6642 266.868 19.7241 267.764 17.832 268.757C16.0926 269.685 14.5664 270.586 13.3432 271.402C12.7092 271.793 12.1649 272.189 11.6599 272.535C11.1549 272.88 10.7509 273.163 10.4199 273.413L9.63431 273.979C9.45475 274.104 9.35937 274.166 9.34814 274.155C9.42567 274.072 9.51015 273.996 9.60064 273.928L10.3525 273.328C10.678 273.061 11.082 272.761 11.5645 272.404C12.0471 272.048 12.5913 271.651 13.2478 271.243C14.4879 270.405 16.0141 269.476 17.7366 268.53C21.5218 266.493 25.5288 264.908 29.6769 263.806C31.5903 263.307 33.3297 262.939 34.8054 262.707C35.5404 262.571 36.2138 262.497 36.7973 262.418C37.3809 262.339 37.9195 262.294 38.3123 262.26L39.2381 262.192C39.3479 262.175 39.4594 262.175 39.5692 262.192Z" fill="white"/>
<path d="M139.771 248.829C139.771 248.829 139.603 248.603 139.21 248.302C138.674 247.881 138.033 247.618 137.358 247.543C136.35 247.463 135.335 247.575 134.368 247.872C133.158 248.176 131.976 248.582 130.833 249.084C128.766 249.999 126.844 251.215 125.126 252.692C123.791 253.825 123.089 254.658 123.044 254.618C123.185 254.402 123.345 254.199 123.521 254.012C123.976 253.501 124.46 253.017 124.969 252.562C126.679 251.006 128.627 249.74 130.737 248.812C131.895 248.305 133.095 247.902 134.323 247.606C135.322 247.313 136.369 247.223 137.403 247.339C138.107 247.438 138.768 247.741 139.305 248.212C139.444 248.343 139.568 248.489 139.676 248.648C139.718 248.702 139.75 248.763 139.771 248.829Z" fill="white"/>
<path d="M320.418 233.87C319.635 234.057 318.832 234.139 318.028 234.114C317.083 234.091 316.144 233.973 315.222 233.762C314.006 233.477 312.813 233.098 311.654 232.629C310.357 232.137 308.972 231.497 307.485 230.868L305.15 229.916C304.354 229.593 303.506 229.316 302.648 229.004C298.903 227.726 295.084 226.682 291.213 225.878C284.173 224.394 277.025 223.496 269.84 223.193C268.466 223.119 267.214 223.119 266.12 223.085H263.315L261.536 223.125H261.076L260.913 223.108H261.07L261.536 223.079L263.309 222.983L266.115 222.932C267.237 222.932 268.466 222.932 269.846 222.994C277.048 223.238 284.216 224.11 291.269 225.6C295.155 226.416 298.987 227.475 302.743 228.772C303.602 229.095 304.427 229.378 305.251 229.707L307.586 230.67C309.073 231.327 310.447 231.961 311.732 232.465C312.883 232.926 314.064 233.305 315.267 233.598C316.175 233.816 317.101 233.948 318.033 233.995C318.623 234.017 319.214 233.994 319.801 233.927L320.261 233.87C320.313 233.861 320.366 233.861 320.418 233.87Z" fill="#263238"/>
</g>
<defs>
<clipPath id="clip0_17_7444">
<rect width="354" height="138" fill="white" transform="translate(0 217.443)"/>
</clipPath>
</defs>
</svg>
