<svg width="337" height="217" viewBox="0 0 337 217" fill="none" xmlns="http://www.w3.org/2000/svg">
<g clip-path="url(#clip0_17_8049)">
<path d="M151.132 95.6465H149.927V107.909H151.132V95.6465Z" fill="#E0115F"/>
<path d="M160.183 95.6465H158.977V107.909H160.183V95.6465Z" fill="#E0115F"/>
<path d="M169.233 95.6465H168.027V107.909H169.233V95.6465Z" fill="#E0115F"/>
<path d="M178.284 95.6465H177.078V107.909H178.284V95.6465Z" fill="#E0115F"/>
<path d="M187.334 95.6465H186.128V107.909H187.334V95.6465Z" fill="#E0115F"/>
<path d="M196.384 95.6465H195.178V107.909H196.384V95.6465Z" fill="#E0115F"/>
<path d="M205.435 95.6465H204.229V107.909H205.435V95.6465Z" fill="#E0115F"/>
<path d="M207.848 94.5908H147.513V95.6464H207.848V94.5908Z" fill="#E0115F"/>
<path d="M73.4121 64.3452L125.555 108.964L81.1326 107.693L51.8501 64.3452H73.4121Z" fill="#EAFCFC"/>
<path opacity="0.5" d="M72.2826 94.5908L81.1326 107.692L125.555 108.964L108.759 94.5908H72.2826Z" fill="#C5DDF9"/>
<path d="M208.932 108.964L228.237 138.374L86.667 128.959L86.5413 115.985L96.6847 112.075L208.932 108.964Z" fill="#E0115F"/>
<path opacity="0.3" d="M160.762 135.814H144.117L168.166 111.48H184.811L160.762 135.814Z" fill="#E0115F" fill-opacity="0.15"/>
<path opacity="0.3" d="M172.421 136.817H167.428L193.397 110.542H198.39L172.421 136.817Z" fill="#E0115F" fill-opacity="0.15"/>
<path d="M43.441 126.214L37.3765 153.494H163.404L145.527 132.633L43.441 126.214Z" fill="#E0115F"/>
<path opacity="0.3" d="M72.6324 153.293H64.5148L78.5494 128.959H86.667L72.6324 153.293Z" fill="#E0115F" fill-opacity="0.15"/>
<path opacity="0.3" d="M78.2214 154.295H75.7876L90.9426 128.02H93.3782L78.2214 154.295Z" fill="#E0115F" fill-opacity="0.15"/>
<path d="M35.0865 122.883C63.9427 124.398 290.384 136.791 290.384 136.791L298.117 144.967L161.724 158.723L140.617 137.14L37.0813 129.887C35.5456 129.78 33.8732 128.252 33.2702 126.386C32.6199 124.391 33.4451 122.798 35.0865 122.883Z" fill="#EAFCFC"/>
<path d="M66.3747 122.013L75.9989 107.447C76.1233 107.259 76.2942 107.105 76.4951 107.001C76.696 106.897 76.9203 106.846 77.1466 106.853H218.755C219.923 106.853 221.249 108.023 221.717 109.464C222.187 110.907 221.621 112.075 220.453 112.075H97.5591C97.2991 112.067 97.0424 112.135 96.8209 112.271C96.5994 112.407 96.4228 112.605 96.313 112.84L88.935 128.091C88.8079 128.358 88.5966 128.576 88.3334 128.712C88.0702 128.848 87.7696 128.894 87.4776 128.843L69.0053 126.637C67.0597 126.397 65.4001 123.489 66.3747 122.013Z" fill="#EAFCFC"/>
<path opacity="0.5" d="M293.284 139.855C292.521 139.05 140.623 137.141 140.623 137.141L161.724 158.723L298.122 144.973L293.284 139.855Z" fill="#C5DDF9"/>
<path d="M21.3142 188.315H249.941L314.03 144.973H167.599L155.576 150.195H35.6039C33.702 150.195 32.2646 151.285 31.7145 153.151L21.3142 188.315Z" fill="#EAFCFC"/>
<path d="M138.005 180.888H28.5902C25.6318 180.888 22.2707 177.924 21.0811 174.267C19.8933 170.611 21.327 167.648 24.2855 167.648H133.7C136.659 167.648 140.022 170.611 141.21 174.267C142.399 177.924 140.965 180.888 138.005 180.888Z" fill="#E0115F"/>
<path d="M171.753 188.315L181.464 172.577C184.88 167.044 190.447 163.89 197.239 163.643L291.495 160.22L249.96 188.315H171.753Z" fill="#E0115F" fill-opacity="0.15"/>
<path d="M30.146 158.458L293.92 158.582L298.104 155.751H30.9457L30.146 158.458Z" fill="#E0115F"/>
<path d="M75.1992 65.5586H51.6989C51.3199 65.5586 50.8882 65.1789 50.7352 64.7083C50.5821 64.2396 50.7661 63.8599 51.1469 63.8599H74.6472C75.0261 63.8599 75.4579 64.2396 75.6109 64.7083C75.7621 65.1789 75.5781 65.5586 75.1992 65.5586Z" fill="#E0115F"/>
<path d="M336.796 214.493C340.846 156.234 283.826 172.775 240.344 185.392C240.321 185.399 240.296 185.404 240.272 185.408C212.417 190.026 126.778 184.583 88.7365 187.445H88.6709C66.2345 186.718 15.3718 178.142 6.60195 184.41C4.30293 186.049 0 188.315 0 192.99L0.950943 213.737C0.960694 213.894 1.03042 214.042 1.14588 214.151C1.26134 214.259 1.41382 214.319 1.57215 214.318H335.033C335.154 214.318 335.273 214.354 335.375 214.421C335.477 214.488 335.556 214.583 335.605 214.694C335.659 214.823 335.756 214.929 335.878 214.995C336.001 215.062 336.142 215.086 336.28 215.062C336.418 215.039 336.544 214.97 336.637 214.867C336.731 214.764 336.787 214.632 336.796 214.493Z" fill="#70C2E0"/>
<path d="M0 197.603C31.2135 203.908 87.5268 200.147 120.781 194.587C131.942 193.584 180.313 200.617 194.052 201.128C207.792 201.638 268.181 193.591 280.488 193.591C292.796 193.591 326.578 199.62 336.3 198.615L336.586 217.007H1.14405L0 197.603Z" fill="#80D6E6"/>
<path d="M280.49 195.593C268.182 195.593 205.788 201.622 192.05 201.12C178.313 200.619 131.944 195.593 120.781 196.598C86.9858 201.767 32.4068 203.355 0.269616 199.676L0 195.092C31.2135 201.395 87.5268 197.635 120.781 192.074C131.942 191.073 180.313 198.106 194.052 198.615C207.792 199.123 268.181 191.08 280.488 191.08C292.796 191.08 326.578 197.109 336.3 196.104L336.319 198.615C328.006 201.215 292.512 195.593 280.49 195.593Z" fill="#CCF6FF"/>
<path d="M265.958 10.3563C258.243 11.4773 255.871 9.54411 248.808 14.2626C248.192 7.77446 242.567 4.54222 240.457 0C238.872 2.92882 242.173 6.62074 243.471 10.8832C244.804 15.2709 244.503 18.8375 245.474 19.5116C246.932 20.5236 253.641 14.9693 256.474 14.5006C259.307 14.0318 264.799 12.6982 265.958 10.3563Z" fill="#E0115F" fill-opacity="0.2"/>
<path d="M213.142 15.3125C215.875 17.0676 222.269 19.4441 223.118 22.5928C227.898 21.2882 232.591 25.1528 236.32 25.7923C234.189 27.671 231.219 25.9558 227.394 25.8323C223.439 25.7069 222.255 27.4457 221.151 26.8388C220.24 26.3446 220.438 23.9736 218.711 21.8006C216.5 19.0335 213.095 18.3758 213.142 15.3125Z" fill="#E0115F" fill-opacity="0.2"/>
<path fill-rule="evenodd" clip-rule="evenodd" d="M99.0117 27.7544C98.4519 27.7581 97.8943 27.8228 97.3486 27.9474C96.8853 26.1808 96.067 24.5271 94.9435 23.0873C93.8199 21.6475 92.4147 20.4517 90.8137 19.573C89.2127 18.6942 87.4494 18.1509 85.6315 17.9762C83.8135 17.8016 81.979 17.9991 80.24 18.557C79.0052 14.8586 76.6261 11.6488 73.4467 9.3918C70.2673 7.1348 66.4524 5.94756 62.5537 6.00178C58.655 6.056 54.8746 7.34886 51.7592 9.69341C48.6438 12.038 46.3549 15.3127 45.2234 19.0439C43.4568 18.266 41.5434 17.8776 39.6133 17.9052C37.6832 17.9328 35.7816 18.3758 34.038 19.204C32.2944 20.0322 30.7496 21.2262 29.5087 22.7048C28.2679 24.1835 27.36 25.912 26.8468 27.7728H26.3506C24.5563 27.7803 22.825 28.4349 21.4746 29.6165C20.1242 30.7981 19.2456 32.4272 19 34.2046H106.399C106.155 32.4184 105.272 30.781 103.914 29.5953C102.556 28.4095 100.815 27.7556 99.0117 27.7544Z" fill="#E0115F" fill-opacity="0.2"/>
<path fill-rule="evenodd" clip-rule="evenodd" d="M302.012 48.7544C301.452 48.7581 300.894 48.8228 300.349 48.9474C299.885 47.1808 299.067 45.5271 297.943 44.0873C296.82 42.6475 295.415 41.4517 293.814 40.573C292.213 39.6942 290.449 39.1509 288.631 38.9762C286.814 38.8016 284.979 38.9991 283.24 39.557C282.005 35.8586 279.626 32.6488 276.447 30.3918C273.267 28.1348 269.452 26.9476 265.554 27.0018C261.655 27.056 257.875 28.3489 254.759 30.6934C251.644 33.038 249.355 36.3127 248.223 40.0439C246.457 39.266 244.543 38.8776 242.613 38.9052C240.683 38.9328 238.782 39.3758 237.038 40.204C235.294 41.0322 233.75 42.2262 232.509 43.7048C231.268 45.1835 230.36 46.912 229.847 48.7728H229.351C227.556 48.7803 225.825 49.4349 224.475 50.6165C223.124 51.7981 222.246 53.4272 222 55.2046H309.399C309.155 53.4184 308.272 51.781 306.914 50.5953C305.556 49.4095 303.815 48.7556 302.012 48.7544Z" fill="#E0115F" fill-opacity="0.2"/>
</g>
<defs>
<clipPath id="clip0_17_8049">
<rect width="337" height="217" fill="white"/>
</clipPath>
</defs>
</svg>
