<svg width="27" height="32" viewBox="0 0 27 32" fill="none" xmlns="http://www.w3.org/2000/svg">
<path d="M13.308 0C9.77991 0.00388145 6.39743 1.40703 3.90257 3.90163C1.40772 6.39623 0.00423494 9.77857 0 13.3066C0 16.7333 2.65333 22.096 7.88665 29.2453C8.50967 30.0988 9.32539 30.7931 10.2675 31.2718C11.2095 31.7505 12.2513 32 13.308 32C14.3647 32 15.4064 31.7505 16.3485 31.2718C17.2906 30.7931 18.1063 30.0988 18.7293 29.2453C23.9626 22.096 26.616 16.7333 26.616 13.3066C26.6117 9.77857 25.2082 6.39623 22.7134 3.90163C20.2185 1.40703 16.8361 0.00388145 13.308 0ZM13.308 18.6106C12.2531 18.6106 11.222 18.2978 10.3449 17.7118C9.46788 17.1258 8.7843 16.2928 8.38063 15.3183C7.97696 14.3438 7.87134 13.2714 8.07713 12.2368C8.28292 11.2023 8.79087 10.252 9.53675 9.50608C10.2826 8.7602 11.2329 8.25225 12.2675 8.04647C13.3021 7.84068 14.3744 7.9463 15.349 8.34996C16.3235 8.75363 17.1564 9.43721 17.7425 10.3143C18.3285 11.1913 18.6413 12.2225 18.6413 13.2773C18.6413 14.6918 18.0794 16.0484 17.0792 17.0485C16.079 18.0487 14.7225 18.6106 13.308 18.6106Z" fill="#E0115F"/>
</svg>
