<svg width="31" height="30" viewBox="0 0 31 30" fill="none" xmlns="http://www.w3.org/2000/svg">
<path d="M17.7878 19.7243L20.2277 17.2844L30.0044 27.061C30.6698 27.7265 30.6698 28.8184 30.0044 29.5009C29.3389 30.1664 28.247 30.1664 27.5645 29.5009L17.7878 19.7243ZM25.1075 9.94767L27.2744 7.78077C28.7929 6.26224 28.5882 3.63466 26.7455 2.52562C20.1083 -1.53518 11.3383 -0.699133 5.58837 5.03376C12.2938 2.81568 19.767 4.60721 25.1075 9.94767ZM5.53719 5.08495C-0.195705 10.8349 -1.03175 19.6049 3.01198 26.2421C4.13809 28.0848 6.7486 28.3066 8.26714 26.771L10.434 24.6041C5.11063 19.2636 3.3191 11.7904 5.53719 5.08495ZM5.57131 5.05082L5.55425 5.06788C4.90589 10.2036 7.55053 16.8067 12.891 22.1642L22.6676 12.3876C17.3272 7.0471 10.707 4.40246 5.57131 5.05082Z" fill="#E0115F"/>
</svg>
